<?xml version="1.0" standalone="no"?><!DOCTYPE svg PUBLIC "-//W3C//DTD SVG 1.1//EN" "http://www.w3.org/Graphics/SVG/1.1/DTD/svg11.dtd"><svg t="1690082508213" class="icon" viewBox="0 0 1024 1024" version="1.1" xmlns="http://www.w3.org/2000/svg" p-id="2265" xmlns:xlink="http://www.w3.org/1999/xlink" width="128" height="128"><path d="M481.28 598.016c-13.312 0-23.552 4.096-32.768 13.312-9.216 9.216-13.312 19.456-13.312 32.768 0 13.312 4.096 23.552 13.312 32.768 9.216 9.216 20.48 13.312 32.768 13.312 13.312 0 23.552-4.096 32.768-13.312 9.216-9.216 13.312-20.48 13.312-32.768 0-13.312-4.096-23.552-13.312-32.768C504.832 602.112 493.568 598.016 481.28 598.016z" p-id="2266" fill="#F28C18"></path><path d="M662.528 598.016c-13.312 0-23.552 4.096-32.768 13.312-8.192 8.192-13.312 18.432-13.312 29.696 0 1.024 0 2.048 0 3.072l0 6.144c1.024 10.24 5.12 19.456 13.312 27.648 9.216 9.216 20.48 13.312 32.768 13.312 13.312 0 23.552-4.096 32.768-13.312 9.216-9.216 13.312-20.48 13.312-32.768 0-13.312-4.096-23.552-13.312-32.768C686.08 602.112 674.816 598.016 662.528 598.016z" p-id="2267" fill="#F28C18"></path><path d="M512 26.624C243.712 26.624 26.624 243.712 26.624 512c0 268.288 217.088 485.376 485.376 485.376 268.288 0 485.376-217.088 485.376-485.376C997.376 243.712 780.288 26.624 512 26.624zM387.072 598.016l-17.408 0L369.664 706.56c0 4.096-2.048 8.192-5.12 11.264-3.072 3.072-7.168 5.12-11.264 5.12-4.096 0-8.192-2.048-11.264-5.12C339.968 714.752 337.92 710.656 337.92 706.56L337.92 598.016l-18.432 0c-4.096 0-8.192-2.048-11.264-5.12-3.072-3.072-5.12-7.168-5.12-11.264 0-4.096 2.048-8.192 5.12-11.264 3.072-3.072 7.168-5.12 11.264-5.12L337.92 565.248l0-29.696c0-4.096 2.048-8.192 5.12-11.264 3.072-3.072 7.168-5.12 11.264-5.12 4.096 0 8.192 2.048 11.264 5.12 3.072 3.072 5.12 7.168 5.12 11.264l0 29.696 17.408 0c4.096 0 8.192 2.048 11.264 5.12 3.072 3.072 5.12 7.168 5.12 11.264 0 4.096-2.048 8.192-5.12 11.264C395.264 595.968 392.192 598.016 387.072 598.016zM536.576 699.392c-15.36 15.36-33.792 22.528-55.296 22.528-21.504 0-39.936-7.168-55.296-22.528-15.36-15.36-22.528-33.792-22.528-55.296 0-21.504 7.168-39.936 22.528-55.296 15.36-15.36 33.792-22.528 55.296-22.528 21.504 0 39.936 7.168 55.296 22.528 15.36 15.36 22.528 33.792 22.528 55.296C559.104 665.6 550.912 684.032 536.576 699.392zM717.824 699.392c-15.36 15.36-33.792 22.528-55.296 22.528-17.408 0-32.768-5.12-46.08-15.36l0 61.44c0 4.096-2.048 8.192-5.12 11.264-3.072 3.072-7.168 5.12-11.264 5.12-4.096 0-8.192-2.048-11.264-5.12-3.072-3.072-5.12-7.168-5.12-11.264L583.68 643.072c0-21.504 8.192-38.912 22.528-54.272 15.36-15.36 33.792-22.528 55.296-22.528 21.504 0 39.936 7.168 55.296 22.528 15.36 15.36 22.528 33.792 22.528 55.296C740.352 665.6 732.16 684.032 717.824 699.392zM758.784 451.584c-3.072 3.072-7.168 5.12-11.264 5.12-4.096 0-8.192-2.048-11.264-5.12L568.32 284.672c-12.288-12.288-28.672-18.432-46.08-18.432-17.408 0-33.792 7.168-46.08 18.432L309.248 451.584c-6.144 6.144-16.384 6.144-22.528 0-6.144-6.144-6.144-16.384 0-22.528l167.936-167.936c37.888-37.888 99.328-37.888 137.216 0l167.936 167.936C764.928 435.2 764.928 445.44 758.784 451.584z" p-id="2268" fill="#F28C18"></path></svg>