<?xml version="1.0" encoding="UTF-8"?>
<svg width="20px" height="20px" viewBox="0 0 20 20" version="1.1" xmlns="http://www.w3.org/2000/svg" xmlns:xlink="http://www.w3.org/1999/xlink">
    <title>close</title>
    <defs>
        <rect id="path-1" x="0" y="0" width="20" height="20"></rect>
    </defs>
    <g id="Page-1" stroke="none" stroke-width="1" fill="none" fill-rule="evenodd">
        <g id="-mobile-FAIRBET_markets" transform="translate(-321.000000, -26.000000)">
            <g id="group-2" transform="translate(309.000000, 18.000000)">
                <g id="close" transform="translate(12.000000, 8.000000)">
                    <mask id="mask-2" fill="white">
                        <use xlink:href="#path-1"></use>
                    </mask>
                    <g id="close-(Background/Mask)"></g>
                    <path d="M4.4107458,4.41074423 C4.08530883,4.73618108 4.08530866,5.2638186 4.41074565,5.58925569 L8.82145087,9.99996305 L4.41066807,14.4107461 C4.08523115,14.7361827 4.08523115,15.2638205 4.41066807,15.5892571 C4.736105,15.9146945 5.26374241,15.9146945 5.5891793,15.5892571 L9.99996185,11.1784744 L14.4107501,15.589265 C14.7361867,15.9147016 15.2638245,15.9147024 15.5892618,15.5892658 C15.9146984,15.2638284 15.9146984,14.7361906 15.5892618,14.410754 L11.1784728,9.99996344 L15.58918,5.58925668 C15.9146166,5.26382009 15.9146166,4.73618237 15.58918,4.41074543 C15.2637426,4.08530849 14.7361048,4.08530881 14.4106682,4.41074543 L9.99996225,8.82145166 L5.58925688,4.41074438 C5.26382029,4.08530749 4.73618279,4.08530739 4.4107458,4.41074423 Z" id="Union" fill="#2D2E32" fill-rule="nonzero" mask="url(#mask-2)"></path>
                </g>
            </g>
        </g>
    </g>
</svg>
