<?xml version="1.0" encoding="UTF-8"?>
<svg width="22px" height="22px" viewBox="0 0 22 22" version="1.1" xmlns="http://www.w3.org/2000/svg" xmlns:xlink="http://www.w3.org/1999/xlink">
    <title>message</title>
    <defs>
        <rect id="path-1" x="0" y="0" width="22" height="22"></rect>
    </defs>
    <g id="Page-1" stroke="none" stroke-width="1" fill="none" fill-rule="evenodd">
        <g id="FAIRBET_markets_Light" transform="translate(-1826.000000, -182.000000)">
            <g id="group-14" transform="translate(1631.000000, 182.000000)">
                <g id="message" transform="translate(195.000000, 0.000000)">
                    <mask id="mask-2" fill="white">
                        <use xlink:href="#path-1"></use>
                    </mask>
                    <g id="message-(Background/Mask)"></g>
                    <path d="M4.58333355,2.75 L17.4166667,2.75 C18.9354501,2.75 20.1666667,3.98121703 20.1666667,5.5 L20.1666667,14.6666667 C20.1666667,16.1854501 18.9354501,17.4166667 17.4166667,17.4166667 L7.66521255,17.4166667 C7.45077093,17.4166667 7.24311531,17.491848 7.07837685,17.6291308 L4.84033589,19.4941645 C3.64623636,20.489247 1.83333333,19.6401264 1.83333333,18.085756 L1.83333333,5.49999978 C1.83333333,3.98121681 3.06455047,2.75 4.58333355,2.75 Z M7.33333333,7.33333333 L14.6666667,7.33333333 C15.1729281,7.33333333 15.5833333,7.74373901 15.5833333,8.25 C15.5833333,8.75626099 15.1729281,9.16666667 14.6666667,9.16666667 L7.33333333,9.16666667 C6.82707234,9.16666667 6.41666667,8.75626099 6.41666667,8.25 C6.41666667,7.74373901 6.82707234,7.33333333 7.33333333,7.33333333 Z M6.41666667,11.9166667 C6.41666667,12.4229281 6.82707234,12.8333333 7.33333333,12.8333333 L11,12.8333333 C11.5062606,12.8333333 11.9166667,12.4229281 11.9166667,11.9166667 C11.9166667,11.4104052 11.5062606,11 11,11 L7.33333333,11 C6.82707234,11 6.41666667,11.4104052 6.41666667,11.9166667 Z" id="Subtract" fill="#2D2E32" mask="url(#mask-2)"></path>
                </g>
            </g>
        </g>
    </g>
</svg>
