<?xml version="1.0" encoding="UTF-8"?>
<svg width="22px" height="22px" viewBox="0 0 22 22" version="1.1" xmlns="http://www.w3.org/2000/svg" xmlns:xlink="http://www.w3.org/1999/xlink">
    <title>messages</title>
    <defs>
        <rect id="path-1" x="0" y="0" width="22" height="22"></rect>
    </defs>
    <g id="Page-1" stroke="none" stroke-width="1" fill="none" fill-rule="evenodd">
        <g id="FAIRBET_markets" transform="translate(-1826.000000, -218.000000)">
            <g id="group-16" transform="translate(1607.000000, 96.000000)">
                <g id="group-15" transform="translate(24.000000, 122.000000)">
                    <g id="messages" transform="translate(195.000000, 0.000000)">
                        <mask id="mask-2" fill="white">
                            <use xlink:href="#path-1"></use>
                        </mask>
                        <g id="messages-(Background/Mask)"></g>
                        <path d="M5.5,7.33337092 L4.125,7.33337092 C2.85934752,7.33337092 1.83333333,8.35938446 1.83333333,9.62503672 L1.83333333,19.1391775 C1.83333333,20.2921233 3.16699027,20.9331123 4.06728981,20.2128717 L6.2911226,18.4338053 C6.37239142,18.3687909 6.4733665,18.33337 6.57744062,18.33337 L14.2083333,18.33337 C15.4739856,18.33337 16.5,17.3073565 16.5,16.0417034 L16.5,14.6667034 L17.875,14.6667034 C19.1406531,14.6667034 20.1666667,13.640689 20.1666667,12.3750367 L20.1666667,2.56924781 C20.1666667,1.47104185 18.9427182,0.816002724 18.0289556,1.42517777 L14.7821321,3.58972689 C14.7068432,3.63992004 14.618381,3.66670382 14.5278942,3.66670382 L7.79166667,3.66670382 C6.52601441,3.66670382 5.5,4.69271735 5.5,5.95837049 L5.5,7.33337092 Z M7.33333333,7.33337092 L7.33333333,5.95837049 C7.33333333,5.70524021 7.53853639,5.50003715 7.79166667,5.50003715 L14.5278942,5.50003715 C14.9803258,5.50003715 15.4226359,5.36611736 15.7990828,5.11515248 L18.3333333,3.42565151 L18.3333333,12.3750367 C18.3333333,12.628167 18.1281303,12.83337 17.875,12.83337 L16.5,12.83337 L16.5,9.62503672 C16.5,8.35938446 15.4739856,7.33337092 14.2083333,7.33337092 L7.33333333,7.33337092 Z M5.5,12.8333613 C5.5,13.3396227 5.91040568,13.750028 6.41666667,13.750028 L11.9166667,13.750028 C12.4229272,13.750028 12.8333333,13.3396227 12.8333333,12.8333613 C12.8333333,12.3270999 12.4229272,11.9166946 11.9166667,11.9166946 L6.41666667,11.9166946 C5.91040568,11.9166946 5.5,12.3270999 5.5,12.8333613 Z" id="Subtract" fill="#FFFFFF" mask="url(#mask-2)"></path>
                    </g>
                </g>
            </g>
        </g>
    </g>
</svg>
