<?xml version="1.0" encoding="UTF-8"?>
<svg width="385px" height="349px" viewBox="0 0 385 349" version="1.1" xmlns="http://www.w3.org/2000/svg" xmlns:xlink="http://www.w3.org/1999/xlink">
    <title>firstcard-common-bg</title>
    <g id="Page-1" stroke="none" stroke-width="1" fill="none" fill-rule="evenodd" opacity="0.3">
        <g id="FAIRBET_Ticket" transform="translate(-360.000000, -477.000000)">
            <g id="group-15" transform="translate(360.000000, 476.000000)">
                <g id="group-18" transform="translate(-92.000000, 0.000000)">
                    <g id="group" transform="translate(279.500000, 162.500000) scale(-1, 1) translate(-279.500000, -162.500000) ">
                        <path d="M83,262 C87.2331205,261.717952 90.7761928,260.321935 93.4423161,255.230836 C96.2421169,249.88243 96.8288125,242.820703 107.552718,228.71766 C118.276623,214.615855 135.483268,208.799223 148.108983,204.552414 C160.588643,200.354469 165,199.549146 165,195.872001 C165,190.741317 154.360262,190.586685 145.397681,187.924543 C133.54185,184.403885 107.834926,174.564352 99.0858579,151.717806 C90.3374089,128.872497 88.9263687,94.1799154 88.3625715,84.5896484 C87.7975366,75 83,75 83,75" id="Stroke-1" stroke="#FFFFFF" stroke-width="2"></path>
                        <g transform="translate(0.000000, 73.000000)" fill="#FFFFFF" fill-opacity="0.3">
                            <path d="M1.05743283,121.993371 C5.74301857,123.183069 10.7119565,124.304263 15.8259956,125.328044 C22.9646013,126.77793 30.4108465,128.039274 37.959223,129.07751 C45.8308077,130.152197 53.1089099,130.922076 60.2101505,131.431767 C61.0471291,131.482673 61.8878443,131.53735 62.7273139,131.59077 C65.5570988,131.773027 68.4834103,131.96094 71.3623926,132.039499 L74.1610399,132.161423 L76.9459866,132.218614 C77.6092175,132.225527 78.2743166,132.241239 78.9406612,132.256322 C80.1151714,132.282718 81.3301604,132.309742 82.5214849,132.296544 L88.1144203,132.287117 C89.2490744,132.27769 90.407393,132.24061 91.5264783,132.204788 C92.2488706,132.181534 92.9706401,132.158909 93.6924096,132.142569 L96.4848294,132.074065 L99.2641714,131.928888 C99.9635218,131.888038 100.664741,131.853472 101.366582,131.818906 C102.505595,131.761715 103.683842,131.702638 104.838424,131.621565 L111.805773,131.091135 L115.968247,130.664402 C118.68656,130.421812 121.436632,130.065468 124.095783,129.71918 C125.089072,129.590343 126.082362,129.460878 127.076274,129.337697 C138.671293,127.722524 150.672346,125.319874 163.760724,121.992742 C164.277608,121.859506 164.776432,122.136663 164.945821,122.64761 C164.976335,122.739996 164.985677,122.839294 164.989413,122.938593 C164.990659,122.896485 165,122.85752 165,122.814784 C165,117.601607 154.293026,117.445117 145.274954,114.739545 C133.344272,111.162281 107.476401,101.164545 98.6731798,77.9512947 C89.8693353,54.7374164 88.4494608,19.4870381 87.8821338,9.74383328 C87.314184,0 82.4866108,0 82.4866108,0 C82.4866108,0 77.6590376,0 77.0910879,9.74383328 C76.5231381,19.4870381 75.1026408,54.7374164 66.3000419,77.9512947 C57.4961974,101.164545 31.6283265,111.162281 19.6982672,114.739545 C10.9249376,117.371586 0.5561175,117.592808 0,122.403135 C0.210490162,122.08827 0.58787785,121.87459 1.05743283,121.993371 Z" id="Stroke-1"></path>
                            <path d="M164.406809,123.627519 C159.625139,125.627563 154.8335,127.397645 150.165858,128.888045 C143.863824,130.990018 136.83401,132.835926 128.047053,134.69675 L122.418591,135.75333 C121.116935,136.014368 119.784124,136.206417 118.494307,136.392872 C117.915447,136.476155 117.335964,136.559439 116.757104,136.648937 L112.50507,137.270455 L105.381167,138.047352 C97.6447575,138.733508 90.5788033,139.067884 83.8250222,139.067884 C83.3714054,139.067884 82.9215272,139.066641 82.4704027,139.063534 C81.2304337,139.066641 79.9748872,139.033701 78.7579728,138.997653 C78.0868941,138.979007 77.4151923,138.959119 76.7441136,138.946067 L73.8803459,138.868377 L71.0128396,138.714862 C67.6742697,138.547053 64.1512622,138.277314 59.5901701,137.842251 L53.9018901,137.196495 C52.6151885,137.036143 51.3172712,136.847823 50.0617247,136.665718 C49.4517097,136.577463 48.8410717,136.488586 48.2304337,136.403438 C44.3940069,135.823562 40.6018202,135.158538 36.9554389,134.423282 C28.9672967,132.806093 21.7225128,130.965157 14.8067257,128.793574 C10.8126546,127.512005 5.56366005,125.76554 0.36264421,123.623168 C0.209984706,123.561016 0.0940881026,123.471518 0,123.368967 C0.666093918,126.390165 5.33685165,127.388323 16.9115576,131.274052 C29.623421,135.541393 46.9474708,141.385524 57.7445479,155.556751 C68.541625,169.727356 69.1323238,176.823846 71.9518514,182.197488 C74.6355431,187.313201 78.2027907,188.716588 82.4647948,189 C86.726799,188.716588 90.2940466,187.313201 92.9777383,182.197488 C95.7972659,176.823846 96.3873416,169.727356 107.184419,155.556751 C117.981496,141.385524 135.306169,135.541393 148.017409,131.274052 C160.227054,127.175142 164.753875,126.286993 165,122.85 C164.958252,123.16511 164.782538,123.470275 164.406809,123.627519 Z" id="Stroke-3"></path>
                        </g>
                        <path d="M83.0074303,278 C91.1708699,277.787565 97.2686818,275.453252 102.868663,270.644655 C110.498977,264.091981 115.404843,255.561119 127.145979,245.535776 C130.510054,242.663871 134.290227,240.028557 138.24687,237.222303 C160.362584,221.634 188.035554,215.7688 212.826181,210.715561 C253.295393,202.466501 264,202.613286 264,198.04004 C264,192.662884 247.045259,192.116002 226.709106,188.581398 C216.476943,186.803257 203.445408,183.687331 189.544527,179.407035 C164.904364,171.820055 144.594217,164.447368 130.158353,148.917903 C104.720669,121.550891 95.5194618,82.6386622 91.7015182,68.5640395 C90.6414599,64.6553511 89.6216492,61.7995497 88.6117455,59.9390363 C86.7702657,56.5475013 84.0433401,56.0049548 83,56" id="Stroke-3" stroke="#FFFFFF" stroke-width="1.598"></path>
                        <path d="M83.0135757,295 C95.0632538,294.858653 104.160832,291.986463 112.189014,287.060405 C125.635139,278.811458 134.528464,267.193128 151.398754,256.347865 C156.868531,252.831554 162.685724,249.78206 168.634971,246.724507 C202.021348,229.653168 240.120348,224.158623 276.845116,217.881092 C345.200057,206.195808 362,206.675023 362,201.206515 C362,195.584263 338.837985,194.519822 307.218919,190.236024 C291.777781,188.088546 273.054407,184.744579 252.967908,180.106174 C214.180249,171.148634 184.568537,164.942396 160.955438,147.121547 C118.83309,115.332168 102.229378,72.0763445 94.9959923,53.5413226 C93.1145221,48.7194148 91.622428,45.0760165 90.3327354,42.7741723 C88.2698444,39.0917176 85.0789351,38.0117789 83,38" id="Stroke-5" stroke="#FFFFFF" stroke-width="1.197"></path>
                        <path d="M83.020438,309 C99.0432194,308.929759 111.219319,305.688211 121.718883,300.534758 C141.182682,290.982017 154.069158,276.21729 176.14159,264.464904 C183.781071,260.397102 191.653422,256.891843 199.636633,253.606548 C244.534608,235.180059 293.330049,230.152301 342.252454,222.642703 C438.999186,207.791099 462,208.428811 462,202.10776 C462,196.280859 432.454687,194.771299 389.336058,189.710885 C368.570419,187.243217 344.026845,183.724402 317.610406,178.702189 C264.38611,168.583825 225.234932,163.518481 192.311773,143.469062 C133.13506,107.639505 109.1557,60.1894184 98.3774357,37.3926003 C95.6789989,31.6852318 93.6946538,27.2908723 92.1073016,24.5712 C89.819483,20.6180017 86.1301124,19.016636 83,19" id="Stroke-7" stroke="#FFFFFF" stroke-width="0.795"></path>
                        <path d="M83.0271378,325 C141.90374,325 159.233667,293.627119 200.148156,274.279347 C264.826688,243.693703 334.087801,239.181279 405.609366,228.805913 C529.984184,210.763005 559,211.493482 559,204.276319 C559,195.301445 481.055421,195.301445 380.394687,178.403609 C313.157804,167.115764 264.826688,163.016702 222.801401,140.669284 C128.651262,90.6026056 103.311996,22.5035072 93.809463,6.4058647 C91.3035376,2.16058347 87.1563946,0.0228274096 83,0" id="Stroke-9" stroke="#FFFFFF" stroke-width="0.394"></path>
                    </g>
                </g>
            </g>
        </g>
    </g>
</svg>
