<?xml version="1.0" standalone="no"?><!DOCTYPE svg PUBLIC "-//W3C//DTD SVG 1.1//EN" "http://www.w3.org/Graphics/SVG/1.1/DTD/svg11.dtd"><svg t="1690084318054" class="icon" viewBox="0 0 1024 1024" version="1.1" xmlns="http://www.w3.org/2000/svg" p-id="9361" xmlns:xlink="http://www.w3.org/1999/xlink" width="128" height="128"><path d="M511.488 1.024C228.9664 1.024 0 229.9904 0 512.512S228.9664 1024 511.488 1024s511.488-228.9664 511.488-511.488S794.0096 1.024 511.488 1.024z m-16.7424 734.8224A24.0128 24.0128 0 0 0 471.04 711.68a24.0128 24.0128 0 0 0-23.6544 24.2176 23.9616 23.9616 0 0 0 23.6544 24.2176 24.0128 24.0128 0 0 0 23.7056-24.2176z m324.608-198.5024a23.9616 23.9616 0 0 0 23.7056 24.2176 24.064 24.064 0 0 0 23.6544-24.1664 23.9104 23.9104 0 0 0-23.6544-24.2688 24.0128 24.0128 0 0 0-23.7056 24.2176z m-49.664 0c0-41.3184 32.9216-75.008 73.4208-75.008 40.448 0 73.3184 33.6896 73.3184 75.008 0 41.4208-32.9216 75.008-73.3696 75.008a72.192 72.192 0 0 1-45.056-15.872l-253.5424 140.4928c-0.6656 40.8576-33.28 73.8816-73.4208 73.8816a73.9328 73.9328 0 0 1-72.5504-64.256L168.3456 625.152c-37.8368-20.2752-64.3072-75.5712-61.5936-128.6144 1.792-33.4336 15.2064-60.416 36.9152-73.9328 12.1856-7.5264 225.4336-115.5072 384.768-196.096l8.4992-4.352a59.0336 59.0336 0 0 1 59.5456-0.2048c35.3792 18.944 116.0192 57.5488 187.136 91.648l1.3824 0.6144c32.8704 15.7696 66.3552 31.744 88.2688 42.496 0 0 11.9296 4.6592 11.9296 16.4352 0 8.5504-6.656 14.1312-12.3904 16.384l-390.2464 207.5648c-20.8896 10.0864-27.6992 7.68-39.936 1.9456a48802.304 48802.304 0 0 1-254.464-136.5504l-1.4848-0.768c-7.68-4.096-14.848-4.4544-20.8896-0.9216-9.4208 5.4784-15.6672 19.8144-16.5888 38.1952-1.8432 35.2256 15.36 73.984 38.4 86.3232l217.7024 117.4016a73.3184 73.3184 0 0 1 65.7408-41.984c24.1152 0 46.4896 12.0832 60.2624 32.3584l242.2784-131.9424a77.1072 77.1072 0 0 1-3.84-23.8592z" fill="#ffffff" p-id="9362"></path></svg>