<?xml version="1.0" encoding="UTF-8"?>
<svg width="517px" height="228px" viewBox="0 0 517 228" version="1.1" xmlns="http://www.w3.org/2000/svg" xmlns:xlink="http://www.w3.org/1999/xlink">
    <title>home-bg3</title>
    <defs>
        <rect id="path-1" x="0" y="0" width="517" height="228"></rect>
    </defs>
    <g id="Page-1" stroke="none" stroke-width="1" fill="none" fill-rule="evenodd">
        <g id="FAIRBET_home" transform="translate(-1403.000000, -2430.000000)">
            <g id="group-23" transform="translate(0.000000, 2430.000000)">
                <g id="group" transform="translate(1403.000000, 0.000000)">
                    <mask id="mask-2" fill="white">
                        <use xlink:href="#path-1"></use>
                    </mask>
                    <g id="masking"></g>
                    <g mask="url(#mask-2)" stroke="#FFFFFF">
                        <g transform="translate(0.049777, 12.000000)">
                            <path d="M616.955199,34.3569974 C616.441131,34.3521189 615.041302,34.6634452 614.041641,36.4072518 C613.181317,37.9084517 612.491464,39.9609268 611.806166,42.5343039 C611.031268,45.4452042 609.95985,48.8906744 609.440467,51.8539686 C607.92408,60.498587 601.573025,78.0737122 586.677583,91.3168468 C570.912327,105.334121 499.382087,112.597893 469.127252,115.124951 C465.485494,115.431721 462.335784,115.704701 459.844794,115.92187 C443.566229,117.339544 424.987646,117.658463 424.987646,120.689718 C424.987646,123.011756 433.017964,123.488237 455.575828,126.062753 C457.089937,126.235501 458.797675,126.417741 460.675504,126.632632 C481.318711,128.99985 519.672584,132.883835 547.115612,140.377685 C559.531454,143.768104 569.340129,146.776958 574.857437,149.073558 C588.526557,154.763615 591.814846,157.165762 595.306256,160.050086 C595.914101,160.552384 596.565229,160.996594 597.250526,161.504587 C602.294011,165.24278 609.145087,170.2688 616.955199,170.445725" id="Stroke-3" stroke-width="0.289"></path>
                            <path d="M616.955199,22.9046545 C615.927442,22.8948959 614.299814,23.531596 613.223081,25.5707828 C612.087499,27.7215915 611.037722,30.4111464 609.946941,33.3721627 C608.351964,37.7037737 606.469959,42.1921868 605.632795,45.0879004 C603.27279,53.2480647 592.75376,74.3745871 566.26863,89.7332214 C540.954011,104.413013 412.81517,112.232237 359.579143,115.124533 C353.184806,115.473826 347.800001,115.780217 343.731878,116.026241 C315.885645,117.711579 283.325097,117.953806 283.325097,121.375736 C283.325097,123.928612 297.042055,124.449134 335.745601,127.329281 C338.262408,127.516457 341.142176,127.710846 344.338585,127.934089 C377.847918,130.272073 444.155471,133.920285 492.337761,140.59026 C514.519376,143.66062 532.637424,146.625053 542.335236,149.270567 C568.48588,156.404874 574.187327,159.72923 580.06304,163.660673 C581.162173,164.395707 582.292819,165.087458 583.544199,165.855143 C591.887362,170.974562 603.721935,180.102115 616.955199,180.297264" id="Stroke-5" stroke-width="0.226"></path>
                            <path d="M616.955199,11.4523504 C615.413374,11.4377108 613.566299,12.4043408 612.40452,14.7343519 C611.005071,17.5393253 609.553607,20.8416614 608.088096,24.2108187 C605.601283,29.9259331 602.991078,35.4967744 601.824364,38.3218701 C598.653013,46.0059331 583.995242,71.0342844 545.859297,88.1496339 C511.007844,103.79074 326.248253,111.866618 250.030655,115.124533 C240.884118,115.516349 233.264218,115.848936 227.618583,116.131408 C188.203922,118.030498 141.662549,118.248806 141.662549,122.062173 C141.662549,124.845126 161.065387,125.484863 215.915754,128.595468 C219.435259,128.802006 223.486676,129.014619 228.001286,129.235205 C274.377885,131.644946 368.62279,134.796555 437.56029,140.802493 C469.501223,143.476862 495.903965,146.432563 509.813414,149.467993 C548.405718,157.889368 556.562086,162.270715 564.820204,167.271298 C566.411005,168.234511 568.018511,169.184815 569.837871,170.206117 C581.478056,176.739033 598.298405,189.935468 616.955199,190.148841" id="Stroke-7" stroke-width="0.163"></path>
                            <path d="M616.955199,0 C614.899307,-0.019891932 612.83734,1.2781866 611.58558,3.89788296 C606.841652,13.8257728 600.328479,27.3361924 598.016692,31.5558019 C594.058673,38.7819875 575.215842,67.8439118 525.450344,86.5656288 C475.684845,105.287346 178.951459,113.350695 111.505667,116.236158 C60.5267556,118.41734 0,118.543769 0,122.748571 C0,125.761981 25.0959318,126.421841 96.0855269,129.861996 C167.906591,133.342396 416.287596,138.108345 477.291213,149.665002 C538.29331,161.22166 541.550846,166.789084 556.131924,174.556674 C571.070647,182.514476 592.875253,199.769163 616.955199,200" id="Stroke-9" stroke-width="0.1"></path>
                        </g>
                    </g>
                </g>
            </g>
        </g>
    </g>
</svg>
