<?xml version="1.0" encoding="UTF-8"?>
<svg width="100px" height="228px" viewBox="0 0 100 228" version="1.1" xmlns="http://www.w3.org/2000/svg" xmlns:xlink="http://www.w3.org/1999/xlink">
    <title>home-bg2</title>
    <defs>
        <rect id="path-1" x="0" y="0" width="100" height="228"></rect>
    </defs>
    <g id="Page-1" stroke="none" stroke-width="1" fill="none" fill-rule="evenodd">
        <g id="FAIRBET_home" transform="translate(0.000000, -2430.000000)">
            <g id="group" transform="translate(0.000000, 2430.000000)">
                <mask id="mask-2" fill="white">
                    <use xlink:href="#path-1"></use>
                </mask>
                <g id="masking"></g>
                <g mask="url(#mask-2)" fill="#FFFFFF" fill-opacity="0.3">
                    <g transform="translate(-100.000000, 0.000000)">
                        <path d="M1.28173676,146.613348 C6.96123463,148.043144 12.9841896,149.390611 19.1830249,150.621006 C27.8358803,152.363499 36.8616321,153.879399 46.0111793,155.127166 C55.5524942,156.41874 64.3744362,157.343991 72.9820006,157.956545 C73.9965201,158.017725 75.0155688,158.083437 76.0331078,158.147638 C79.4631501,158.366677 83.0101943,158.592513 86.4998698,158.686927 L89.8921696,158.833456 L93.2678626,158.902189 C94.0717788,158.910497 94.8779595,158.92938 95.6856499,158.947507 C97.1092986,158.97923 98.5820127,159.011709 100.026042,158.995847 L106.805358,158.984517 C108.180696,158.973188 109.584719,158.928625 110.941186,158.885572 C111.816813,158.857626 112.691685,158.830435 113.566557,158.810797 L116.951308,158.728468 L120.320208,158.553993 C121.167905,158.504898 122.017867,158.463356 122.868584,158.421814 C124.249206,158.353081 125.677384,158.282082 127.076878,158.184648 L135.522149,157.547169 L140.567572,157.034315 C143.862496,156.742767 147.195918,156.314508 150.419131,155.898334 C151.623118,155.743496 152.827105,155.587903 154.031847,155.439863 C168.086415,153.498725 182.633146,150.611187 198.497847,146.612593 C199.124373,146.452468 199.729009,146.785558 199.934328,147.399623 C199.971316,147.510653 199.982638,147.629991 199.987168,147.74933 C199.988677,147.698724 200,147.651895 200,147.600534 C200,141.335265 187.021849,141.147193 176.090854,137.895598 C161.629421,133.596392 130.274426,121.580972 119.603854,93.6829619 C108.932528,65.7841966 107.211468,23.4197963 106.523799,11.7102758 C105.835375,0 99.9837707,0 99.9837707,0 C99.9837707,0 94.1321668,0 93.4437429,11.7102758 C92.7553189,23.4197963 91.0335041,65.7841966 80.3636871,93.6829619 C69.6923605,121.580972 38.3373655,133.596392 23.8766876,137.895598 C13.2423486,141.058822 0.674081818,141.32469 0,147.105808 C0.255139591,146.7274 0.712579212,146.470595 1.28173676,146.613348 Z" id="Stroke-1"></path>
                        <path d="M199.28098,148.94031 C193.485017,151.359109 187.67697,153.499798 182.019222,155.302246 C174.380393,157.844315 165.859406,160.076706 155.20855,162.327135 L148.386171,163.604935 C146.808406,163.920626 145.192878,164.152885 143.629463,164.378379 C142.927815,164.4791 142.225411,164.57982 141.523763,164.688057 L136.369782,165.439704 L127.734748,166.379262 C118.357282,167.20908 109.792489,167.613466 101.606087,167.613466 C101.056249,167.613466 100.510942,167.611962 99.9641245,167.608204 C98.4611318,167.611962 96.9392572,167.572125 95.4642095,167.52853 C94.6507808,167.50598 93.8365967,167.481928 93.023168,167.466143 L89.5519344,167.372187 L86.0761693,167.18653 C82.0294179,166.983586 77.7591058,166.657371 72.2305092,166.131219 L65.3356243,165.350258 C63.7759861,165.156333 62.202753,164.928584 60.6808784,164.708352 C59.9414664,164.601618 59.2012991,164.494132 58.4611318,164.391157 C53.8109175,163.689871 49.2143275,162.885609 44.7944714,161.996411 C35.1118748,160.040626 26.3303185,157.814249 17.9475463,155.187996 C13.106248,153.638101 6.74383037,151.525974 0.439568739,148.935048 C0.254526916,148.859884 0.114046185,148.751647 0,148.627625 C0.807386567,152.281379 6.46891109,153.488523 20.4988576,158.187818 C35.907177,163.348623 56.9060252,170.416356 69.9933914,187.554649 C83.0807575,204.692191 83.7967561,213.274492 87.2143653,219.773228 C90.467325,225.960031 94.7912615,227.657249 99.9573271,228 C105.123393,227.657249 109.447329,225.960031 112.700289,219.773228 C116.117898,213.274492 116.833141,204.692191 129.920508,187.554649 C143.007874,170.416356 164.007477,163.348623 179.415041,158.187818 C194.214611,153.230709 199.701667,152.156606 200,148 C199.949397,148.381085 199.73641,148.750143 199.28098,148.94031 Z" id="Stroke-3"></path>
                    </g>
                </g>
            </g>
        </g>
    </g>
</svg>
