<?xml version="1.0" encoding="UTF-8"?>
<svg width="22px" height="22px" viewBox="0 0 22 22" version="1.1" xmlns="http://www.w3.org/2000/svg" xmlns:xlink="http://www.w3.org/1999/xlink">
    <title>internet</title>
    <defs>
        <rect id="path-1" x="0" y="0" width="22" height="22"></rect>
    </defs>
    <g id="Page-1" stroke="none" stroke-width="1" fill="none" fill-rule="evenodd">
        <g id="FAIRBET_markets" transform="translate(-1826.000000, -146.000000)">
            <g id="group-16" transform="translate(1607.000000, 96.000000)">
                <g id="group-13" transform="translate(24.000000, 50.000000)">
                    <g id="internet" transform="translate(195.000000, 0.000000)">
                        <mask id="mask-2" fill="white">
                            <use xlink:href="#path-1"></use>
                        </mask>
                        <g id="internet-(Background/Mask)"></g>
                        <path d="M13.6674806,12.8333368 L8.79880749,12.8333368 C8.53541123,12.8320879 8.31814905,12.6267173 8.30208002,12.3638087 C8.26736001,11.7898468 8.25,11.335245 8.25,11.0000035 C8.25,10.3670213 8.27878702,9.75404263 8.33251937,9.1666706 L13.2011925,9.1666706 C13.4645887,9.16791952 13.6818509,9.37329002 13.69792,9.63619857 C13.73264,10.2101603 13.75,10.664762 13.75,11.0000035 C13.75,11.6329857 13.7212125,12.2459652 13.6674806,12.8333368 Z M15.5833333,11.0000035 C15.5833333,11.6260804 15.5573967,12.23883 15.5077595,12.8333368 L19.5506072,12.8333368 C19.8011296,12.8332571 20.0129217,12.6477882 20.0459076,12.3994469 C20.1264136,11.8061635 20.1666667,11.3396824 20.1666667,11.0000035 C20.1666667,10.3721494 20.1035441,9.75903869 19.9832994,9.1666706 L16.0366075,9.1666706 C15.7604661,9.16742068 15.5372159,9.39188406 15.5379641,9.66802542 C15.5379879,9.67681019 15.5382433,9.6855928 15.5386937,9.69436612 C15.5684534,10.2440082 15.5833333,10.6792206 15.5833333,11.0000035 Z M15.1680373,6.97294823 C14.4335634,4.43190128 13.7588135,2.8027129 13.1437876,2.0853831 C15.9577704,2.75962906 18.2672035,4.73166937 19.4039207,7.33333727 L15.6482651,7.33333727 C15.4259102,7.33328856 15.2303035,7.18640705 15.1680373,6.97294823 Z M8.75691841,6.70644003 C9.01622384,5.73517279 9.23995078,5.04257588 9.42809923,4.62864931 C10.2015638,2.92702579 10.8953581,2.75000393 11,2.75000393 C11.1046419,2.75000393 11.7984362,2.92702579 12.5719008,4.62864931 C12.9114966,5.37576002 13.1994358,6.29194566 13.4056354,7.33333727 L9.23805998,7.33333727 C8.9619197,7.33226293 8.73893163,7.10753911 8.74000221,6.83139881 C8.7401659,6.7891756 8.7456773,6.74714317 8.75691841,6.70644003 Z M8.85621194,2.0853831 C6.04222957,2.75962911 3.73279689,4.73166937 2.59607995,7.33333727 L6.35173498,7.33333727 C6.57408986,7.33328854 6.76969651,7.18640703 6.83196271,6.97294823 C7.56643661,4.43190128 8.24118635,2.8027129 8.85621194,2.0853831 Z M1.83333333,11.0000035 C1.83333333,11.6278576 1.89645536,12.2409683 2.01669956,12.8333368 L5.96339202,12.8333368 C6.23953338,12.8325869 6.46278371,12.6081236 6.4620356,12.3319822 C6.4620118,12.3231973 6.46175648,12.3144146 6.46130609,12.3056411 C6.43154647,11.7559989 6.41666667,11.3207864 6.41666667,11.0000035 C6.41666667,10.3739266 6.44260291,9.76117698 6.49224007,9.1666706 L2.44939363,9.1666706 C2.19887121,9.1667502 1.98707899,9.35221902 1.95409304,9.6005604 C1.87358657,10.1938436 1.83333333,10.6603246 1.83333333,11.0000035 Z M8.59436456,14.6666702 L12.76194,14.6666702 C13.0380803,14.6677445 13.2610684,14.8924683 13.2599978,15.1686086 C13.2598341,15.2108319 13.2543227,15.2528643 13.2430816,15.2935675 C12.9837762,16.2648348 12.7600492,16.9574319 12.5719008,17.3713586 C11.7984362,19.0729812 11.1046419,19.2500035 11,19.2500035 C10.8953581,19.2500035 10.2015638,19.0729812 9.42809923,17.3713586 C9.08850344,16.6242476 8.80056421,15.7080618 8.59436456,14.6666702 Z M3.2267517,15.4776304 C5.27686054,18.0276087 7.15334641,19.5066054 8.85620932,19.9146204 C7.89077445,18.7885912 7.13012958,16.9257239 6.72911719,14.6666702 L3.61117588,14.6666702 C3.33503575,14.667784 3.1120796,14.8925395 3.11318938,15.1686796 C3.11364487,15.2820148 3.15259133,15.3918328 3.2267517,15.4776304 Z M15.1680374,15.0270588 C14.433564,17.5681028 13.758815,19.19729 13.1437902,19.9146204 C15.9577739,19.240375 18.2672052,17.2683374 19.4039207,14.6666702 L15.6482651,14.6666702 C15.4259104,14.6667189 15.2303038,14.8136002 15.1680374,15.0270588 Z" id="Subtract" fill="#FFFFFF" mask="url(#mask-2)"></path>
                    </g>
                </g>
            </g>
        </g>
    </g>
</svg>
