<?xml version="1.0" encoding="UTF-8"?>
<svg width="22px" height="22px" viewBox="0 0 22 22" version="1.1" xmlns="http://www.w3.org/2000/svg" xmlns:xlink="http://www.w3.org/1999/xlink">
    <title>sun</title>
    <defs>
        <rect id="path-1" x="0" y="0" width="22" height="22"></rect>
    </defs>
    <g id="Page-1" stroke="none" stroke-width="1" fill="none" fill-rule="evenodd">
        <g id="FAIRBET_markets" transform="translate(-1826.000000, -110.000000)">
            <g id="group-16" transform="translate(1607.000000, 96.000000)">
                <g id="group-12" transform="translate(24.000000, 13.859364)">
                    <g id="sun" transform="translate(195.000000, 0.140636)">
                        <mask id="mask-2" fill="white">
                            <use xlink:href="#path-1"></use>
                        </mask>
                        <g id="sun-(Background/Mask)"></g>
                        <path d="M16.5,11 C16.5,7.96243362 14.0375664,5.5 11,5.5 C7.96243362,5.5 5.5,7.96243362 5.5,11 C5.5,14.0375664 7.96243362,16.5 11,16.5 C14.0375664,16.5 16.5,14.0375664 16.5,11 Z" id="Oval" fill="#2D2E32" mask="url(#mask-2)"></path>
                        <path d="M11.912189,2.29166667 L11.912189,3.20833333 C11.912189,3.71459432 11.5017833,4.125 10.9955223,4.125 C10.4892613,4.125 10.0788557,3.71459432 10.0788557,3.20833333 L10.0788557,2.29166667 C10.0788557,1.78540562 10.4892613,1.375 10.9955223,1.375 C11.5017833,1.375 11.912189,1.78540562 11.912189,2.29166667 Z M11.912189,18.7916667 L11.912189,19.7053785 C11.912189,20.2116395 11.5017833,20.6220452 10.9955223,20.6220452 C10.4892613,20.6220452 10.0788557,20.2116395 10.0788557,19.7053785 L10.0788557,18.7916667 C10.0788557,18.2854056 10.4892613,17.875 10.9955223,17.875 C11.5017833,17.875 11.912189,18.2854056 11.912189,18.7916667 Z M2.28866641,10.0818559 L3.20533307,10.0818559 C3.71159407,10.0818559 4.12199975,10.4922616 4.12199974,10.9985226 C4.12199973,11.5047836 3.71159407,11.9151893 3.20533307,11.9151893 L2.28866641,11.9151893 C1.78240536,11.9151893 1.37199974,11.5047836 1.37199974,10.9985226 C1.37199974,10.4922616 1.78240536,10.0818559 2.28866641,10.0818559 Z M18.7886664,10.0818559 L19.7023783,10.0818559 C20.2086393,10.0818559 20.6190449,10.4922616 20.6190449,10.9985226 C20.6190449,11.5047836 20.2086393,11.9151893 19.7023783,11.9151893 L18.7886664,11.9151893 C18.2824054,11.9151893 17.8719997,11.5047836 17.8719997,10.9985226 C17.8719997,10.4922616 18.2824054,10.0818559 18.7886664,10.0818559 Z M4.19075328,16.5070128 L4.83893454,15.8588318 C5.19691512,15.5008512 5.77731645,15.5008512 6.13529706,15.8588318 C6.49327767,16.2168124 6.49327764,16.7972142 6.13529706,17.1551948 L5.48711558,17.8033749 C5.12913498,18.1613555 4.54873389,18.1613555 4.19075328,17.8033749 C3.83277267,17.4453943 3.83277267,16.8649935 4.19075328,16.5070128 Z M15.8580153,4.83975148 L16.504107,4.19365935 C16.8620876,3.83567877 17.4424885,3.83567874 17.8004691,4.19365935 C18.1584497,4.55163995 18.1584497,5.13204129 17.8004691,5.49002186 L17.1543783,6.136114 C16.7963976,6.49409461 16.2159959,6.49409461 15.8580153,6.136114 C15.5000347,5.77813339 15.5000347,5.19773209 15.8580153,4.83975148 Z M5.48711558,4.19365956 L6.13529662,4.84184082 C6.4932772,5.1998214 6.49327723,5.78022274 6.13529662,6.13820334 C5.77731602,6.49618395 5.1969149,6.49618392 4.83893432,6.13820334 L4.19075328,5.49002186 C3.83277267,5.13204126 3.83277267,4.55164017 4.19075328,4.19365956 C4.54873389,3.83567896 5.12913498,3.83567896 5.48711558,4.19365956 Z M17.1543783,15.8609211 L17.8004708,16.5070128 C18.1584514,16.8649934 18.1584514,17.4453943 17.8004708,17.8033749 C17.4424902,18.1613555 16.8620876,18.1613555 16.504107,17.8033749 L15.8580153,17.1572841 C15.5000347,16.7993035 15.5000347,16.2189018 15.8580153,15.8609211 C16.2159959,15.5029405 16.7963976,15.5029405 17.1543783,15.8609211 Z" id="Vector" fill="#2D2E32" mask="url(#mask-2)"></path>
                    </g>
                </g>
            </g>
        </g>
    </g>
</svg>
