<svg width="35" height="39" viewBox="0 0 35 39" fill="none" xmlns="http://www.w3.org/2000/svg">
<path fill-rule="evenodd" clip-rule="evenodd" d="M22.023 22.6739C28.2842 22.6739 33.36 17.5982 33.36 11.3369C33.36 10.8661 33.15 9.92258 33.3974 9.92196C33.6447 9.92134 34.5129 13.6952 34.5129 15.7564C34.5129 24.4585 27.4585 31.5129 18.7564 31.5129C10.0544 31.5129 3 24.4585 3 15.7564C3 7.0544 10.0544 0 18.7564 0C19.3542 0 20.6513 0 20.5248 0.0981236C14.9717 0.831278 10.6861 5.58363 10.6861 11.3369C10.6861 17.5982 15.7618 22.6739 22.023 22.6739Z" fill="url(#paint0_linear_208_19620)"/>
<g filter="url(#filter0_d_208_19620)">
<path d="M19.1319 22.6788C19.7202 21.4898 20.1393 20.1899 20.3957 18.9076C20.78 16.9861 22.3172 13.5273 24.8152 13.5273C25.9681 13.5273 27.0803 13.9556 27.121 14.296C27.1617 14.6363 25.6175 14.9802 25.1995 16.0253C24.907 16.7566 24.9485 18.0001 24.9849 19.0946C24.9964 19.4381 25.0074 19.7668 25.0074 20.0605V22.8257C25.0074 26.301 24.7562 28.4606 23.9622 29.5826C23.1681 30.7047 21.6484 31.5011 21.3027 31.6307C19.7111 32.2275 17.717 31.9866 16.0732 31.7083C15.2223 31.5746 14.7132 31.4248 12.927 30.7336L12.3003 30.4528C11.8426 30.2436 11.401 30.0025 10.9794 29.7417C9.26302 28.7113 7.75908 27.3633 6.54883 25.7791C6.54883 25.7791 10.6246 28.1992 13.9081 27.3495C17.1916 26.4998 18.881 23.1861 19.1319 22.6788Z" fill="url(#paint1_linear_208_19620)"/>
</g>
<g filter="url(#filter1_d_208_19620)">
<path d="M19.1319 22.6788C19.7202 21.4898 20.1393 20.1899 20.3957 18.9076C20.78 16.9861 22.3172 13.5273 24.8152 13.5273C25.9681 13.5273 27.0803 13.9556 27.121 14.296C27.1617 14.6363 25.6175 14.9802 25.1995 16.0253C24.907 16.7566 24.9485 18.0001 24.9849 19.0946C24.9964 19.4381 25.0074 19.7668 25.0074 20.0605V22.8257C25.0074 26.301 24.7562 28.4606 23.9622 29.5826C23.1681 30.7047 21.6484 31.5011 21.3027 31.6307C19.7111 32.2275 17.717 31.9866 16.0732 31.7083C15.2223 31.5746 14.7132 31.4248 12.927 30.7336L12.3003 30.4528C11.8426 30.2436 11.401 30.0025 10.9794 29.7417C9.26302 28.7113 7.75908 27.3633 6.54883 25.7791C6.54883 25.7791 10.6246 28.1992 13.9081 27.3495C17.1916 26.4998 18.881 23.1861 19.1319 22.6788Z" fill="url(#paint2_linear_208_19620)"/>
</g>
<g filter="url(#filter2_d_208_19620)">
<path d="M19.1319 22.6788C19.7202 21.4898 20.1393 20.1899 20.3957 18.9076C20.78 16.9861 22.3172 13.5273 24.8152 13.5273C25.9681 13.5273 27.0803 13.9556 27.121 14.296C27.1617 14.6363 25.6175 14.9802 25.1995 16.0253C24.907 16.7566 24.9485 18.0001 24.9849 19.0946C24.9964 19.4381 25.0074 19.7668 25.0074 20.0605V22.8257C25.0074 26.301 24.7562 28.4606 23.9622 29.5826C23.1681 30.7047 21.6484 31.5011 21.3027 31.6307C19.7111 32.2275 17.717 31.9866 16.0732 31.7083C15.2223 31.5746 14.7132 31.4248 12.927 30.7336L12.3003 30.4528C11.8426 30.2436 11.401 30.0025 10.9794 29.7417C9.26302 28.7113 7.75908 27.3633 6.54883 25.7791C6.54883 25.7791 10.6246 28.1992 13.9081 27.3495C17.1916 26.4998 18.881 23.1861 19.1319 22.6788Z" fill="url(#paint3_linear_208_19620)"/>
</g>
<defs>
<filter id="filter0_d_208_19620" x="0.399975" y="7.37849" width="32.8709" height="30.7704" filterUnits="userSpaceOnUse" color-interpolation-filters="sRGB">
<feFlood flood-opacity="0" result="BackgroundImageFix"/>
<feColorMatrix in="SourceAlpha" type="matrix" values="0 0 0 0 0 0 0 0 0 0 0 0 0 0 0 0 0 0 127 0" result="hardAlpha"/>
<feOffset/>
<feGaussianBlur stdDeviation="3.07443"/>
<feComposite in2="hardAlpha" operator="out"/>
<feColorMatrix type="matrix" values="0 0 0 0 0.585621 0 0 0 0 0.764706 0 0 0 0 0.227451 0 0 0 0.3 0"/>
<feBlend mode="normal" in2="BackgroundImageFix" result="effect1_dropShadow_208_19620"/>
<feBlend mode="normal" in="SourceGraphic" in2="effect1_dropShadow_208_19620" result="shape"/>
</filter>
<filter id="filter1_d_208_19620" x="0.399975" y="7.37849" width="32.8709" height="30.7704" filterUnits="userSpaceOnUse" color-interpolation-filters="sRGB">
<feFlood flood-opacity="0" result="BackgroundImageFix"/>
<feColorMatrix in="SourceAlpha" type="matrix" values="0 0 0 0 0 0 0 0 0 0 0 0 0 0 0 0 0 0 127 0" result="hardAlpha"/>
<feOffset/>
<feGaussianBlur stdDeviation="3.07443"/>
<feComposite in2="hardAlpha" operator="out"/>
<feColorMatrix type="matrix" values="0 0 0 0 0.585621 0 0 0 0 0.764706 0 0 0 0 0.227451 0 0 0 0.3 0"/>
<feBlend mode="normal" in2="BackgroundImageFix" result="effect1_dropShadow_208_19620"/>
<feBlend mode="normal" in="SourceGraphic" in2="effect1_dropShadow_208_19620" result="shape"/>
</filter>
<filter id="filter2_d_208_19620" x="0.399975" y="7.37849" width="32.8709" height="30.7704" filterUnits="userSpaceOnUse" color-interpolation-filters="sRGB">
<feFlood flood-opacity="0" result="BackgroundImageFix"/>
<feColorMatrix in="SourceAlpha" type="matrix" values="0 0 0 0 0 0 0 0 0 0 0 0 0 0 0 0 0 0 127 0" result="hardAlpha"/>
<feOffset/>
<feGaussianBlur stdDeviation="3.07443"/>
<feComposite in2="hardAlpha" operator="out"/>
<feColorMatrix type="matrix" values="0 0 0 0 0.585621 0 0 0 0 0.764706 0 0 0 0 0.227451 0 0 0 0.3 0"/>
<feBlend mode="normal" in2="BackgroundImageFix" result="effect1_dropShadow_208_19620"/>
<feBlend mode="normal" in="SourceGraphic" in2="effect1_dropShadow_208_19620" result="shape"/>
</filter>
<linearGradient id="paint0_linear_208_19620" x1="-4.92949" y1="15.7564" x2="39.8978" y2="27.5121" gradientUnits="userSpaceOnUse">
<stop offset="0.010581" stop-color="#0C4EA0"/>
<stop offset="0.945" stop-color="#4E1B3F"/>
</linearGradient>
<linearGradient id="paint1_linear_208_19620" x1="29.4068" y1="13.5273" x2="6.54883" y2="26.5356" gradientUnits="userSpaceOnUse">
<stop offset="0.146748" stop-color="#EA6777"/>
<stop offset="0.564025" stop-color="#DF38B0"/>
<stop offset="1" stop-color="#0387FF"/>
</linearGradient>
<linearGradient id="paint2_linear_208_19620" x1="29.4068" y1="13.5273" x2="6.54883" y2="26.5356" gradientUnits="userSpaceOnUse">
<stop offset="0.146748" stop-color="#EA6777"/>
<stop offset="0.564025" stop-color="#DF38B0"/>
<stop offset="1" stop-color="#0387FF"/>
</linearGradient>
<linearGradient id="paint3_linear_208_19620" x1="29.4068" y1="13.5273" x2="6.54883" y2="26.5356" gradientUnits="userSpaceOnUse">
<stop offset="0.005" stop-color="#EA6777"/>
<stop offset="0.564025" stop-color="#DF38B0"/>
<stop offset="1" stop-color="#0387FF"/>
</linearGradient>
</defs>
</svg>
