<?xml version="1.0" encoding="UTF-8"?>
<!DOCTYPE svg PUBLIC "-//W3C//DTD SVG 1.1//EN" "http://www.w3.org/Graphics/SVG/1.1/DTD/svg11.dtd">
<svg xmlns="http://www.w3.org/2000/svg" version="1.1" width="80px" height="80px" style="shape-rendering:geometricPrecision; text-rendering:geometricPrecision; image-rendering:optimizeQuality; fill-rule:evenodd; clip-rule:evenodd" xmlns:xlink="http://www.w3.org/1999/xlink">
<g><path style="opacity:0.982" fill="#cdcdcd" d="M 30.5,-0.5 C 36.5,-0.5 42.5,-0.5 48.5,-0.5C 64.5,4.16667 74.8333,14.5 79.5,30.5C 79.5,36.5 79.5,42.5 79.5,48.5C 74.8333,64.5 64.5,74.8333 48.5,79.5C 42.5,79.5 36.5,79.5 30.5,79.5C 14.5,74.8333 4.16667,64.5 -0.5,48.5C -0.5,42.5 -0.5,36.5 -0.5,30.5C 4.16667,14.5 14.5,4.16667 30.5,-0.5 Z"/></g>
<g><path style="opacity:1" fill="#6d6d6d" d="M 52.5,32.5 C 50.8762,32.3601 49.7096,33.0267 49,34.5C 48.5026,37.146 48.3359,39.8127 48.5,42.5C 50.411,46.0182 52.911,46.3515 56,43.5C 58.1062,45.291 60.6062,45.9577 63.5,45.5C 68.1139,52.1614 66.4472,56.9947 58.5,60C 47.3176,64.8163 36.3176,64.6496 25.5,59.5C 23.8854,54.4908 24.2187,49.6575 26.5,45C 23.5103,41.3718 21.6769,37.2051 21,32.5C 20.5007,27.5111 20.3341,22.5111 20.5,17.5C 20.5412,15.2547 21.3745,14.5881 23,15.5C 25.0704,20.6428 27.9037,25.3094 31.5,29.5C 36.7073,27.1426 42.0406,26.9759 47.5,29C 49.5844,29.6972 51.2511,30.8639 52.5,32.5 Z"/></g>
<g><path style="opacity:1" fill="#b0b0b0" d="M 20.5,17.5 C 20.3341,22.5111 20.5007,27.5111 21,32.5C 21.6769,37.2051 23.5103,41.3718 26.5,45C 24.2187,49.6575 23.8854,54.4908 25.5,59.5C 19.9107,57.7556 16.744,54.0889 16,48.5C 17.4936,49.7472 18.9936,49.7472 20.5,48.5C 19.5,47.1667 18.5,45.8333 17.5,44.5C 18.5,43.1667 19.5,41.8333 20.5,40.5C 15.1816,32.7586 15.1816,25.0919 20.5,17.5 Z"/></g>
<g><path style="opacity:1" fill="#e2e2e2" d="M 43.5,44.5 C 42.8423,43.6016 42.1757,42.6016 41.5,41.5C 40.6143,42.325 40.281,43.325 40.5,44.5C 37.5261,47.2855 35.3594,46.6188 34,42.5C 32.4887,34.6655 35.1554,31.9989 42,34.5C 43.3158,37.6883 43.8158,41.0217 43.5,44.5 Z"/></g>
<g><path style="opacity:1" fill="#afafaf" d="M 43.5,44.5 C 41.9567,46.5567 40.9567,46.5567 40.5,44.5C 40.281,43.325 40.6143,42.325 41.5,41.5C 42.1757,42.6016 42.8423,43.6016 43.5,44.5 Z"/></g>
<g><path style="opacity:1" fill="#efefef" d="M 53.5,41.5 C 53.5,40.5 53.5,39.5 53.5,38.5C 52.1667,38.5 50.8333,38.5 49.5,38.5C 49.5,39.8333 49.5,41.1667 49.5,42.5C 49.1667,42.5 48.8333,42.5 48.5,42.5C 48.3359,39.8127 48.5026,37.146 49,34.5C 49.7096,33.0267 50.8762,32.3601 52.5,32.5C 51.2511,30.8639 49.5844,29.6972 47.5,29C 42.0406,26.9759 36.7073,27.1426 31.5,29.5C 27.9037,25.3094 25.0704,20.6428 23,15.5C 21.3745,14.5881 20.5412,15.2547 20.5,17.5C 15.1816,25.0919 15.1816,32.7586 20.5,40.5C 19.5,41.8333 18.5,43.1667 17.5,44.5C 18.5,45.8333 19.5,47.1667 20.5,48.5C 18.9936,49.7472 17.4936,49.7472 16,48.5C 16.744,54.0889 19.9107,57.7556 25.5,59.5C 36.3176,64.6496 47.3176,64.8163 58.5,60C 66.4472,56.9947 68.1139,52.1614 63.5,45.5C 67.7478,46.5882 69.2478,49.2548 68,53.5C 65.7083,57.7885 62.2083,60.6218 57.5,62C 42.0022,68.2325 28.1688,65.7325 16,54.5C 13.729,51.8805 13.0623,48.8805 14,45.5C 14.8373,47.0074 16.0039,47.5074 17.5,47C 15.6041,45.1917 15.1041,43.025 16,40.5C 16.8928,41.7112 17.7261,41.7112 18.5,40.5C 14.471,32.1771 14.6377,23.8438 19,15.5C 20.3513,13.981 21.8513,12.6477 23.5,11.5C 24.7375,17.1433 27.4042,21.9766 31.5,26C 35.8333,26.6667 40.1667,26.6667 44.5,26C 47.1322,22.4457 48.7989,18.4457 49.5,14C 49.8499,12.7425 50.5165,12.4092 51.5,13C 56.7839,18.746 59.4506,25.5794 59.5,33.5C 58.9181,37.1551 58.4181,40.8218 58,44.5C 57.6667,42.1667 57.3333,39.8333 57,37.5C 56.5811,41.8518 55.9145,42.1851 55,38.5C 54.7679,39.7375 54.2679,40.7375 53.5,41.5 Z"/></g>
<g><path style="opacity:1" fill="#757575" d="M 35.5,41.5 C 36.9778,41.238 38.3112,41.5713 39.5,42.5C 37.5365,45.1939 36.2032,44.8606 35.5,41.5 Z"/></g>
<g><path style="opacity:1" fill="#757575" d="M 53.5,41.5 C 52.5284,43.4931 51.1951,43.8264 49.5,42.5C 49.5,41.1667 49.5,39.8333 49.5,38.5C 50.8333,38.5 52.1667,38.5 53.5,38.5C 53.5,39.5 53.5,40.5 53.5,41.5 Z"/></g>
<g><path style="opacity:1" fill="#9f9f9f" d="M 52.5,32.5 C 54.1765,33.1834 54.8432,34.5168 54.5,36.5C 52.8561,36.2865 51.3561,36.6198 50,37.5C 49.6667,34.8333 50.6667,34.1667 53,35.5C 53.4696,34.4232 53.3029,33.4232 52.5,32.5 Z"/></g>
<g><path style="opacity:1" fill="#707070" d="M 36.5,34.5 C 37.4959,34.4142 38.3292,34.7476 39,35.5C 39.4935,37.1341 39.6602,38.8008 39.5,40.5C 35.5564,40.1156 34.5564,38.1156 36.5,34.5 Z"/></g>
<g><path style="opacity:1" fill="#6f6f6f" d="M 50.5,14.5 C 55.9115,19.0074 57.5781,24.6741 55.5,31.5C 53.4759,29.6419 51.3092,27.9752 49,26.5C 48.5634,22.3773 49.0634,18.3773 50.5,14.5 Z"/></g>
<g><path style="opacity:1" fill="#dddddd" d="M 55.5,46.5 C 58.3198,46.2475 60.9865,46.7475 63.5,48C 65.2012,51.9782 64.2012,55.1449 60.5,57.5C 59.377,55.711 58.0436,55.3776 56.5,56.5C 54.478,61.557 53.1446,61.557 52.5,56.5C 50.6693,55.9478 49.0026,55.9478 47.5,56.5C 46.3264,54.766 44.6597,53.766 42.5,53.5C 39.53,54.5292 36.53,54.5292 33.5,53.5C 33.3272,47.2553 34.3272,46.5886 36.5,51.5C 37.8027,50.2822 38.8027,50.6155 39.5,52.5C 43.0873,50.6724 45.9207,51.3391 48,54.5C 49.4177,51.999 50.4177,52.3323 51,55.5C 52.8571,51.6205 54.1904,51.9538 55,56.5C 55.0488,53.584 56.2155,52.584 58.5,53.5C 59.3857,52.675 59.719,51.675 59.5,50.5C 56.2043,50.5499 54.871,49.2166 55.5,46.5 Z"/></g>
<g><path style="opacity:1" fill="#6d6d6d" d="M 61.5,50.5 C 63.337,50.6395 63.6704,51.3061 62.5,52.5C 61.7025,52.0431 61.3691,51.3764 61.5,50.5 Z"/></g>
</svg>
