<?xml version="1.0" encoding="UTF-8" standalone="no"?>
<svg
   width="60"
   height="60"
   viewBox="0 0 60 60"
   id="Layer_1_1_"
   version="1.1"
   xml:space="preserve"
   sodipodi:docname="science.svg"
   inkscape:version="1.2.1 (9c6d41e410, 2022-07-14)"
   xmlns:inkscape="http://www.inkscape.org/namespaces/inkscape"
   xmlns:sodipodi="http://sodipodi.sourceforge.net/DTD/sodipodi-0.dtd"
   xmlns="http://www.w3.org/2000/svg"
   xmlns:svg="http://www.w3.org/2000/svg"><defs
     id="defs4944" /><sodipodi:namedview
     id="namedview4942"
     pagecolor="#ffffff"
     bordercolor="#000000"
     borderopacity="0.25"
     inkscape:showpageshadow="2"
     inkscape:pageopacity="0.0"
     inkscape:pagecheckerboard="0"
     inkscape:deskcolor="#d1d1d1"
     showgrid="true"
     inkscape:zoom="17.270833"
     inkscape:cx="21.568154"
     inkscape:cy="45.626056"
     inkscape:window-width="1920"
     inkscape:window-height="1009"
     inkscape:window-x="-8"
     inkscape:window-y="-8"
     inkscape:window-maximized="1"
     inkscape:current-layer="Layer_1_1_"><inkscape:grid
       type="xygrid"
       id="grid4946" /></sodipodi:namedview><rect
     height="1.054641"
     transform="matrix(0.71376096,-0.70038939,0.71376096,0.70038939,0,0)"
     width="6.7117352"
     x="-6.0582323"
     y="49.039188"
     id="rect4931"
     style="fill:#12abc2;fill-opacity:1;stroke-width:0.52732" /><rect
     height="6.7117352"
     transform="matrix(0.71376096,-0.70038939,0.71376096,0.70038939,0,0)"
     width="1.054641"
     x="-8.0769939"
     y="41.363255"
     id="rect4933"
     style="fill:#12abc2;fill-opacity:1;stroke-width:0.52732" /><path
     d="m 19.344592,53.06152 c 0,0.577159 0.476397,1.044631 1.064575,1.044631 h 19.162365 c 0.588178,0 1.064576,-0.467472 1.064576,-1.044631 V 48.360675 H 19.344592 Z m 10.645759,-3.656213 c 0.881999,0 1.596863,0.701471 1.596863,1.566949 0,0.865477 -0.714864,1.566947 -1.596863,1.566947 -0.882002,0 -1.596866,-0.70147 -1.596866,-1.566947 0,-0.865478 0.714864,-1.566949 1.596866,-1.566949 z"
     id="path4935"
     style="fill:#12abc2;fill-opacity:1;stroke-width:0.527279" /><path
     d="m 16.683152,13.312747 v 3.708967 c 0,0.23034 0.154363,0.434043 0.379522,0.500378 l 4.943356,1.455172 v 5.356873 h -1.596863 c -0.588178,0 -1.064575,0.467473 -1.064575,1.044632 v 2.089265 h 21.291516 v -2.089265 c 0,-0.577159 -0.476398,-1.044632 -1.064576,-1.044632 h -1.596863 v -5.356873 l 4.943355,-1.455172 c 0.225159,-0.06635 0.379522,-0.270038 0.379522,-0.500378 v -3.708967 c 1.214682,-0.241833 2.129152,-1.295345 2.129152,-2.558827 0,-1.4421141 -1.191792,-2.6115793 -2.661439,-2.6115793 -1.469647,0 -2.66144,1.1694652 -2.66144,2.6115793 0,1.263482 0.914471,2.316994 2.129152,2.558827 v 3.320363 l -4.943357,1.455172 c -0.225158,0.06635 -0.379521,0.270038 -0.379521,0.500378 v 5.745477 H 30.522638 V 11.223482 c 1.214681,-0.241832 2.129152,-1.295344 2.129152,-2.5588255 0,-1.4421149 -1.191793,-2.6115805 -2.661439,-2.6115805 -1.469649,0 -2.661442,1.1694656 -2.661442,2.6115805 0,1.2634815 0.914472,2.3169935 2.129153,2.5588255 V 24.334137 H 23.070607 V 18.58866 c 0,-0.23034 -0.154362,-0.434043 -0.37952,-0.500378 l -4.94336,-1.455172 v -3.320363 c 1.214681,-0.241833 2.129153,-1.295345 2.129153,-2.558827 0,-1.4421141 -1.191793,-2.6115793 -2.66144,-2.6115793 -1.469647,0 -2.661439,1.1694652 -2.661439,2.6115793 0,1.263482 0.914469,2.316994 2.129151,2.558827 z M 41.700684,10.75392 c 0,-0.577158 0.476397,-1.0446318 1.064575,-1.0446318 0.588178,0 1.064576,0.4674738 1.064576,1.0446318 0,0.577159 -0.476398,1.044632 -1.064576,1.044632 -0.588178,0 -1.064575,-0.467473 -1.064575,-1.044632 z M 28.925774,8.6646565 c 0,-0.5771595 0.476397,-1.0446323 1.064577,-1.0446323 0.588177,0 1.064574,0.4674728 1.064574,1.0446323 0,0.5771594 -0.476397,1.0446317 -1.064574,1.0446317 -0.58818,0 -1.064577,-0.4674723 -1.064577,-1.0446317 z M 28.393485,25.378769 h 3.193729 v 1.044632 H 28.393485 Z M 17.21544,9.7092882 c 0.588178,0 1.064575,0.4674738 1.064575,1.0446318 0,0.577159 -0.476397,1.044632 -1.064575,1.044632 -0.588177,0 -1.064577,-0.467473 -1.064577,-1.044632 0,-0.577158 0.4764,-1.0446318 1.064577,-1.0446318 z"
     id="path4937"
     style="fill:#12abc2;fill-opacity:1;stroke-width:0.527279" /><path
     d="m 8.6988344,25.901085 c 1.287604,0 2.3612276,-0.897339 2.6076776,-2.089264 h 2.182911 v 13.580217 c 0,0.288319 0.237934,0.522316 0.532289,0.522316 h 5.32288 v 3.656213 h -3.193729 c -0.294355,0 -0.532288,0.233997 -0.532288,0.522316 v 6.267792 h -3.247487 c -0.246449,-1.191924 -1.320074,-2.089264 -2.6076781,-2.089264 -1.4696472,0 -2.6614397,1.169466 -2.6614397,2.61158 0,1.442115 1.1917925,2.61158 2.6614397,2.61158 1.2876041,0 2.3612291,-0.897338 2.6076781,-2.089264 h 3.779775 c 0.294355,0 0.532289,-0.233998 0.532289,-0.522316 v -6.267792 h 2.66144 v 4.700844 h 21.291516 v -4.700844 h 2.661438 v 6.267792 c 0,0.288318 0.237934,0.522316 0.532289,0.522316 h 3.779776 c 0.246449,1.191926 1.320075,2.089264 2.607678,2.089264 1.469648,0 2.66144,-1.169465 2.66144,-2.61158 0,-1.442114 -1.191792,-2.61158 -2.66144,-2.61158 -1.287603,0 -2.361229,0.89734 -2.607678,2.089264 h -3.247487 v -6.267792 c 0,-0.288319 -0.237934,-0.522316 -0.532289,-0.522316 h -3.193727 v -3.656213 h 5.322878 c 0.294355,0 0.532289,-0.233997 0.532289,-0.522316 V 23.811821 h 2.182914 c 0.246447,1.191925 1.320072,2.089264 2.607675,2.089264 1.469649,0 2.661441,-1.169466 2.661441,-2.61158 0,-1.442114 -1.191792,-2.61158 -2.661441,-2.61158 -1.287603,0 -2.361228,0.897339 -2.607675,2.089264 h -2.715203 c -0.294355,0 -0.532288,0.233998 -0.532288,0.522316 v 13.580217 h -4.79059 V 28.512666 H 19.344592 v 8.357056 H 14.554001 V 23.289505 c 0,-0.288318 -0.237933,-0.522316 -0.532289,-0.522316 h -2.7152 c -0.24645,-1.191925 -1.3200736,-2.089264 -2.6076776,-2.089264 -1.4696474,0 -2.6614399,1.169466 -2.6614399,2.61158 0,1.442114 1.1917925,2.61158 2.6614399,2.61158 z m 1.0645755,24.026538 c -0.5881781,0 -1.0645755,-0.467471 -1.0645755,-1.044632 0,-0.577159 0.4763974,-1.044632 1.0645755,-1.044632 0.5881771,0 1.0645751,0.467473 1.0645751,1.044632 0,0.577161 -0.476398,1.044632 -1.0645751,1.044632 z M 50.217289,47.838359 c 0.588179,0 1.064575,0.467473 1.064575,1.044632 0,0.577161 -0.476396,1.044632 -1.064575,1.044632 -0.588178,0 -1.064576,-0.467471 -1.064576,-1.044632 0,-0.577159 0.476398,-1.044632 1.064576,-1.044632 z m 1.064575,-25.593485 c 0.58818,0 1.064577,0.467472 1.064577,1.044631 0,0.57716 -0.476397,1.044632 -1.064577,1.044632 -0.588177,0 -1.064575,-0.467472 -1.064575,-1.044632 0,-0.577159 0.476398,-1.044631 1.064575,-1.044631 z M 22.538319,32.691193 h 0.798964 c 3.166582,0 5.816311,2.170747 6.48859,5.077958 0.03992,0.173409 0.289564,0.173409 0.329486,0 0.671747,-2.907211 3.322008,-5.077958 6.488057,-5.077958 h 0.798965 v 0.783997 c 0,3.605548 -2.978686,6.528428 -6.653067,6.528428 h -0.266676 v 5.223162 h -1.064576 v -5.223162 h -0.266677 c -3.674382,0 -6.653066,-2.92288 -6.653066,-6.528428 z M 8.6988344,22.244874 c 0.5881782,0 1.0645755,0.467472 1.0645755,1.044631 0,0.57716 -0.4763973,1.044632 -1.0645755,1.044632 -0.5881791,0 -1.0645764,-0.467472 -1.0645764,-1.044632 0,-0.577159 0.4763973,-1.044631 1.0645764,-1.044631 z"
     id="path4939"
     style="fill:#12abc2;fill-opacity:1;stroke-width:0.527279" /></svg>
