<?xml version="1.0" encoding="UTF-8"?>
<svg width="22px" height="22px" viewBox="0 0 22 22" version="1.1" xmlns="http://www.w3.org/2000/svg" xmlns:xlink="http://www.w3.org/1999/xlink">
    <title>search</title>
    <defs>
        <rect id="path-1" x="0" y="0" width="22" height="22"></rect>
    </defs>
    <g id="Page-1" stroke="none" stroke-width="1" fill="none" fill-rule="evenodd">
        <g id="FAIRBET_markets" transform="translate(-1019.000000, -358.000000)">
            <g id="group-9" transform="translate(360.000000, 342.000000)">
                <g id="search" transform="translate(659.000000, 16.000000)">
                    <mask id="mask-2" fill="white">
                        <use xlink:href="#path-1"></use>
                    </mask>
                    <g id="search-(Background/Mask)"></g>
                    <path d="M18.1052632,10.0526316 C18.1052632,5.6052858 14.4999774,2 10.0526316,2 C5.6052858,2 2,5.6052858 2,10.0526316 C2,14.4999774 5.6052858,18.1052632 10.0526316,18.1052632 C11.9539602,18.1052632 13.7013821,17.4463136 15.0789825,16.3443302 L17.472588,18.7379383 C17.8220058,19.0873545 18.3885205,19.0873545 18.7379383,18.7379383 C19.0873545,18.3885205 19.0873545,17.8220058 18.7379383,17.472588 L16.3443302,15.0789825 C17.4463136,13.7013821 18.1052632,11.9539602 18.1052632,10.0526316 Z M10.0526316,16.3157895 C6.59358476,16.3157895 3.78947368,13.5116784 3.78947368,10.0526316 C3.78947368,6.59358476 6.59358476,3.78947368 10.0526316,3.78947368 C13.5116784,3.78947368 16.3157895,6.59358476 16.3157895,10.0526316 C16.3157895,13.5116784 13.5116784,16.3157895 10.0526316,16.3157895 Z" id="Union" fill="#FFFFFF" mask="url(#mask-2)"></path>
                </g>
            </g>
        </g>
    </g>
</svg>
