<?xml version="1.0" encoding="UTF-8"?>
<svg width="58px" height="58px" viewBox="0 0 58 58" version="1.1" xmlns="http://www.w3.org/2000/svg" xmlns:xlink="http://www.w3.org/1999/xlink">
    <title>group</title>
    <g id="Page-1" stroke="none" stroke-width="1" fill="none" fill-rule="evenodd">
        <g id="FAIRBET_home" transform="translate(-1376.000000, -1167.000000)" stroke="#4F8FEF" stroke-width="2">
            <g id="group-8" transform="translate(360.000000, 884.000000)">
                <g id="group-82" transform="translate(924.000000, 214.000000)">
                    <g id="group" transform="translate(93.000000, 70.000000)">
                        <path d="M27.2840485,25.7727273 C27.2840485,28.0322424 25.4521697,29.8641212 23.1926545,29.8641212 C20.9331394,29.8641212 19.1004121,28.0322424 19.1004121,25.7727273 C19.1004121,23.5132121 20.9331394,21.6813333 23.1926545,21.6813333 C25.4521697,21.6813333 27.2840485,23.5132121 27.2840485,25.7727273 Z" id="Stroke-1"></path>
                        <path d="M16.2545939,37.0988121 C16.1884121,36.7746909 16.1536242,36.4395394 16.1536242,36.095903 L16.1536242,35.0403879 C16.1536242,32.2921455 18.3817455,30.0631758 21.1308364,30.0631758 L24.5926545,30.0631758 C27.3417455,30.0631758 29.5698667,32.2921455 29.5698667,35.0403879 L29.5698667,36.095903 C29.5698667,36.3869333 29.5452606,36.6728727 29.496897,36.9503273" id="Stroke-3"></path>
                        <path d="M11.4462303,27.7422303 C11.4462303,21.4413818 16.5541091,16.3352 22.8532606,16.3352 C29.1541091,16.3352 34.2611394,21.4413818 34.2611394,27.7422303 C34.2611394,34.0422303 29.1541091,39.1492606 22.8532606,39.1492606 C16.5541091,39.1492606 11.4462303,34.0422303 11.4462303,27.7422303 Z" id="Stroke-5"></path>
                        <line x1="30.9141212" y1="35.8028364" x2="35.6164242" y2="40.5051394" id="Stroke-7"></line>
                        <line x1="30.9199758" y1="19.6758545" x2="35.6163394" y2="14.9794909" id="Stroke-9"></line>
                        <path d="M44.5545333,11.7030667 C44.5545333,14.5463394 42.2500485,16.8491273 39.4084727,16.8491273 C36.5652,16.8491273 34.2607152,14.5463394 34.2607152,11.7030667 C34.2607152,8.86064242 36.5652,6.55700606 39.4084727,6.55700606 C42.2500485,6.55700606 44.5545333,8.86064242 44.5545333,11.7030667 Z" id="Stroke-11"></path>
                        <path d="M44.5545333,44.2968485 C44.5545333,47.1392727 42.2500485,49.4429091 39.4084727,49.4429091 C36.5652,49.4429091 34.2607152,47.1392727 34.2607152,44.2968485 C34.2607152,41.4535758 36.5652,39.1499394 39.4084727,39.1499394 C42.2500485,39.1499394 44.5545333,41.4535758 44.5545333,44.2968485 Z" id="Stroke-13"></path>
                        <path d="M47.5151515,56 L8.48484848,56 C3.79951515,56 0,52.2004848 0,47.5151515 L0,8.48484848 C0,3.79866667 3.79951515,0 8.48484848,0 L47.5151515,0 C52.2013333,0 56,3.79866667 56,8.48484848 L56,47.5151515 C56,52.2004848 52.2013333,56 47.5151515,56 Z" id="Stroke-15" stroke-linecap="round"></path>
                    </g>
                </g>
            </g>
        </g>
    </g>
</svg>
