<?xml version="1.0" encoding="UTF-8" standalone="no"?>
<!-- Generator: Adobe Illustrator 19.0.0, SVG Export Plug-In . SVG Version: 6.00 Build 0)  -->

<svg
   version="1.1"
   id="Layer_1"
   x="0px"
   y="0px"
   viewBox="0 0 60.000001 60.000001"
   xml:space="preserve"
   sodipodi:docname="sports.svg"
   width="60"
   height="60"
   inkscape:version="1.2.1 (9c6d41e410, 2022-07-14)"
   xmlns:inkscape="http://www.inkscape.org/namespaces/inkscape"
   xmlns:sodipodi="http://sodipodi.sourceforge.net/DTD/sodipodi-0.dtd"
   xmlns="http://www.w3.org/2000/svg"
   xmlns:svg="http://www.w3.org/2000/svg"><defs
   id="defs3350" /><sodipodi:namedview
   id="namedview3348"
   pagecolor="#ffffff"
   bordercolor="#000000"
   borderopacity="0.25"
   inkscape:showpageshadow="2"
   inkscape:pageopacity="0.0"
   inkscape:pagecheckerboard="0"
   inkscape:deskcolor="#d1d1d1"
   showgrid="true"
   inkscape:zoom="19.80151"
   inkscape:cx="30.426972"
   inkscape:cy="33.532796"
   inkscape:window-width="1920"
   inkscape:window-height="1009"
   inkscape:window-x="-8"
   inkscape:window-y="-8"
   inkscape:window-maximized="1"
   inkscape:current-layer="Layer_1"><inkscape:grid
     type="xygrid"
     id="grid3449" /></sodipodi:namedview>
<ellipse
   style="fill:#4aab3e;stroke-width:0.101403;fill-opacity:1"
   cx="29.974085"
   cy="30.02459"
   id="circle3223"
   rx="24.014944"
   ry="24.014946" />
<path
   style="fill:#e0e0e0;stroke-width:0.101403"
   d="m 42.165858,19.282878 c -3.030932,-3.542106 -7.531396,-5.790411 -12.559561,-5.790411 -9.127072,0 -16.526847,7.399371 -16.526847,16.526849 0,5.173475 2.378405,9.789537 6.099891,12.820166 2.844453,2.316144 6.47265,3.706682 10.426956,3.706682 9.127783,0 16.526849,-7.399066 16.526849,-16.526848 0,-4.099922 -1.495592,-7.847977 -3.967288,-10.736438 z"
   id="path3225" />
<path
   style="fill:#ffffff;stroke-width:0.101403"
   d="m 37.224495,37.76457 c 5.189395,-5.189394 6.887082,-12.433314 4.941363,-18.481287 -3.030932,-3.542511 -7.531396,-5.790816 -12.559561,-5.790816 -9.127072,0 -16.526847,7.399371 -16.526847,16.526849 0,5.173475 2.378405,9.789537 6.099891,12.820166 5.957624,1.729123 12.980485,-0.0099 18.045154,-5.074912 z"
   id="path3227" />
<g
   id="g3309"
   transform="matrix(0.1014029,0,0,0.1014029,5.9591415,6.0096427)">
	<path
   style="fill:#3a3a39"
   d="m 144.299,154.845 c 0,0 21.832,-33.925 51.707,-41.984 0,0 26.424,-1.728 55.727,21.862 0,0 -10.916,54.62 -14.36,59.22 0,0 -63.775,14.951 -67.223,16.678 0.004,-0.001 -20.107,-28.178 -25.851,-55.776 z"
   id="path3229" />
	<path
   style="fill:#3a3a39"
   d="m 313.215,95.034 v 31.629 c 0,0 36.195,27.026 44.235,51.18 l 28.724,2.3 c -0.003,0 -16.655,-54.624 -72.959,-85.109 z"
   id="path3231" />
	<path
   style="fill:#3a3a39"
   d="m 285.632,245.697 58.607,-7.475 c 0,0 13.788,24.15 13.788,59.227 0,0 -25.852,35.085 -48.263,43.712 l -47.107,-28.185 z"
   id="path3233" />
	<path
   style="fill:#3a3a39"
   d="m 147.171,275.023 c 0,0 25.852,36.221 45.387,51.748 l -16.656,39.677 c 0,0 -35.051,-4.024 -52.279,-18.402 0,0 -20.115,-24.15 -20.115,-59.224 z"
   id="path3235" />
	<path
   style="fill:#3a3a39"
   d="m 69.033,232.471 h 9.772 c 0,0 2.868,-39.684 20.676,-64.41 v -25.878 c -10e-4,0.003 -25.853,30.488 -30.448,90.288 z"
   id="path3237" />
	<path
   style="fill:#3a3a39"
   d="m 223.698,399.547 0.456,-3.77 c 0,0 52.283,-6.903 70.098,-17.254 l 7.195,6.301 c 0,10e-4 -32.254,17.453 -77.749,14.723 z"
   id="path3239" />
	<path
   style="fill:#3a3a39"
   d="m 178.77,82.387 16.088,0.572 14.663,-7.584 c -0.004,0 -16.387,1.836 -30.751,7.012 z"
   id="path3241" />
	<path
   style="fill:#3a3a39"
   d="m 250.241,136.15 -0.344,-1.69 c 1.926,-0.389 47.347,-9.375 65.05,-8.859 l -0.052,1.728 c -17.528,-0.572 -64.19,8.724 -64.654,8.821 z"
   id="path3243" />
	<path
   style="fill:#3a3a39"
   d="m 344.654,239.587 -1.301,-1.129 c 11.159,-12.857 13.556,-60.667 13.578,-61.15 l 1.724,0.086 c -0.097,1.99 -2.446,48.899 -14.001,62.193 z"
   id="path3245" />
	<polygon
   style="fill:#3a3a39"
   points="357.204,296.601 384.11,298.504 383.332,300.449 357.088,298.324 "
   id="polygon3247" />
	
		<rect
   x="224.80099"
   y="219.19501"
   transform="matrix(-0.677,-0.736,0.736,-0.677,276.9406,561.6566)"
   style="fill:#3a3a39"
   width="73.834999"
   height="1.724"
   id="rect3249" />
	<path
   style="fill:#3a3a39"
   d="m 294.447,380.625 -1.283,-1.152 c 4.989,-5.55 16.297,-39.467 16.409,-39.812 l 1.634,0.55 c -0.46,1.414 -11.529,34.603 -16.76,40.414 z"
   id="path3251" />
	<path
   style="fill:#3a3a39"
   d="m 190.292,328.29 -0.236,-1.702 c 0.606,-0.09 61.172,-8.395 72.967,-14.577 l 0.808,1.526 c -12.064,6.32 -71.037,14.416 -73.539,14.753 z"
   id="path3253" />
	<path
   style="fill:#3a3a39"
   d="m 147.698,276.99 -1.66,-0.46 c 0.658,-2.367 16.147,-58.135 23.642,-67.376 l 1.343,1.084 c -7.271,8.965 -23.168,66.18 -23.325,66.752 z"
   id="path3255" />
	<path
   style="fill:#3a3a39"
   d="m 225.287,397.281 c -28.638,-7.46 -50.608,-31.068 -50.832,-31.308 l 1.268,-1.171 c 0.221,0.239 21.858,23.481 49.998,30.807 z"
   id="path3257" />
	<path
   style="fill:#3a3a39"
   d="M 103.605,289.888 C 76.078,262.899 76.833,231.539 76.848,231.233 l 1.724,0.056 c -0.015,0.314 -0.725,30.934 26.241,57.365 z"
   id="path3259" />
	<path
   style="fill:#3a3a39"
   d="m 98.478,169.631 -1.036,-1.376 c 0.206,-0.15 20.613,-15.306 49.893,-14.192 l -0.071,1.724 c -28.656,-1.186 -48.584,13.694 -48.786,13.844 z"
   id="path3261" />
	
		<rect
   x="179.478"
   y="96.795998"
   transform="matrix(-0.0402,-0.9992,0.9992,-0.0402,105.8382,296.9785)"
   style="fill:#3a3a39"
   width="32.153"
   height="1.72"
   id="rect3263" />
	
		<rect
   x="120.737"
   y="345.659"
   transform="matrix(-0.6679,-0.7442,0.7442,-0.6679,-57.5464,674.0128)"
   style="fill:#3a3a39"
   width="1.724"
   height="8.3730001"
   id="rect3265" />
	<path
   style="fill:#3a3a39"
   d="m 223.709,399.45 -0.011,0.097 c 45.496,2.726 77.749,-14.726 77.749,-14.726 l -0.037,-0.034 c -20.755,9.585 -43.85,14.966 -68.21,14.966 -3.186,0.004 -6.346,-0.12 -9.491,-0.303 z"
   id="path3267" />
	<path
   style="fill:#3a3a39"
   d="m 195.77,81.575 0.037,0.89 13.709,-7.09 c 0,0 -16.383,1.836 -30.751,7.012 l 15.336,0.546 -0.052,-1.286 z"
   id="path3269" />
	<path
   style="fill:#3a3a39"
   d="m 250.241,136.15 c 0.041,-0.011 0.486,-0.097 1.256,-0.247 0.153,-0.748 0.236,-1.178 0.236,-1.178 -0.221,-0.179 -0.434,-0.322 -0.654,-0.497 -0.613,0.12 -1.036,0.206 -1.182,0.236 z"
   id="path3271" />
	<path
   style="fill:#3a3a39"
   d="m 314.061,127.31 c 0.277,0.007 0.565,0.004 0.834,0.015 l 0.052,-1.728 c -0.55,-0.015 -1.129,-0.022 -1.731,-0.022 v 1.088 c -0.001,0 0.347,0.269 0.845,0.647 z"
   id="path3273" />
	<path
   style="fill:#3a3a39"
   d="m 358.629,177.936 c 0.011,-0.251 0.022,-0.452 0.026,-0.542 l -1.41,-0.071 c 0.06,0.172 0.15,0.344 0.206,0.516 z"
   id="path3275" />
	<path
   style="fill:#3a3a39"
   d="m 344.654,239.587 c 0.064,-0.075 0.12,-0.165 0.187,-0.236 -0.385,-0.74 -0.602,-1.129 -0.602,-1.129 l -0.778,0.097 c -0.037,0.045 -0.071,0.097 -0.105,0.138 z"
   id="path3277" />
	<path
   style="fill:#3a3a39"
   d="m 383.273,300.445 0.06,0.004 0.778,-1.948 -0.056,-0.004 c -0.266,0.65 -0.513,1.305 -0.782,1.948 z"
   id="path3279" />
	<path
   style="fill:#3a3a39"
   d="m 237.919,192.925 -0.576,-0.632 -1.268,1.17 0.591,0.647 c 0.46,-0.108 0.707,-0.168 0.707,-0.168 0.165,-0.221 0.352,-0.587 0.546,-1.017 z"
   id="path3281" />
	<polygon
   style="fill:#3a3a39"
   points="287.323,246.636 286.373,245.6 285.632,245.697 285.221,246.894 286.059,247.803 "
   id="polygon3283" />
	<path
   style="fill:#3a3a39"
   d="m 263.023,312.011 c -0.015,0.007 -0.034,0.015 -0.049,0.022 l -0.322,0.942 1.043,0.625 c 0.041,-0.019 0.09,-0.041 0.131,-0.064 z"
   id="path3285" />
	<path
   style="fill:#3a3a39"
   d="m 192.012,326.311 c -1.185,0.168 -1.892,0.266 -1.952,0.277 l 0.236,1.702 c 0.206,-0.03 0.823,-0.112 1.731,-0.239 l 0.538,-1.279 c -0.186,-0.143 -0.377,-0.315 -0.553,-0.461 z"
   id="path3287" />
	<path
   style="fill:#3a3a39"
   d="m 170.97,210.314 c 0.019,-0.022 0.037,-0.052 0.056,-0.075 l -1.343,-1.084 c -0.086,0.108 -0.183,0.258 -0.273,0.385 0.46,0.677 0.748,1.081 0.748,1.081 0.146,-0.079 0.445,-0.184 0.812,-0.307 z"
   id="path3289" />
	<path
   style="fill:#3a3a39"
   d="m 146.386,275.274 c -0.183,0.647 -0.307,1.092 -0.352,1.256 l 1.66,0.46 c 0.011,-0.037 0.101,-0.363 0.247,-0.89 -0.464,-0.639 -0.774,-1.073 -0.774,-1.073 z"
   id="path3291" />
	<path
   style="fill:#3a3a39"
   d="m 176.328,365.427 c -0.344,-0.352 -0.587,-0.606 -0.606,-0.628 l -1.268,1.171 c 0.015,0.015 0.123,0.131 0.314,0.333 0.684,0.09 1.133,0.146 1.133,0.146 z"
   id="path3293" />
	<path
   style="fill:#3a3a39"
   d="m 104.809,288.654 c -0.064,-0.064 -0.112,-0.123 -0.176,-0.187 l -1.129,0.359 c 0,0.337 0.034,0.658 0.037,0.995 0.022,0.022 0.041,0.049 0.064,0.071 z"
   id="path3295" />
	<path
   style="fill:#3a3a39"
   d="m 78.572,231.289 -1.724,-0.056 c -0.004,0.034 -0.007,0.501 0.011,1.238 h 1.724 c -0.018,-0.696 -0.015,-1.145 -0.011,-1.182 z"
   id="path3297" />
	<path
   style="fill:#3a3a39"
   d="m 144.52,155.764 c 0.912,0.007 1.81,-0.015 2.741,0.022 l 0.071,-1.724 c -0.853,-0.034 -1.668,-0.004 -2.502,-0.011 -0.314,0.464 -0.535,0.793 -0.535,0.793 0.068,0.307 0.157,0.614 0.225,0.92 z"
   id="path3299" />
	<path
   style="fill:#3a3a39"
   d="m 98.437,169.578 c 0.348,-0.509 0.688,-1.017 1.043,-1.515 v -1.185 c -1.29,0.823 -2.004,1.346 -2.042,1.376 z"
   id="path3301" />
	<path
   style="fill:#3a3a39"
   d="m 197.064,113.702 -0.034,-0.864 c -0.647,0.007 -1.025,0.026 -1.025,0.026 -0.236,0.064 -0.456,0.161 -0.688,0.228 l 0.026,0.688 z"
   id="path3303" />
	<polygon
   style="fill:#3a3a39"
   points="195.808,82.465 195.77,81.575 194.05,81.646 194.103,82.933 194.854,82.959 "
   id="polygon3305" />
	<path
   style="fill:#3a3a39"
   d="m 124.098,346.415 -1.032,0.927 c 0.325,0.423 0.553,0.703 0.553,0.703 0.213,0.179 0.456,0.337 0.677,0.509 l 0.954,-0.856 z"
   id="path3307" />
</g>
<g
   id="g3315"
   transform="matrix(0.1014029,0,0,0.1014029,5.9591415,6.0096427)">
	<path
   style="fill:#2a2b2a"
   d="m 386.032,180.132 c -6.742,-18.152 -16.615,-34.789 -28.974,-49.235 4.906,15.25 7.427,31.27 7.662,47.526 z"
   id="path3311" />
	<path
   style="fill:#2a2b2a"
   d="m 350.039,251.542 c -9.427,22.157 -23.305,43.207 -41.711,61.613 -5.856,5.856 -12,11.222 -18.339,16.174 l 19.199,11.488 c -1.918,5.677 -10.942,31.899 -15.575,38.058 -16.54,9.14 -59.545,15.519 -67.989,16.705 -20.351,-5.329 -37.242,-18.93 -45.114,-26.128 -0.815,0.019 -1.634,0.071 -2.449,0.079 7.21,6.78 24.636,21.424 45.963,27.37 l -0.31,2.55 c 3.145,0.183 6.305,0.307 9.491,0.307 24.363,0 47.455,-5.381 68.21,-14.966 l -6.092,-5.333 c 5.291,-7.771 14.704,-35.683 15.774,-38.899 20.059,-8.586 42.317,-37.026 46.255,-42.212 l 25.926,2.102 c 0.269,-0.643 0.516,-1.301 0.782,-1.948 l -26.05,-1.84 c -0.118,-19.04 -4.25,-34.787 -7.971,-45.12 z"
   id="path3313" />
</g>
<g
   id="g3317"
   transform="matrix(0.1014029,0,0,0.1014029,5.9591415,6.0096427)">
</g>
<g
   id="g3319"
   transform="matrix(0.1014029,0,0,0.1014029,5.9591415,6.0096427)">
</g>
<g
   id="g3321"
   transform="matrix(0.1014029,0,0,0.1014029,5.9591415,6.0096427)">
</g>
<g
   id="g3323"
   transform="matrix(0.1014029,0,0,0.1014029,5.9591415,6.0096427)">
</g>
<g
   id="g3325"
   transform="matrix(0.1014029,0,0,0.1014029,5.9591415,6.0096427)">
</g>
<g
   id="g3327"
   transform="matrix(0.1014029,0,0,0.1014029,5.9591415,6.0096427)">
</g>
<g
   id="g3329"
   transform="matrix(0.1014029,0,0,0.1014029,5.9591415,6.0096427)">
</g>
<g
   id="g3331"
   transform="matrix(0.1014029,0,0,0.1014029,5.9591415,6.0096427)">
</g>
<g
   id="g3333"
   transform="matrix(0.1014029,0,0,0.1014029,5.9591415,6.0096427)">
</g>
<g
   id="g3335"
   transform="matrix(0.1014029,0,0,0.1014029,5.9591415,6.0096427)">
</g>
<g
   id="g3337"
   transform="matrix(0.1014029,0,0,0.1014029,5.9591415,6.0096427)">
</g>
<g
   id="g3339"
   transform="matrix(0.1014029,0,0,0.1014029,5.9591415,6.0096427)">
</g>
<g
   id="g3341"
   transform="matrix(0.1014029,0,0,0.1014029,5.9591415,6.0096427)">
</g>
<g
   id="g3343"
   transform="matrix(0.1014029,0,0,0.1014029,5.9591415,6.0096427)">
</g>
<g
   id="g3345"
   transform="matrix(0.1014029,0,0,0.1014029,5.9591415,6.0096427)">
</g>
</svg>
