<?xml version="1.0" encoding="UTF-8"?>
<svg width="58px" height="58px" viewBox="0 0 58 58" version="1.1" xmlns="http://www.w3.org/2000/svg" xmlns:xlink="http://www.w3.org/1999/xlink">
    <title>group</title>
    <g id="Page-1" stroke="none" stroke-width="1" fill="none" fill-rule="evenodd" stroke-linecap="round">
        <g id="FAIRBET_home" transform="translate(-1423.000000, -1097.000000)" stroke="#4F8FEF" stroke-width="2">
            <g id="group-8" transform="translate(360.000000, 884.000000)">
                <g id="group-82" transform="translate(924.000000, 214.000000)">
                    <g id="groupcopy" transform="translate(140.000000, 0.000000)">
                        <path d="M47.2574667,31.5397091 C47.2574667,26.8221333 43.4333455,22.9988606 38.7166182,22.9988606 C37.9521333,22.9988606 37.2122545,23.1006788 36.5080121,23.2881939 C35.3668,19.0262545 31.4798909,15.8877091 26.8581939,15.8877091 C21.340497,15.8877091 16.8681333,20.3600727 16.8681333,25.8777697 C16.8681333,25.9023758 16.8698303,25.9278303 16.8698303,25.9524364 C16.5346788,25.9032242 16.1927394,25.8777697 15.8448606,25.8777697 C11.9214667,25.8777697 8.74219394,29.0570424 8.74219394,32.9787394 C8.74219394,36.9012848 11.9214667,40.0805576 15.8448606,40.0805576 L38.109103,40.0805576 L38.7989212,40.0805576 L38.7989212,40.0780121 C43.4783152,40.0347394 47.2574667,36.2284364 47.2574667,31.5397091 Z" id="Stroke-1"></path>
                        <polyline id="Stroke-3" points="21.7582061 35.2385939 24.9391758 35.2385939 29.8137212 40.1122909"></polyline>
                        <polyline id="Stroke-5" points="34.0720121 39.9268121 26.4789212 32.3337212 26.4789212 28.4340848"></polyline>
                        <polyline id="Stroke-7" stroke-linejoin="round" points="38.484303 39.8356848 32.1741212 33.525503 35.3287879 33.525503"></polyline>
                        <path d="M21.5535515,35.2385939 C21.5535515,36.1812606 20.7890667,36.9465939 19.8455515,36.9465939 C18.9028848,36.9465939 18.1384,36.1812606 18.1384,35.2385939 C18.1384,34.2950788 18.9028848,33.5305939 19.8455515,33.5305939 C20.7890667,33.5305939 21.5535515,34.2950788 21.5535515,35.2385939 Z" id="Stroke-9"></path>
                        <path d="M28.186497,26.2764727 C28.186497,27.2191394 27.4220121,27.9844727 26.478497,27.9844727 C25.5358303,27.9844727 24.7713455,27.2191394 24.7713455,26.2764727 C24.7713455,25.3329576 25.5358303,24.5684727 26.478497,24.5684727 C27.4220121,24.5684727 28.186497,25.3329576 28.186497,26.2764727 Z" id="Stroke-11"></path>
                        <path d="M39.2416606,33.2971758 C39.2416606,34.2398424 38.4771758,35.0051758 37.5336606,35.0051758 C36.5909939,35.0051758 35.8265091,34.2398424 35.8265091,33.2971758 C35.8265091,32.3536606 36.5909939,31.5891758 37.5336606,31.5891758 C38.4771758,31.5891758 39.2416606,32.3536606 39.2416606,33.2971758 Z" id="Stroke-13"></path>
                        <path d="M47.5151515,56 L8.48484848,56 C3.79951515,56 0,52.2004848 0,47.5151515 L0,8.48484848 C0,3.79866667 3.79951515,0 8.48484848,0 L47.5151515,0 C52.2013333,0 56,3.79866667 56,8.48484848 L56,47.5151515 C56,52.2004848 52.2013333,56 47.5151515,56 Z" id="Stroke-15"></path>
                    </g>
                </g>
            </g>
        </g>
    </g>
</svg>
