<?xml version="1.0" encoding="UTF-8"?>
<svg width="20px" height="20px" viewBox="0 0 20 20" version="1.1" xmlns="http://www.w3.org/2000/svg" xmlns:xlink="http://www.w3.org/1999/xlink">
    <title>group 25</title>
    <g id="Page-1" stroke="none" stroke-width="1" fill="none" fill-rule="evenodd">
        <g id="FAIRBET_WARNING_TICK" transform="translate(-1389.000000, -1048.000000)">
            <g id="group-17" transform="translate(360.000000, 384.000000)">
                <g id="group-23-4" transform="translate(0.000000, 598.000000)">
                    <g id="Group-68-6" transform="translate(24.000000, 24.000000)">
                        <g id="group-31" transform="translate(944.000000, 4.000000)">
                            <g id="group-26" transform="translate(0.000000, 38.000000)">
                                <g id="group-25" transform="translate(61.000000, 0.000000)">
                                    <path d="M0,0 L20,0 L20,20 L0,20 L0,0 Z" id="warning-(Background/Mask)"></path>
                                    <path d="M12.1739802,3.95523161 L17.8498858,13.6362438 C18.8005243,15.2576852 17.5958763,17.2727273 15.6758921,17.2727273 L4.32410774,17.2727273 C2.40412632,17.2727273 1.19947748,15.2576914 2.15011192,13.63625 L7.82599079,3.95523412 C8.78591169,2.31795291 11.2140549,2.31795233 12.1739802,3.95523161 Z M9.99995386,13.2190271 C9.53930411,13.2190271 9.16587438,13.5820074 9.16587438,14.0297671 C9.16587438,14.4775268 9.53930411,14.8405072 9.99995386,14.8405072 C10.4606036,14.8405072 10.8340334,14.4775268 10.8340334,14.0297671 C10.8340334,13.5820074 10.4606036,13.2190271 9.99995386,13.2190271 Z M9.99995386,5.92236828 C9.53930411,5.92236828 9.16587438,6.28534898 9.16587438,6.73310832 L9.16587438,10.7868008 C9.16587438,11.2345605 9.53930411,11.5975408 9.99995386,11.5975408 C10.4606036,11.5975408 10.8340334,11.2345605 10.8340334,10.7868008 L10.8340334,6.73310832 C10.8340334,6.28534898 10.4606036,5.92236828 9.99995386,5.92236828 Z" id="combine" fill="#4F8FEF"></path>
                                </g>
                            </g>
                        </g>
                    </g>
                </g>
            </g>
        </g>
    </g>
</svg>
