<?xml version="1.0" encoding="UTF-8" standalone="no"?>
<!-- Generator: Adobe Illustrator 20.0.0, SVG Export Plug-In . SVG Version: 6.00 Build 0)  -->

<svg
   version="1.1"
   id="Layer_1_1_"
   x="0px"
   y="0px"
   viewBox="0 0 60 60"
   xml:space="preserve"
   sodipodi:docname="entertainment.svg"
   width="60"
   height="60"
   inkscape:version="1.2.1 (9c6d41e410, 2022-07-14)"
   xmlns:inkscape="http://www.inkscape.org/namespaces/inkscape"
   xmlns:sodipodi="http://sodipodi.sourceforge.net/DTD/sodipodi-0.dtd"
   xmlns="http://www.w3.org/2000/svg"
   xmlns:svg="http://www.w3.org/2000/svg"><defs
   id="defs120" /><sodipodi:namedview
   id="namedview118"
   pagecolor="#ffffff"
   bordercolor="#000000"
   borderopacity="0.25"
   inkscape:showpageshadow="2"
   inkscape:pageopacity="0.0"
   inkscape:pagecheckerboard="0"
   inkscape:deskcolor="#d1d1d1"
   showgrid="true"
   inkscape:zoom="12.953125"
   inkscape:cx="32.077201"
   inkscape:cy="38.214717"
   inkscape:window-width="1920"
   inkscape:window-height="1009"
   inkscape:window-x="-8"
   inkscape:window-y="-8"
   inkscape:window-maximized="1"
   inkscape:current-layer="Layer_1_1_"><inkscape:grid
     type="xygrid"
     id="grid1632" /></sodipodi:namedview>
<g
   id="Guide"
   transform="matrix(0.74909301,0,0,0.75617172,6.0217129,5.4916205)"
   style="fill:#fe7607;fill-opacity:1">
	<g
   id="g2"
   style="fill:#fe7607;fill-opacity:1">
	</g>
	<g
   id="g4"
   style="fill:#fe7607;fill-opacity:1">
	</g>
	<g
   id="g6"
   style="fill:#fe7607;fill-opacity:1">
	</g>
	<g
   id="g8"
   style="fill:#fe7607;fill-opacity:1">
	</g>
	<g
   id="g10"
   style="fill:#fe7607;fill-opacity:1">
	</g>
	<g
   id="g12"
   style="fill:#fe7607;fill-opacity:1">
	</g>
	<g
   id="g14"
   style="fill:#fe7607;fill-opacity:1">
	</g>
	<g
   id="g16"
   style="fill:#fe7607;fill-opacity:1">
	</g>
	<g
   id="g18"
   style="fill:#fe7607;fill-opacity:1">
	</g>
	<g
   id="g20"
   style="fill:#fe7607;fill-opacity:1">
	</g>
	<g
   id="g22"
   style="fill:#fe7607;fill-opacity:1">
	</g>
	<g
   id="g24"
   style="fill:#fe7607;fill-opacity:1">
	</g>
	<g
   id="g26"
   style="fill:#fe7607;fill-opacity:1">
	</g>
	<g
   id="g28"
   style="fill:#fe7607;fill-opacity:1">
	</g>
	<g
   id="g30"
   style="fill:#fe7607;fill-opacity:1">
	</g>
	<g
   id="g32"
   style="fill:#fe7607;fill-opacity:1">
	</g>
	<g
   id="g34"
   style="fill:#fe7607;fill-opacity:1">
	</g>
	<g
   id="g36"
   style="fill:#fe7607;fill-opacity:1">
	</g>
	<g
   id="g38"
   style="fill:#fe7607;fill-opacity:1">
	</g>
	<g
   id="g40"
   style="fill:#fe7607;fill-opacity:1">
	</g>
	<g
   id="g42"
   style="fill:#fe7607;fill-opacity:1">
	</g>
	<g
   id="g44"
   style="fill:#fe7607;fill-opacity:1">
	</g>
	<g
   id="g46"
   style="fill:#fe7607;fill-opacity:1">
	</g>
	<g
   id="g48"
   style="fill:#fe7607;fill-opacity:1">
	</g>
	<g
   id="g50"
   style="fill:#fe7607;fill-opacity:1">
	</g>
	<g
   id="g52"
   style="fill:#fe7607;fill-opacity:1">
	</g>
	<g
   id="g54"
   style="fill:#fe7607;fill-opacity:1">
	</g>
	<g
   id="g56"
   style="fill:#fe7607;fill-opacity:1">
	</g>
	<g
   id="g58"
   style="fill:#fe7607;fill-opacity:1">
	</g>
	<g
   id="g60"
   style="fill:#fe7607;fill-opacity:1">
	</g>
	<g
   id="g62"
   style="fill:#fe7607;fill-opacity:1">
	</g>
	<g
   id="g64"
   style="fill:#fe7607;fill-opacity:1">
	</g>
	<g
   id="g66"
   style="fill:#fe7607;fill-opacity:1">
	</g>
	<g
   id="g68"
   style="fill:#fe7607;fill-opacity:1">
	</g>
	<g
   id="g70"
   style="fill:#fe7607;fill-opacity:1">
	</g>
	<g
   id="g72"
   style="fill:#fe7607;fill-opacity:1">
	</g>
</g>
<path
   d="m 6.770806,53.886611 h 44.945581 c 0.413499,0 0.749093,-0.33801 0.749093,-0.756172 V 25.152085 c 0,-0.225339 -0.101872,-0.421943 -0.256939,-0.560323 l 1.737896,-8.152288 c 0.04195,-0.195848 0.0045,-0.400015 -0.103378,-0.569397 -0.107865,-0.168626 -0.277162,-0.286589 -0.471177,-0.328935 l -9.189124,-1.996293 -0.0367,-0.0741 -0.09213,0.04613 -31.348793,-6.8100821 -0.02023,-0.040833 -0.05094,0.02571 L 9.5454464,6.0201845 C 9.1409361,5.9302001 8.7424187,6.1918355 8.6555239,6.6009244 L 6.7640641,15.471575 c -0.041949,0.195848 -0.0045,0.400015 0.103375,0.569397 0.1078692,0.168626 0.2771644,0.286589 0.4711794,0.328934 L 44.282388,24.395914 H 6.770806 c -0.4134994,0 -0.7490931,0.338008 -0.7490931,0.756171 v 27.978354 c 0,0.418162 0.3355937,0.756172 0.7490931,0.756172 z m 45.063189,-34.724918 -1.335633,-2.697265 1.826289,0.396991 z m -3.21286,-3.104841 2.70872,5.46939 -0.581296,2.727512 -1.413539,-0.307006 -4.293052,-8.667241 z m -3.902775,6.886456 -4.293052,-8.667241 2.739433,0.595107 4.293052,8.667241 z m -22.34095,-12.587991 2.739433,0.595108 4.293052,8.667239 -2.739433,-0.595107 z m 2.415824,8.258907 -2.31994,-0.504365 -4.293052,-8.6664851 2.319941,0.5043665 z m 2.200836,-7.255468 2.739433,0.595108 4.293052,8.667241 -2.739432,-0.595108 z m 4.617409,1.002685 2.319942,0.504366 4.293052,8.66724 -2.319941,-0.504366 z m 4.197168,0.911942 2.739434,0.595108 4.293052,8.66724 L 40.1017,21.940624 Z M 16.303015,9.0357974 20.596066,17.703037 17.856634,17.107931 13.563582,8.4406902 Z M 11.686355,8.0331136 15.979406,16.700354 13.239973,16.105246 9.6900214,8.937495 9.9626912,7.6580525 Z M 9.1858818,11.302044 11.362746,15.696915 8.3865995,15.050387 Z M 7.5198989,25.908257 H 50.967294 V 52.374266 H 7.5198989 Z"
   id="path75"
   style="stroke-width:0.752624;fill:#fe7607;fill-opacity:1" />
<path
   d="m 29.243596,29.689116 c -4.956748,0 -8.989116,4.070472 -8.989116,9.07406 0,5.003589 4.032368,9.074061 8.989116,9.074061 4.956749,0 8.989117,-4.070472 8.989117,-9.074061 0,-5.003588 -4.032368,-9.07406 -8.989117,-9.07406 z m 0,16.635778 c -4.130498,0 -7.49093,-3.392187 -7.49093,-7.561718 0,-4.169531 3.360432,-7.561717 7.49093,-7.561717 4.130499,0 7.490931,3.392186 7.490931,7.561717 0,4.169531 -3.360432,7.561718 -7.490931,7.561718 z"
   id="path77"
   style="stroke-width:0.752624;fill:#fe7607;fill-opacity:1" />
<path
   d="m 34.072998,38.086402 -7.490929,-3.780859 c -0.232219,-0.11721 -0.507885,-0.105113 -0.728868,0.03327 -0.220233,0.13838 -0.35507,0.381111 -0.35507,0.643502 v 7.561717 c 0,0.262392 0.134837,0.505123 0.35507,0.643503 0.120604,0.07487 0.256939,0.112666 0.394023,0.112666 0.114611,0 0.229222,-0.02647 0.334845,-0.0794 l 7.490929,-3.780857 c 0.253943,-0.128549 0.414249,-0.390186 0.414249,-0.676774 0,-0.286589 -0.160306,-0.548225 -0.414249,-0.676775 z m -7.07668,3.234147 v -5.114745 l 5.066864,2.557372 z"
   id="path79"
   style="stroke-width:0.752624;fill:#fe7607;fill-opacity:1" />
<rect
   x="9.7671785"
   y="21.371227"
   width="1.498186"
   height="1.5123435"
   id="rect81"
   style="stroke-width:0.752624;fill:#fe7607;fill-opacity:1" />
<rect
   x="9.7671785"
   y="18.346539"
   width="1.498186"
   height="1.5123435"
   id="rect83"
   style="stroke-width:0.752624;fill:#fe7607;fill-opacity:1" />
<rect
   x="12.76355"
   y="21.371227"
   width="1.498186"
   height="1.5123435"
   id="rect85"
   style="stroke-width:0.752624;fill:#fe7607;fill-opacity:1" />
<rect
   x="15.759922"
   y="21.371227"
   width="1.498186"
   height="1.5123435"
   id="rect87"
   style="stroke-width:0.752624;fill:#fe7607;fill-opacity:1" />
<rect
   x="19.505386"
   y="21.371227"
   width="1.498186"
   height="1.5123435"
   id="rect89"
   style="stroke-width:0.752624;fill:#fe7607;fill-opacity:1" />
<rect
   x="23.250851"
   y="21.371227"
   width="1.498186"
   height="1.5123435"
   id="rect91"
   style="stroke-width:0.752624;fill:#fe7607;fill-opacity:1" />
<rect
   x="50.218201"
   y="6.2477922"
   width="1.498186"
   height="1.5123435"
   id="rect93"
   style="stroke-width:0.752624;fill:#fe7607;fill-opacity:1" />
<rect
   x="50.218201"
   y="9.2724781"
   width="1.498186"
   height="1.5123435"
   id="rect95"
   style="stroke-width:0.752624;fill:#fe7607;fill-opacity:1" />
<rect
   x="50.218201"
   y="12.297166"
   width="1.498186"
   height="1.5123435"
   id="rect97"
   style="stroke-width:0.752624;fill:#fe7607;fill-opacity:1" />
<rect
   x="47.221828"
   y="6.2477922"
   width="1.498186"
   height="1.5123435"
   id="rect99"
   style="stroke-width:0.752624;fill:#fe7607;fill-opacity:1" />
<rect
   x="44.225456"
   y="6.2477922"
   width="1.498186"
   height="1.5123435"
   id="rect101"
   style="stroke-width:0.752624;fill:#fe7607;fill-opacity:1" />
<rect
   x="41.229084"
   y="6.2477922"
   width="1.498186"
   height="1.5123435"
   id="rect103"
   style="stroke-width:0.752624;fill:#fe7607;fill-opacity:1" />
<rect
   x="38.232712"
   y="6.2477922"
   width="1.498186"
   height="1.5123435"
   id="rect105"
   style="stroke-width:0.752624;fill:#fe7607;fill-opacity:1" />
<rect
   x="35.23634"
   y="6.2477922"
   width="1.498186"
   height="1.5123435"
   id="rect107"
   style="stroke-width:0.752624;fill:#fe7607;fill-opacity:1" />
<rect
   x="32.239971"
   y="6.2477922"
   width="1.498186"
   height="1.5123435"
   id="rect109"
   style="stroke-width:0.752624;fill:#fe7607;fill-opacity:1" />
<rect
   x="29.243597"
   y="6.2477922"
   width="1.498186"
   height="1.5123435"
   id="rect111"
   style="stroke-width:0.752624;fill:#fe7607;fill-opacity:1" />
<rect
   x="26.247225"
   y="6.2477922"
   width="1.498186"
   height="1.5123435"
   id="rect113"
   style="stroke-width:0.752624;fill:#fe7607;fill-opacity:1" />
<rect
   x="23.250851"
   y="6.2477922"
   width="1.498186"
   height="1.5123435"
   id="rect115"
   style="stroke-width:0.752624;fill:#fe7607;fill-opacity:1" />
</svg>
