<?xml version="1.0" encoding="UTF-8" standalone="no"?>
<svg
   width="60"
   height="60"
   viewBox="0 0 60 60"
   id="Layer_1"
   version="1.1"
   xml:space="preserve"
   sodipodi:docname="finance.svg"
   inkscape:version="1.2.1 (9c6d41e410, 2022-07-14)"
   xmlns:inkscape="http://www.inkscape.org/namespaces/inkscape"
   xmlns:sodipodi="http://sodipodi.sourceforge.net/DTD/sodipodi-0.dtd"
   xmlns="http://www.w3.org/2000/svg"
   xmlns:svg="http://www.w3.org/2000/svg"><defs
     id="defs6560" /><sodipodi:namedview
     id="namedview6558"
     pagecolor="#ffffff"
     bordercolor="#000000"
     borderopacity="0.25"
     inkscape:showpageshadow="2"
     inkscape:pageopacity="0.0"
     inkscape:pagecheckerboard="0"
     inkscape:deskcolor="#d1d1d1"
     showgrid="true"
     inkscape:zoom="18.318485"
     inkscape:cx="29.451125"
     inkscape:cy="25.493375"
     inkscape:window-width="1920"
     inkscape:window-height="1009"
     inkscape:window-x="-8"
     inkscape:window-y="-8"
     inkscape:window-maximized="1"
     inkscape:current-layer="Layer_1"><inkscape:grid
       type="xygrid"
       id="grid6562" /></sodipodi:namedview><style
     type="text/css"
     id="style6543">
	.st0{fill:#333333;}
</style><g
     id="g6555"
     transform="matrix(0.10589426,0,0,0.10910802,2.7814487,2.5105557)"
     style="fill:#fbbc10;fill-opacity:1"><path
       class="st0"
       d="M 86.5,152 C 70.8,152 58,164.8 58,180.5 58,196.2 70.8,209 86.5,209 102.2,209 115,196.2 115,180.5 115,164.8 102.2,152 86.5,152 Z m 0,42.9 c -8,0 -14.5,-6.5 -14.5,-14.5 0,-8 6.5,-14.4 14.5,-14.4 8,0 14.5,6.5 14.5,14.5 0,8 -6.5,14.4 -14.5,14.4 z"
       id="path6545"
       style="fill:#fbbc10;fill-opacity:1" /><path
       class="st0"
       d="m 240.5,152 c -15.7,0 -28.5,12.8 -28.5,28.5 0,15.7 12.8,28.5 28.5,28.5 15.7,0 28.5,-12.8 28.5,-28.5 0,-15.7 -12.8,-28.5 -28.5,-28.5 z m 0,42.9 c -8,0 -14.5,-6.5 -14.5,-14.5 0,-8 6.5,-14.5 14.5,-14.5 8,0 14.5,6.5 14.5,14.5 0,8 -6.5,14.5 -14.5,14.5 z"
       id="path6547"
       style="fill:#fbbc10;fill-opacity:1" /><path
       class="st0"
       d="m 394.5,79.6 c -15.7,0 -28.5,12.8 -28.5,28.5 0,15.7 12.8,28.5 28.5,28.5 15.7,0 28.5,-12.8 28.5,-28.5 0,-15.8 -12.8,-28.5 -28.5,-28.5 z m 0,42.9 c -8,0 -14.5,-6.5 -14.5,-14.5 0,-8 6.5,-14.5 14.5,-14.5 8,0 14.5,6.5 14.5,14.5 0,8 -6.5,14.5 -14.5,14.5 z"
       id="path6549"
       style="fill:#fbbc10;fill-opacity:1" /><path
       class="st0"
       d="m 483.3,164.5 -36.1,-32.2 c 3.5,-7.6 5.3,-15.9 5.3,-24.3 0,-32 -26,-58 -58,-58 -32,0 -58,26 -58,58 0,10.5 2.8,20.3 7.7,28.7 l -47,31.5 c -5.6,-26.1 -28.9,-45.8 -56.7,-45.8 -29.6,0 -54.1,22.3 -57.6,51 H 144 c -3.5,-28.7 -28,-51 -57.6,-51 -32,0 -58,26 -58,58 0,32 26,58 58,58 29.6,0 54.1,-22.3 57.6,-51 h 38.9 c 3.5,28.7 28,51 57.6,51 30.7,0 55.9,-24 57.9,-54.2 l 54.2,-36.3 c 10.6,11.1 25.5,18 42,18 8.4,0 16.8,-1.8 24.3,-5.3 l 32.2,36.1 c 4.2,4.7 10.2,7.5 16.4,7.7 0.2,0 0.4,0 0.7,0 6,0 11.9,-2.4 16.2,-6.7 4.4,-4.4 6.9,-10.6 6.7,-16.8 -0.3,-6.2 -3.1,-12.2 -7.8,-16.4 z m -396.8,60 c -24.3,0 -44,-19.7 -44,-44 0,-24.3 19.7,-44 44,-44 24.3,0 44,19.7 44,44 0,24.3 -19.7,44 -44,44 z m 154,0 c -24.3,0 -44,-19.7 -44,-44 0,-24.3 19.7,-44 44,-44 24.3,0 44,19.7 44,44 0,0 0,0 0,0 v 0 c 0,24.2 -19.7,44 -44,44 z m 233.9,-36.6 c 0,0 0,0 0,0 -1.8,1.8 -4.1,2.7 -6.5,2.6 -2.5,-0.1 -4.7,-1.1 -6.4,-3 l -35.8,-40.2 c -1.4,-1.5 -3.3,-2.3 -5.2,-2.3 -1.2,0 -2.5,0.3 -3.6,1 -6.7,4 -14.5,6.1 -22.4,6.1 -24.3,0 -44,-19.7 -44,-44 0,-24.3 19.7,-44 44,-44 24.3,0 44,19.7 44,44 0,7.9 -2.1,15.6 -6.1,22.4 -1.7,2.9 -1.1,6.6 1.4,8.8 L 474,175 c 1.8,1.6 2.9,3.9 3,6.4 0.1,2.4 -0.9,4.7 -2.6,6.5 z"
       id="path6551"
       style="fill:#fbbc10;fill-opacity:1" /><path
       class="st0"
       d="m 52,462 h 69 85 69 85 69 24 c 3.9,0 7,-3.1 7,-7 0,-3.9 -3.1,-7 -7,-7 H 436 V 203 c 0,-3.9 -3.1,-7 -7,-7 h -69 c -3.9,0 -7,3.1 -7,7 v 245 h -23.4 v -75 c 0,-3.9 -3.1,-7 -7,-7 -3.9,0 -7,3.1 -7,7 v 75 H 282 V 280 c 0,-3.9 -3.1,-7 -7,-7 h -69 c -3.9,0 -7,3.1 -7,7 v 168 h -28.5 v -75 c 0,-3.9 -3.1,-7 -7,-7 -3.9,0 -7,3.1 -7,7 v 75 H 128 V 280 c 0,-3.9 -3.1,-7 -7,-7 H 52 c -3.9,0 -7,3.1 -7,7 V 448 H 28 c -3.9,0 -7,3.1 -7,7 0,3.9 3.1,7 7,7 z M 367,210 h 55 v 238 h -55 z m -154,77 h 55 v 161 h -55 z m -154,0 h 55 V 448 H 59 Z"
       id="path6553"
       style="fill:#fbbc10;fill-opacity:1" /></g></svg>
