<?xml version="1.0" encoding="UTF-8"?>
<svg width="58px" height="58px" viewBox="0 0 58 58" version="1.1" xmlns="http://www.w3.org/2000/svg" xmlns:xlink="http://www.w3.org/1999/xlink">
    <title>other</title>
    <g id="Page-1" stroke="none" stroke-width="1" fill="none" fill-rule="evenodd">
        <g id="FAIRBET_OTHER" transform="translate(-1199.000000, -757.000000)" stroke="#4F8FEF" stroke-width="2">
            <g id="group-10" transform="translate(360.000000, 418.000000)">
                <g id="Group-40-6" transform="translate(816.000000, 316.000000)">
                    <g id="group-24" transform="translate(23.000000, 23.000000)">
                        <g id="group" transform="translate(1.000000, 1.000000)">
                            <path d="M23.2736848,30.3748242 L14.2873818,30.3748242 C13.3311394,30.3748242 12.5556242,29.5993091 12.5556242,28.6430667 L12.5556242,14.2816121 C12.5556242,13.3253697 13.3311394,12.550703 14.2873818,12.550703 L23.2736848,12.550703 C24.2299273,12.550703 25.0045939,13.3253697 25.0045939,14.2816121 L25.0045939,28.6430667 C25.0045939,29.5993091 24.2299273,30.3748242 23.2736848,30.3748242 Z" id="Stroke-1"></path>
                            <path d="M41.713297,43.4492121 L32.7269939,43.4492121 C31.7707515,43.4492121 30.9952364,42.673697 30.9952364,41.7174545 L30.9952364,27.356 C30.9952364,26.3997576 31.7707515,25.6250909 32.7269939,25.6250909 L41.713297,25.6250909 C42.6695394,25.6250909 43.4442061,26.3997576 43.4442061,27.356 L43.4442061,41.7174545 C43.4442061,42.673697 42.6695394,43.4492121 41.713297,43.4492121 Z" id="Stroke-3"></path>
                            <path d="M42.2204364,21.4624242 L32.2201939,21.4624242 C31.5439515,21.4624242 30.9958303,20.914303 30.9958303,20.2389091 L30.9958303,13.774303 C30.9958303,13.0989091 31.5439515,12.5507879 32.2201939,12.5507879 L42.2204364,12.5507879 C42.8966788,12.5507879 43.4439515,13.0989091 43.4439515,13.774303 L43.4439515,20.2389091 C43.4439515,20.914303 42.8966788,21.4624242 42.2204364,21.4624242 Z" id="Stroke-5"></path>
                            <path d="M23.7808242,43.4492121 L13.7805818,43.4492121 C13.1034909,43.4492121 12.5562182,42.9010909 12.5562182,42.2248485 L12.5562182,35.7610909 C12.5562182,35.085697 13.1034909,34.5367273 13.7805818,34.5367273 L23.7808242,34.5367273 C24.4570667,34.5367273 25.0043394,35.085697 25.0043394,35.7610909 L25.0043394,42.2248485 C25.0043394,42.9010909 24.4570667,43.4492121 23.7808242,43.4492121 Z" id="Stroke-7"></path>
                            <path d="M47.5151515,56 L8.48484848,56 C3.79951515,56 0,52.2004848 0,47.5151515 L0,8.48484848 C0,3.79866667 3.79951515,0 8.48484848,0 L47.5151515,0 C52.2013333,0 56,3.79866667 56,8.48484848 L56,47.5151515 C56,52.2004848 52.2013333,56 47.5151515,56 Z" id="Stroke-9"></path>
                        </g>
                    </g>
                </g>
            </g>
        </g>
    </g>
</svg>