<?xml version="1.0" encoding="UTF-8"?>
<svg width="32px" height="32px" viewBox="0 0 32 32" version="1.1" xmlns="http://www.w3.org/2000/svg" xmlns:xlink="http://www.w3.org/1999/xlink">
    <title>share</title>
    <defs>
        <rect id="path-1" x="0" y="0" width="32" height="32"></rect>
    </defs>
    <g id="Page-1" stroke="none" stroke-width="1" fill="none" fill-rule="evenodd">
        <g id="FAIRBET_SHARE_DARK" transform="translate(-1512.000000, -152.000000)">
            <g id="share" transform="translate(1512.000000, 152.000000)">
                <mask id="mask-2" fill="white">
                    <use xlink:href="#path-1"></use>
                </mask>
                <g id="share-(Background/Mask)"></g>
                <path d="M22.6666667,12 C21.698541,12 20.8107452,11.6560624 20.1188037,11.0837097 L13.2538611,15.2026749 C13.3059788,15.4603335 13.3333333,15.7269719 13.3333333,16 C13.3333333,16.2730281 13.3059788,16.5396665 13.2538611,16.7973251 L20.1188024,20.9162903 C20.810744,20.3439369 21.6985397,20 22.6666667,20 C24.8758062,20 26.6666667,21.7908605 26.6666667,24 C26.6666667,26.2091395 24.8758062,28 22.6666667,28 C20.4575272,28 18.6666667,26.2091395 18.6666667,24 C18.6666667,23.7269274 18.6940308,23.460247 18.746165,23.202549 L11.8812955,19.0836283 C11.1893393,19.65603 10.3015057,20 9.33333333,20 C7.12419415,20 5.33333333,18.2091395 5.33333333,16 C5.33333333,13.7908605 7.12419415,12 9.33333333,12 C10.301506,12 11.1893406,12.3439706 11.8812968,12.9163729 L18.746165,8.79745197 C18.6940308,8.53975391 18.6666667,8.27307256 18.6666667,8 C18.6666667,5.79086081 20.4575272,4 22.6666667,4 C24.8758062,4 26.6666667,5.79086081 26.6666667,8 C26.6666667,10.2091395 24.8758062,12 22.6666667,12 Z" id="Union" fill="#4F8FEF" fill-rule="nonzero" mask="url(#mask-2)"></path>
            </g>
        </g>
    </g>
</svg>
