<svg xmlns="http://www.w3.org/2000/svg" width="553" height="551" fill="none"><path stroke="url(#a)" stroke-width=".97" d="M346.065 479.863c0-25.222-.97-60.379 3.153-102.331m-3.153 102.331c5.739 9.295 16.15 26.334 24.492 29.826m-24.492-29.826c-11.639-1.94-27.351-10.45-33.751-14.463m33.751 14.463c-2.855 10.982-19.244 35.236-28.252 46.073m31.405-148.404c-6.063-45.349-2.668-77.601-4.365-93.603m4.365 93.603c-3.492 17.073-25.381 67.413-35.889 90.448m35.889-90.448c4.159-13.578 30.832-64.181 43.649-87.785m-43.649 87.785c53.268-33.061 163.956-99.496 180.416-101.85m-180.416 101.85c52.573 32.479 163.326 57.24 185.751-103.548M349.218 377.532c-68.707-36.353-185.945-158.055-105.243-354.045M344.853 283.93c-3.104-13.968-7.922-52.541-9.942-70.081m9.942 70.081-48.257 56.256m48.257-56.256c24.066-22.553 80.214-67.513 112.275-66.931m-122.217-3.15c13.741 19.48 44.57 61.931 57.956 75.899m-57.956-75.899c-32.737-9.943-98.211-6.792-123.023.901-24.811 7.693-46.158 12.757-54.241 20.921m177.264-21.822c-4.85-23.86-2.021-114.784 0-157.264m0 157.264c-33.601-59.803-60.77-99.829-83.164-126.1m83.164 126.1c-1.598 0-3.413.113-5.411.325m5.411-.325C179.132 234.737 80.049 342.827 49.979 394.262m284.932-180.414c27.187 10.344 101.915 48.445 183.326 118.093m-3.88-114.215c-7.033-12.125-8.003-10.911-21.34-20.612 0-5.625-21.339-56.052-32.009-80.562m53.349 101.174c-.324-3.799-1.213-11.834-2.183-13.58-1.212-2.182-11.397-8.728-20.127-7.032m22.31 20.612c3.697 3.092 6.588 7.923 8.816 13.358m-31.126-33.97c-8.73 1.697-14.065-.243-34.919 19.884m34.919-19.884c12.79 49.076 11.02 59.37 37.587 78.568m-37.587-78.568c-4.85-25.8-70.94-109.49-103.378-148.11m68.459 167.994c-15.035 7.275-49.954 46.802-64.261 72.749m64.261-72.749C450 243 447.5 315.936 447.5 315.936m9.628-98.938c12.771 21.906 45.152 64.31 72.506 58.684m-72.506-58.684C426.477 185.397 415.94 105.326 414 72.5m-21.133 217.247c18.429 11.252 54.633 26.189 54.633 26.189m-54.633-26.189v-102.01M414 72.5c-9.7 15.52-17.657 85.464-19.921 115.237-.416.137-.821.273-1.212.407-19.319-36.659-57.956-114.292-57.956-131.56M414 72.5c-22.31-9.864-70.166-21.642-79.089-15.916M414 72.5c12.188 8.933 29.674 29.6 47.008 44.052M414 72.5c-43.842 46.806-133.628 209.644-138.016 460.469M414 72.5c32.541 23.388 86.483 81.758 107.901 140.159M414 72.5c-190.805 34.415-223.059 305.98-215.335 437.46M383.652 97.69c-7.372 2.523-21.663 10.105-27.887 13.581-19.723-18.403-62.661-54.253-76.628-50.44m104.515 36.86c9.215-3.153 89.238 34.434 102.09 51.894m-102.09-51.894c-32.591-25.025-137.737-46.063-186.236-53.453m186.236 53.453c2.263-22.633-2.91-67.9-41.709-67.9m41.709 67.9c2.991-5.765 11.591-19.905 22.067-30.35m80.023 82.244c12.853 17.459 21.825 19.157 32.495 50.924m-32.495-50.924c-209.709-100.878-377.887.808-435.763 64.261m435.763-64.261c10.199 18.585 27.643 53.391 37.431 81.499m-4.936-30.575C485.259 119.325 432.474 72.852 389.77 49.192m128.467 151.317a209.806 209.806 0 0 1 3.664 12.15m-17.244-52.889c18.915 25.946 26.674 134.342 25.704 101.847-.232-7.773-3.013-18.544-7.188-30.533m-18.516-71.314c-15.132-20.758-29.261-40.982-34.434-48.499m34.434 48.499c-5.777-10.006-23.967-26.808-43.649-43.218m9.215-5.281c-48.693-59.363-107.2-79.042-130.366-81.461m130.366 81.461c-11.607-11.731-37.302-33.013-64.504-43.93m64.504 43.93c-21.34-36.48-51.894-44.487-64.504-43.93m64.504 43.93c-.405-.359-2.813.194-9.215 5.281m-181.871-55.72c-36.132 7.517-123.43 46.316-171.202 88.753m171.202-88.753c21.05-4.38 37.243-5.22 55.774-4.248m-55.774 4.248c0-12.125-7.598-34.515-11.397-40.497m11.397 40.497C149.735 35.87 73.295 125.22 40.521 194.914m67.414-45.329c-38.217 33.949-54.56 56.986-57.956 64.261m57.956-64.261v-40.982c0-4.122 68.869-55.739 89.481-64.365M49.979 213.846c-4.769-2.425-16.053-2.571-23.037 16.247m23.037-16.247c.389-7.256 1.552-14.317 3.259-21.097m-3.259 21.097c-3.583 20.09-9.674 62.234-5.375 70.083m5.375-70.083c17.056-59.179 86.765-176.829 229.158-174.005M26.942 230.093c-8.73 23.522 15.52-61.351 24.492-72.264 7.178-8.729 14.146-16.247 16.732-18.914 5.497-5.173 17.945-16.247 23.765-19.157M26.942 230.093c3.127-10.548 7.635-22.54 13.579-35.179m51.41-75.156c9.376-16.652 33.949-53.204 57.229-66.201m-57.23 66.201c6.304-3.152-27.623 29.012-38.692 72.991M149.16 53.557c29.099-16.248 62.321-28.615 94.815-30.07m-94.815 30.07c12.905-7.206 27.343-16.3 48.256-9.319m-48.256 9.319C-61.908 200.606 46.019 393.812 126.365 472.034c-1.552-8.979 5.188-27.273 8.753-35.297m108.857-413.25c10.864 4.656 27.24 11.98 31.524 16.957m-31.524-16.957c7.76-4.074 19.076-3.799 23.765-3.152m-23.765 3.152c-14.938 0-37.263 13.834-46.559 20.751M313.329 467.98c-1.213 19.159-4.947 58.155-10.185 60.869m10.185-60.869c-.328-.594-.667-1.464-1.015-2.58m-15.718-125.215c-8.923-4.85-43.649-68.626-59.896-99.907m59.896 99.907.255 2.88m-.255-2.88c-36.775 5.532-72.97 8.691-106.493 8.97M236.7 240.278c-12.686 46.685-28.725 82.081-46.597 108.877M236.7 240.278c22.459-8.106 69.81-23.668 92.8-26.105M211.481 467.98l-35.404-21.339c0 10.346 1.018 33.609 5.092 43.891m30.312-22.552 20.854 2.668m-20.854-2.668c-7.033 7.517-22.94 22.552-30.312 22.552m30.312-22.552c4.85-4.895 3.616-16.266 2.393-21.339m-2.393 21.339C77.808 403.06-20.829 220.429 197.416 44.238m34.919 426.41c.587.444 1.2.907 1.837 1.386m-1.837-1.386c20.098 2.968 64.23 6.074 79.979-5.248m-27.115 39.197c-6.705-.373-35.704-21.042-51.027-32.563m51.027 32.563c.65.036 1.296.153 1.94.341m-1.94-.341c-9.683 9.515-40.451 25.474-86.06 13.182m86.06-13.182c7.164-8.833 22.617-29.039 27.115-39.197m-9.17 63.449c-36.94-4.608-113.051-18.723-121.975-38.317m121.975 38.317c-6.219 3.222-90.76-2.961-104.005-11.07m104.005 11.07c2.828 1.05 9.72 1.937 14.669-2.913m-14.669 2.913C40.059 318.728 91.031 125.084 149.402 54.527c-12.109 51.465-10.87 116.229 7.173 174.275m42.09 281.158c-5.287-8.275-11.798-6.109-16.695-17.488m16.695 17.488c.279.438-.226 7.391.474 7.819m-.474-7.819c57.399-1.94 187.772-21.61 254.098-110.848m-271.594 91.42c.265.669.532 1.315.801 1.94m-.801-1.94c2.705 12.416 71.774 14.778 105.97 14.406m-52.967-32.904c-12.446 6.813-40.309 20.438-52.202 20.438m105.169 12.466c8.011 2.348 17.725 13.477 30.069 21.555.753-.807-.331.569.605-.557m-118.674-8.157C39.649 453.602 43.269 278.393 65.014 198.811m305.543 310.878c10.428 4.365 94.331-56.744 95.301-68.383m-95.301 68.383c14.744-6.472 67.591-57.985 92.172-82.933m-92.172 82.933c-17.847 15.326-42.599 17.217-52.744 16.247m148.045-84.63c.352-4.225-1.085-9.249-3.129-14.55m3.129 14.55c-59.625 35.523-111.225 38.082-153.544 24.094m153.544-24.094c16.227-23.357 45.977-80.693 35.162-123.188m-48.257 80.994C446 357.5 447.5 315.936 447.5 315.936m5.263 83.176c21.146-1.552 49.873-35.728 61.594-52.622 11.963-24.492 27.143-72.506 15.277-70.808m-76.871 123.43c.927 8.187 6.38 18.342 9.966 27.644M447.5 315.936s37.224 9.36 53.52 2.182m28.614-42.436c0 8.934-19.076 32.014-28.614 42.436m28.614-42.436c3.177-21.183-.209-42.507-7.733-63.023m-59.172 214.097c7.105-5.255 23.595-19.111 32.713-32.494 9.118-13.384 18.995-47.124 22.795-62.321m-55.508 94.815c-53.843 30.179-152.178 57.231-248.855 19.885m304.363-114.7-13.58 2.667-3.637-16.49M43.19 281.259l-14.147 11.155c-3.169-2.328-6.911-4.203-8.386-4.85m22.532-6.305c9.506 0 80.266-30.393 114.458-45.589M43.189 281.259c-3.654-6.79-12.354-16.57-16.247-20.612-2.716 4.074-5.322 19.642-6.285 26.917m22.532-6.305c.47.894.943 1.784 1.415 2.67m-1.415-87.543 10.049-3.637m11.776 6.062c13.822.566 51.7 8.73 92.633 36.859m-92.633-36.859c-10.297 34.077-24.806 98.095-22.682 146.224M157.647 235.67c-9.118 11.834-52.783 71.698-73.476 100.15m73.476-100.15c-4.462-1.746 3.314-94.33 7.76-140.404m169.504-38.682c13.276.697 27.753 2.324 46.074 4.248 8.15.855 16.511 3.208 24.734 6.509m-70.808-10.757c-29.876-22.41-104.112-17.568-137.495-12.346m137.495 12.346c-13.568-8.766-31.108-26.137 4.946-26.774m-4.946 26.774c18.734-10.025 42.931-9.318 53.758-7.58m-53.758 7.58c-132.888 5.914-153.142 162.47-146.659 240.009M80.292 438.881c3.879-2.102 11.639-8.003 11.639-14.792m-11.64 14.792c0 11.833 46.559 42.921 69.839 56.986m-69.839-56.986c-23.28-19.982-35.006-70.89-37.96-93.846m37.96 93.846c-6.208-19.788 0-76.952 3.88-103.061m7.76 88.269c0-6.79-5.173-42.922-7.76-60.139v-28.13m7.76 88.269c13.091-3.664 26.495-9.123 39.769-17.162m65.716-362.689C226.435 33.926 295.529 16.6 339.76 29.792M197.416 44.238c14.467 4.83 32.032 17.35 54.331 43.51m23.752-47.304 6.548-14.532c5.577 3.003 17.605 10.871 21.097 18.326 4.769-4.815 18.769-14.446 36.616-14.446m-64.261 10.652 3.638-.603M267.74 20.335c18.672-1.663 59.217-2.1 72.02 9.457M21.607 289.747c17.998 42.917 84.951 60.105 168.496 59.408M51.434 388.927c.578.583 1.18 1.184 1.804 1.801m78.462 50.578c20.758-1.94 38.233-5.982 44.377-7.76 11.486-2.372 31.417-9.814 53.724-24.424M131.7 441.306c-20.095 1.878-59.538-31.849-78.462-50.578m78.462 50.578a1089.3 1089.3 0 0 0 3.418-4.569m161.733-93.672c-20.79 30.313-45.073 51.664-67.05 66.057m67.05-66.057c3.305 37.04 10.38 106.038 15.463 122.335M190.103 349.155c-18.111 27.155-38.106 45.479-58.403 57.772m58.403-57.772c8.363 18.282 21.722 39.919 39.698 59.967m-39.698-59.967c0 10.991-34.726 60.34-54.985 87.582m7.737-332.742c20.458-7.355 70.878-20.903 108.892-16.247m88.013-57.956.097.018m-.097-.018-60.623 10.05M44.604 283.928C92.664 373.977 152.94 423.1 213.874 446.64M53.238 390.728c-6.848-11.195-10.094-27.281-10.907-45.693m171.543 101.606c-29.335 4.994-55.636.453-78.756-9.904m15.012 59.13c-6.144-16.857-18.43-58.245-18.43-88.94m18.43 88.94c21.186 4.329 80.993-16.975 79.671-86.745m0 0c21.257 23.706 48.969 45.191 82.513 56.278m29.629-435.608c-.715 0-1.41.006-2.086.018m2.086-.018c-13.895.08-51.387 11.785-90.196 57.956M389.77 49.192c-19.797-10.97-37.428-17.035-49.913-19.382m49.913 19.382a51.482 51.482 0 0 0-1.101-.189m17.05 18.338c-2.475-4.315-9.351-14.023-17.05-18.338m0 0c-156.265 277.603-77.185 426.438-18.112 466.155m-118.81-427.41c62.699 5.973 204.764 43.003 271.426 143.336M142.612 106.178c1.566 31.413 5.897 76.405 13.963 122.624m0 0c5.831 33.413 13.614 67.468 23.716 97.498m-23.716-97.498c7.54 24.257 18.015 47.341 31.677 67.791m-7.961 29.707c12.708 37.777 29.085 69.186 49.862 84.936M180.291 326.3a2509.905 2509.905 0 0 1 7.961-29.707m-7.961 29.707c-19.051 72.915-32.572 139.375-29.434 171.022m37.395-200.729C244.024 380.075 490 330.5 532.059 315.936M198.629 43.372c-32.899 20.289-72.021 87.152 37.586 198.118M135.118 436.737c-60.398-27.056-99.094-93.796-113.51-133.896-.455-4.134-.81-9.335-.951-15.277m19.864-92.65c-17.03 27.107-20.474 66.86-19.864 92.65m514.312-13.58C534.969 130.951 419.018 15 275.984 15 132.951 15 17 130.951 17 273.984s115.951 258.985 258.984 258.985m258.985-258.985c0 109.658-68.153 203.398-164.412 241.174m-94.573 17.811c33.376 0 65.276-6.313 94.573-17.811M329.5 214.173c26.267-20.947 101.522-50.575 192.401-1.514m0 0c5.65 20.961 7.529 40.048 7.733 47.988-.423-6.919-2.261-19.314-6.461-29.563"/><g filter="url(#b)"><mask id="d" width="522" height="521" x="14.697" y="14.152" fill="#000" maskUnits="userSpaceOnUse"><path fill="#fff" d="M14.697 14.152h522v521h-522z"/><path d="M145.037 103.753a2.425 2.425 0 1 1-4.85 0 2.425 2.425 0 0 1 4.85 0ZM143.582 81.2a2.425 2.425 0 1 1-4.85.002 2.425 2.425 0 0 1 4.85-.001Zm-39.769 22.553a2.425 2.425 0 1 1-4.85 0 2.425 2.425 0 0 1 4.85 0Zm7.76 4.85a2.425 2.425 0 1 1-4.85 0 2.425 2.425 0 0 1 4.85 0Zm-17.46 11.64a2.425 2.425 0 1 1-4.85 0 2.425 2.425 0 0 1 4.85 0ZM53.86 158.799a2.425 2.425 0 1 1-4.85.001 2.425 2.425 0 0 1 4.85-.001Zm-9.943 37.344a2.425 2.425 0 1 1-4.85 0 2.425 2.425 0 0 1 4.85 0Zm7.517 17.46a2.425 2.425 0 1 1-4.85 0 2.425 2.425 0 0 1 4.85 0Zm16.247-14.065a2.425 2.425 0 1 1-4.849 0 2.425 2.425 0 0 1 4.85 0Zm-12.125-5.82a2.425 2.425 0 1 1-4.849.001 2.425 2.425 0 0 1 4.85-.001Zm-23.764 24.735a2.425 2.425 0 1 1-4.85 0 2.425 2.425 0 0 1 4.85 0Zm-4.85 16.732a2.425 2.425 0 1 1-4.85 0 2.425 2.425 0 0 1 4.85 0Zm2.425 25.947a2.425 2.425 0 1 1-4.85 0 2.425 2.425 0 0 1 4.85 0Zm16.247 20.37a2.425 2.425 0 1 1-4.85 0 2.425 2.425 0 0 1 4.85 0Zm-22.067 6.547a2.425 2.425 0 1 1-4.85 0 2.425 2.425 0 0 1 4.85 0Zm.97 14.55a2.425 2.425 0 1 1-4.85 0 2.425 2.425 0 0 1 4.85 0Zm21.097 13.822a2.425 2.425 0 1 1-4.85 0 2.425 2.425 0 0 1 4.85 0Zm-1.454 28.857a2.425 2.425 0 1 1-4.851 0 2.425 2.425 0 0 1 4.85 0Zm42.436-8.488a2.425 2.425 0 1 1-4.85 0 2.425 2.425 0 0 1 4.85 0Zm46.559 71.051a2.425 2.425 0 1 1-4.85 0 2.425 2.425 0 0 1 4.85 0Zm-38.557 16.005a2.425 2.425 0 1 1-4.85 0 2.425 2.425 0 0 1 4.85 0ZM83.2 438.638a2.425 2.425 0 1 1-4.85 0 2.425 2.425 0 0 1 4.85 0Zm54.805-2.91a2.425 2.425 0 1 1-4.85 0 2.425 2.425 0 0 1 4.85 0Zm-3.88 5.335a2.425 2.425 0 1 1-4.85 0 2.425 2.425 0 0 1 4.85 0Zm-5.82 31.039a2.425 2.425 0 1 1-4.85 0 2.425 2.425 0 0 1 4.85 0Zm24.977 22.795a2.425 2.425 0 1 1-4.85 0 2.425 2.425 0 0 1 4.85 0Zm24.977-48.984a2.425 2.425 0 1 1-4.85 0 2.425 2.425 0 0 1 4.85 0Zm37.586 0a2.425 2.425 0 1 1-4.849.001 2.425 2.425 0 0 1 4.849-.001Zm16.733-37.102a2.425 2.425 0 1 1-4.85 0 2.425 2.425 0 0 1 4.85 0Zm2.91 61.836a2.425 2.425 0 1 1-4.85 0 2.425 2.425 0 0 1 4.85 0Zm-33.95 46.559a2.424 2.424 0 1 1-4.85 0 2.425 2.425 0 0 1 4.85 0Zm53.592 3.153a2.425 2.425 0 1 1-4.85 0 2.425 2.425 0 0 1 4.85 0Zm31.524-15.277a2.425 2.425 0 1 1-4.85 0 2.425 2.425 0 0 1 4.85 0Zm18.672 22.794a2.425 2.425 0 1 1-4.85 0 2.425 2.425 0 0 1 4.85 0Zm14.55-2.667a2.425 2.425 0 1 1-4.85 0 2.425 2.425 0 0 1 4.85 0Zm29.099-45.104a2.425 2.425 0 1 1-4.85 0 2.425 2.425 0 0 1 4.85 0Zm-33.464-14.307a2.425 2.425 0 1 1-4.85 0 2.425 2.425 0 0 1 4.85 0Zm36.617-88.754a2.425 2.425 0 1 1-4.85 0 2.425 2.425 0 0 1 4.85 0Zm-54.077-36.859a2.425 2.425 0 1 1-4.85 0 2.425 2.425 0 0 1 4.85 0Zm157.137 58.684a2.425 2.425 0 1 1-4.85 0 2.425 2.425 0 0 1 4.85 0Zm-3.838-81.721a2.425 2.425 0 1 1-4.85 0 2.425 2.425 0 0 1 4.85 0Zm52.579 1.213a2.425 2.425 0 1 1-4.85 0 2.425 2.425 0 0 1 4.85 0Zm2.425 16.004a2.425 2.425 0 1 1-4.85 0 2.425 2.425 0 0 1 4.85 0Zm9.457 10.913a2.425 2.425 0 1 1-4.85 0 2.425 2.425 0 0 1 4.85 0Zm3.395-13.338a2.424 2.424 0 1 1-4.85 0 2.425 2.425 0 0 1 4.85 0Zm12.853-65.473a2.425 2.425 0 1 1-4.85 0 2.425 2.425 0 0 1 4.85 0Zm0 8.972a2.425 2.425 0 1 1-4.85 0 2.425 2.425 0 0 1 4.85 0Zm-10.428-75.416a2.424 2.424 0 1 1-4.85 0 2.425 2.425 0 0 1 4.85 0Zm-7.275 3.88a2.424 2.424 0 1 1-4.849 0 2.425 2.425 0 1 1 4.849 0Zm-19.399-6.79a2.425 2.425 0 1 1-4.85 0 2.425 2.425 0 0 1 4.85 0Zm-36.132 20.612a2.424 2.424 0 1 1-4.85 0 2.425 2.425 0 0 1 4.85 0Zm-62.563-29.584a2.425 2.425 0 1 1-4.85 0 2.425 2.425 0 0 1 4.85 0Zm8.244-68.626a2.425 2.425 0 1 1-4.85 0 2.425 2.425 0 0 1 4.85 0Zm-18.672-22.067a2.425 2.425 0 1 1-4.849 0 2.425 2.425 0 0 1 4.849 0Zm-28.129 13.58a2.425 2.425 0 1 1-4.85 0 2.425 2.425 0 0 1 4.85 0Zm130.22 38.071a2.425 2.425 0 1 1-4.85 0 2.425 2.425 0 0 1 4.85 0Zm28.856 68.626a2.424 2.424 0 1 1-4.848.002 2.424 2.424 0 0 1 4.848-.002ZM200.083 44.584a2.424 2.424 0 1 1-4.849.001 2.424 2.424 0 0 1 4.849 0ZM246.4 24.457a2.425 2.425 0 1 1-4.85 0 2.425 2.425 0 0 1 4.85 0Zm91.42 32.495a2.425 2.425 0 1 1-4.85 0 2.425 2.425 0 0 1 4.85 0Zm-54.803 3.394a2.425 2.425 0 1 1-4.85 0 2.425 2.425 0 0 1 4.85 0Zm132.159 18.188a2.425 2.425 0 1 1-4.85 0 2.425 2.425 0 0 1 4.85 0ZM110.36 149.342a2.425 2.425 0 1 1-4.85 0 2.425 2.425 0 0 1 4.85 0Zm57.472-53.349a2.425 2.425 0 1 1-4.85 0 2.425 2.425 0 0 1 4.85 0Zm86.328-8.244a2.425 2.425 0 1 1-4.85-.001 2.425 2.425 0 0 1 4.85 0Zm30.311-60.867a2.424 2.424 0 1 1-4.849.001 2.424 2.424 0 0 1 4.849 0Zm-5.577 12.852a2.425 2.425 0 1 1-4.85 0 2.425 2.425 0 0 1 4.85 0Zm-8.245-19.157a2.425 2.425 0 1 1-4.85.001 2.425 2.425 0 0 1 4.85 0Zm73.234 8.73a2.425 2.425 0 1 1-4.85 0 2.425 2.425 0 0 1 4.85 0Zm-38.799 15.277a2.425 2.425 0 1 1-4.85 0 2.425 2.425 0 0 1 4.85 0Zm85.6 4.366a2.425 2.425 0 1 1-4.85-.001 2.425 2.425 0 0 1 4.85 0Zm-8.245 11.396a2.425 2.425 0 1 1-4.85.001 2.425 2.425 0 0 1 4.85 0Zm25.705 7.275a2.425 2.425 0 1 1-4.85 0 2.425 2.425 0 0 1 4.85 0Zm64.746 43.407a2.425 2.425 0 1 1-4.85 0 2.425 2.425 0 0 1 4.85 0Zm-9.215 6.062a2.425 2.425 0 1 1-4.85 0 2.425 2.425 0 0 1 4.85 0Zm11.64 27.16a2.425 2.425 0 1 1-4.849-.001 2.425 2.425 0 0 1 4.849.001Zm56.744 116.155a2.425 2.425 0 1 1-4.85 0 2.425 2.425 0 0 1 4.85 0Zm-136.282 28.857a2.425 2.425 0 1 1-4.85 0 2.425 2.425 0 0 1 4.85 0Zm-48.499-5.093a2.425 2.425 0 1 1-4.85 0 2.425 2.425 0 0 1 4.85 0ZM159.344 235.67a2.424 2.424 0 1 1-4.85 0 2.425 2.425 0 0 1 4.85 0Zm178.476-22.067a2.425 2.425 0 1 1-4.85 0 2.425 2.425 0 0 1 4.85 0Zm-99.908 26.917a2.425 2.425 0 1 1-4.849.001 2.425 2.425 0 0 1 4.849-.001ZM55.072 389.654a2.425 2.425 0 1 1-4.85 0 2.425 2.425 0 0 1 4.85 0Zm159.076-175.081a2.425 2.425 0 1 1-4.85 0 2.425 2.425 0 0 1 4.85 0Zm-31.039 275.959a2.425 2.425 0 1 1-4.85 0 2.425 2.425 0 0 1 4.85 0Zm30.312-23.037a2.425 2.425 0 1 1-4.85 0 2.425 2.425 0 0 1 4.85 0Zm312.09-253.649a2.425 2.425 0 1 1-4.85 0 2.425 2.425 0 0 1 4.85 0Zm-18.187-42.679a2.425 2.425 0 1 1-4.85 0 2.425 2.425 0 0 1 4.85 0ZM192.566 350.37a2.425 2.425 0 1 1-4.85 0 2.425 2.425 0 0 1 4.85 0Zm-2.425-52.445a2.425 2.425 0 1 1-4.85 0 2.425 2.425 0 0 1 4.85 0ZM464.85 426.5a2.425 2.425 0 1 1-4.85 0 2.425 2.425 0 0 1 4.85 0Zm2.575 15.575a2.425 2.425 0 1 1-4.85 0 2.425 2.425 0 0 1 4.85 0Zm55.661-211.15a2.425 2.425 0 1 1-4.85 0 2.425 2.425 0 0 1 4.85 0Zm-150.661 280.5a2.425 2.425 0 1 1-4.85 0 2.425 2.425 0 0 1 4.85 0ZM151.35 55a2.425 2.425 0 1 1-4.85 0 2.425 2.425 0 0 1 4.85 0Z"/></mask><path fill="#fff" d="M145.037 103.753a2.425 2.425 0 1 1-4.85 0 2.425 2.425 0 0 1 4.85 0ZM143.582 81.2a2.425 2.425 0 1 1-4.85.002 2.425 2.425 0 0 1 4.85-.001Zm-39.769 22.553a2.425 2.425 0 1 1-4.85 0 2.425 2.425 0 0 1 4.85 0Zm7.76 4.85a2.425 2.425 0 1 1-4.85 0 2.425 2.425 0 0 1 4.85 0Zm-17.46 11.64a2.425 2.425 0 1 1-4.85 0 2.425 2.425 0 0 1 4.85 0ZM53.86 158.799a2.425 2.425 0 1 1-4.85.001 2.425 2.425 0 0 1 4.85-.001Zm-9.943 37.344a2.425 2.425 0 1 1-4.85 0 2.425 2.425 0 0 1 4.85 0Zm7.517 17.46a2.425 2.425 0 1 1-4.85 0 2.425 2.425 0 0 1 4.85 0Zm16.247-14.065a2.425 2.425 0 1 1-4.849 0 2.425 2.425 0 0 1 4.85 0Zm-12.125-5.82a2.425 2.425 0 1 1-4.849.001 2.425 2.425 0 0 1 4.85-.001Zm-23.764 24.735a2.425 2.425 0 1 1-4.85 0 2.425 2.425 0 0 1 4.85 0Zm-4.85 16.732a2.425 2.425 0 1 1-4.85 0 2.425 2.425 0 0 1 4.85 0Zm2.425 25.947a2.425 2.425 0 1 1-4.85 0 2.425 2.425 0 0 1 4.85 0Zm16.247 20.37a2.425 2.425 0 1 1-4.85 0 2.425 2.425 0 0 1 4.85 0Zm-22.067 6.547a2.425 2.425 0 1 1-4.85 0 2.425 2.425 0 0 1 4.85 0Zm.97 14.55a2.425 2.425 0 1 1-4.85 0 2.425 2.425 0 0 1 4.85 0Zm21.097 13.822a2.425 2.425 0 1 1-4.85 0 2.425 2.425 0 0 1 4.85 0Zm-1.454 28.857a2.425 2.425 0 1 1-4.851 0 2.425 2.425 0 0 1 4.85 0Zm42.436-8.488a2.425 2.425 0 1 1-4.85 0 2.425 2.425 0 0 1 4.85 0Zm46.559 71.051a2.425 2.425 0 1 1-4.85 0 2.425 2.425 0 0 1 4.85 0Zm-38.557 16.005a2.425 2.425 0 1 1-4.85 0 2.425 2.425 0 0 1 4.85 0ZM83.2 438.638a2.425 2.425 0 1 1-4.85 0 2.425 2.425 0 0 1 4.85 0Zm54.805-2.91a2.425 2.425 0 1 1-4.85 0 2.425 2.425 0 0 1 4.85 0Zm-3.88 5.335a2.425 2.425 0 1 1-4.85 0 2.425 2.425 0 0 1 4.85 0Zm-5.82 31.039a2.425 2.425 0 1 1-4.85 0 2.425 2.425 0 0 1 4.85 0Zm24.977 22.795a2.425 2.425 0 1 1-4.85 0 2.425 2.425 0 0 1 4.85 0Zm24.977-48.984a2.425 2.425 0 1 1-4.85 0 2.425 2.425 0 0 1 4.85 0Zm37.586 0a2.425 2.425 0 1 1-4.849.001 2.425 2.425 0 0 1 4.849-.001Zm16.733-37.102a2.425 2.425 0 1 1-4.85 0 2.425 2.425 0 0 1 4.85 0Zm2.91 61.836a2.425 2.425 0 1 1-4.85 0 2.425 2.425 0 0 1 4.85 0Zm-33.95 46.559a2.424 2.424 0 1 1-4.85 0 2.425 2.425 0 0 1 4.85 0Zm53.592 3.153a2.425 2.425 0 1 1-4.85 0 2.425 2.425 0 0 1 4.85 0Zm31.524-15.277a2.425 2.425 0 1 1-4.85 0 2.425 2.425 0 0 1 4.85 0Zm18.672 22.794a2.425 2.425 0 1 1-4.85 0 2.425 2.425 0 0 1 4.85 0Zm14.55-2.667a2.425 2.425 0 1 1-4.85 0 2.425 2.425 0 0 1 4.85 0Zm29.099-45.104a2.425 2.425 0 1 1-4.85 0 2.425 2.425 0 0 1 4.85 0Zm-33.464-14.307a2.425 2.425 0 1 1-4.85 0 2.425 2.425 0 0 1 4.85 0Zm36.617-88.754a2.425 2.425 0 1 1-4.85 0 2.425 2.425 0 0 1 4.85 0Zm-54.077-36.859a2.425 2.425 0 1 1-4.85 0 2.425 2.425 0 0 1 4.85 0Zm157.137 58.684a2.425 2.425 0 1 1-4.85 0 2.425 2.425 0 0 1 4.85 0Zm-3.838-81.721a2.425 2.425 0 1 1-4.85 0 2.425 2.425 0 0 1 4.85 0Zm52.579 1.213a2.425 2.425 0 1 1-4.85 0 2.425 2.425 0 0 1 4.85 0Zm2.425 16.004a2.425 2.425 0 1 1-4.85 0 2.425 2.425 0 0 1 4.85 0Zm9.457 10.913a2.425 2.425 0 1 1-4.85 0 2.425 2.425 0 0 1 4.85 0Zm3.395-13.338a2.424 2.424 0 1 1-4.85 0 2.425 2.425 0 0 1 4.85 0Zm12.853-65.473a2.425 2.425 0 1 1-4.85 0 2.425 2.425 0 0 1 4.85 0Zm0 8.972a2.425 2.425 0 1 1-4.85 0 2.425 2.425 0 0 1 4.85 0Zm-10.428-75.416a2.424 2.424 0 1 1-4.85 0 2.425 2.425 0 0 1 4.85 0Zm-7.275 3.88a2.424 2.424 0 1 1-4.849 0 2.425 2.425 0 1 1 4.849 0Zm-19.399-6.79a2.425 2.425 0 1 1-4.85 0 2.425 2.425 0 0 1 4.85 0Zm-36.132 20.612a2.424 2.424 0 1 1-4.85 0 2.425 2.425 0 0 1 4.85 0Zm-62.563-29.584a2.425 2.425 0 1 1-4.85 0 2.425 2.425 0 0 1 4.85 0Zm8.244-68.626a2.425 2.425 0 1 1-4.85 0 2.425 2.425 0 0 1 4.85 0Zm-18.672-22.067a2.425 2.425 0 1 1-4.849 0 2.425 2.425 0 0 1 4.849 0Zm-28.129 13.58a2.425 2.425 0 1 1-4.85 0 2.425 2.425 0 0 1 4.85 0Zm130.22 38.071a2.425 2.425 0 1 1-4.85 0 2.425 2.425 0 0 1 4.85 0Zm28.856 68.626a2.424 2.424 0 1 1-4.848.002 2.424 2.424 0 0 1 4.848-.002ZM200.083 44.584a2.424 2.424 0 1 1-4.849.001 2.424 2.424 0 0 1 4.849 0ZM246.4 24.457a2.425 2.425 0 1 1-4.85 0 2.425 2.425 0 0 1 4.85 0Zm91.42 32.495a2.425 2.425 0 1 1-4.85 0 2.425 2.425 0 0 1 4.85 0Zm-54.803 3.394a2.425 2.425 0 1 1-4.85 0 2.425 2.425 0 0 1 4.85 0Zm132.159 18.188a2.425 2.425 0 1 1-4.85 0 2.425 2.425 0 0 1 4.85 0ZM110.36 149.342a2.425 2.425 0 1 1-4.85 0 2.425 2.425 0 0 1 4.85 0Zm57.472-53.349a2.425 2.425 0 1 1-4.85 0 2.425 2.425 0 0 1 4.85 0Zm86.328-8.244a2.425 2.425 0 1 1-4.85-.001 2.425 2.425 0 0 1 4.85 0Zm30.311-60.867a2.424 2.424 0 1 1-4.849.001 2.424 2.424 0 0 1 4.849 0Zm-5.577 12.852a2.425 2.425 0 1 1-4.85 0 2.425 2.425 0 0 1 4.85 0Zm-8.245-19.157a2.425 2.425 0 1 1-4.85.001 2.425 2.425 0 0 1 4.85 0Zm73.234 8.73a2.425 2.425 0 1 1-4.85 0 2.425 2.425 0 0 1 4.85 0Zm-38.799 15.277a2.425 2.425 0 1 1-4.85 0 2.425 2.425 0 0 1 4.85 0Zm85.6 4.366a2.425 2.425 0 1 1-4.85-.001 2.425 2.425 0 0 1 4.85 0Zm-8.245 11.396a2.425 2.425 0 1 1-4.85.001 2.425 2.425 0 0 1 4.85 0Zm25.705 7.275a2.425 2.425 0 1 1-4.85 0 2.425 2.425 0 0 1 4.85 0Zm64.746 43.407a2.425 2.425 0 1 1-4.85 0 2.425 2.425 0 0 1 4.85 0Zm-9.215 6.062a2.425 2.425 0 1 1-4.85 0 2.425 2.425 0 0 1 4.85 0Zm11.64 27.16a2.425 2.425 0 1 1-4.849-.001 2.425 2.425 0 0 1 4.849.001Zm56.744 116.155a2.425 2.425 0 1 1-4.85 0 2.425 2.425 0 0 1 4.85 0Zm-136.282 28.857a2.425 2.425 0 1 1-4.85 0 2.425 2.425 0 0 1 4.85 0Zm-48.499-5.093a2.425 2.425 0 1 1-4.85 0 2.425 2.425 0 0 1 4.85 0ZM159.344 235.67a2.424 2.424 0 1 1-4.85 0 2.425 2.425 0 0 1 4.85 0Zm178.476-22.067a2.425 2.425 0 1 1-4.85 0 2.425 2.425 0 0 1 4.85 0Zm-99.908 26.917a2.425 2.425 0 1 1-4.849.001 2.425 2.425 0 0 1 4.849-.001ZM55.072 389.654a2.425 2.425 0 1 1-4.85 0 2.425 2.425 0 0 1 4.85 0Zm159.076-175.081a2.425 2.425 0 1 1-4.85 0 2.425 2.425 0 0 1 4.85 0Zm-31.039 275.959a2.425 2.425 0 1 1-4.85 0 2.425 2.425 0 0 1 4.85 0Zm30.312-23.037a2.425 2.425 0 1 1-4.85 0 2.425 2.425 0 0 1 4.85 0Zm312.09-253.649a2.425 2.425 0 1 1-4.85 0 2.425 2.425 0 0 1 4.85 0Zm-18.187-42.679a2.425 2.425 0 1 1-4.85 0 2.425 2.425 0 0 1 4.85 0ZM192.566 350.37a2.425 2.425 0 1 1-4.85 0 2.425 2.425 0 0 1 4.85 0Zm-2.425-52.445a2.425 2.425 0 1 1-4.85 0 2.425 2.425 0 0 1 4.85 0ZM464.85 426.5a2.425 2.425 0 1 1-4.85 0 2.425 2.425 0 0 1 4.85 0Zm2.575 15.575a2.425 2.425 0 1 1-4.85 0 2.425 2.425 0 0 1 4.85 0Zm55.661-211.15a2.425 2.425 0 1 1-4.85 0 2.425 2.425 0 0 1 4.85 0Zm-150.661 280.5a2.425 2.425 0 1 1-4.85 0 2.425 2.425 0 0 1 4.85 0ZM151.35 55a2.425 2.425 0 1 1-4.85 0 2.425 2.425 0 0 1 4.85 0Z"/><path stroke="url(#c)" stroke-width="8" d="M145.037 103.753a2.425 2.425 0 1 1-4.85 0 2.425 2.425 0 0 1 4.85 0Z" mask="url(#d)"/><path stroke="url(#e)" stroke-width="8" d="M143.582 81.2a2.425 2.425 0 1 1-4.85.002 2.425 2.425 0 0 1 4.85-.001Z" mask="url(#d)"/><path stroke="url(#f)" stroke-width="8" d="M103.813 103.753a2.425 2.425 0 1 1-4.85 0 2.425 2.425 0 0 1 4.85 0Z" mask="url(#d)"/><path stroke="url(#g)" stroke-width="8" d="M111.573 108.603a2.425 2.425 0 1 1-4.85 0 2.425 2.425 0 0 1 4.85 0Z" mask="url(#d)"/><path stroke="url(#h)" stroke-width="8" d="M94.113 120.243a2.425 2.425 0 1 1-4.85 0 2.425 2.425 0 0 1 4.85 0Z" mask="url(#d)"/><path stroke="url(#i)" stroke-width="8" d="M53.86 158.799a2.425 2.425 0 1 1-4.85.001 2.425 2.425 0 0 1 4.85-.001Z" mask="url(#d)"/><path stroke="url(#j)" stroke-width="8" d="M43.917 196.143a2.425 2.425 0 1 1-4.85 0 2.425 2.425 0 0 1 4.85 0Z" mask="url(#d)"/><path stroke="url(#k)" stroke-width="8" d="M51.434 213.603a2.425 2.425 0 1 1-4.85 0 2.425 2.425 0 0 1 4.85 0Z" mask="url(#d)"/><path stroke="url(#l)" stroke-width="8" d="M67.681 199.538a2.425 2.425 0 1 1-4.849 0 2.425 2.425 0 0 1 4.85 0Z" mask="url(#d)"/><path stroke="url(#m)" stroke-width="8" d="M55.556 193.718a2.425 2.425 0 1 1-4.849.001 2.425 2.425 0 0 1 4.85-.001Z" mask="url(#d)"/><path stroke="url(#n)" stroke-width="8" d="M31.792 218.453a2.425 2.425 0 1 1-4.85 0 2.425 2.425 0 0 1 4.85 0Z" mask="url(#d)"/><path stroke="url(#o)" stroke-width="8" d="M26.942 235.185a2.425 2.425 0 1 1-4.85 0 2.425 2.425 0 0 1 4.85 0Z" mask="url(#d)"/><path stroke="url(#p)" stroke-width="8" d="M29.367 261.132a2.425 2.425 0 1 1-4.85 0 2.425 2.425 0 0 1 4.85 0Z" mask="url(#d)"/><path stroke="url(#q)" stroke-width="8" d="M45.614 281.502a2.425 2.425 0 1 1-4.85 0 2.425 2.425 0 0 1 4.85 0Z" mask="url(#d)"/><path stroke="url(#r)" stroke-width="8" d="M23.547 288.049a2.425 2.425 0 1 1-4.85 0 2.425 2.425 0 0 1 4.85 0Z" mask="url(#d)"/><path stroke="url(#s)" stroke-width="8" d="M24.517 302.599a2.425 2.425 0 1 1-4.85 0 2.425 2.425 0 0 1 4.85 0Z" mask="url(#d)"/><path stroke="url(#t)" stroke-width="8" d="M45.614 316.421a2.425 2.425 0 1 1-4.85 0 2.425 2.425 0 0 1 4.85 0Z" mask="url(#d)"/><path stroke="url(#u)" stroke-width="8" d="M44.16 345.278a2.425 2.425 0 1 1-4.851 0 2.425 2.425 0 0 1 4.85 0Z" mask="url(#d)"/><path stroke="url(#v)" stroke-width="8" d="M86.596 336.79a2.425 2.425 0 1 1-4.85 0 2.425 2.425 0 0 1 4.85 0Z" mask="url(#d)"/><path stroke="url(#w)" stroke-width="8" d="M133.155 407.841a2.425 2.425 0 1 1-4.85 0 2.425 2.425 0 0 1 4.85 0Z" mask="url(#d)"/><path stroke="url(#x)" stroke-width="8" d="M94.598 423.846a2.425 2.425 0 1 1-4.85 0 2.425 2.425 0 0 1 4.85 0Z" mask="url(#d)"/><path stroke="url(#y)" stroke-width="8" d="M83.2 438.638a2.425 2.425 0 1 1-4.85 0 2.425 2.425 0 0 1 4.85 0Z" mask="url(#d)"/><path stroke="url(#z)" stroke-width="8" d="M138.005 435.728a2.425 2.425 0 1 1-4.85 0 2.425 2.425 0 0 1 4.85 0Z" mask="url(#d)"/><path stroke="url(#A)" stroke-width="8" d="M134.125 441.063a2.425 2.425 0 1 1-4.85 0 2.425 2.425 0 0 1 4.85 0Z" mask="url(#d)"/><path stroke="url(#B)" stroke-width="8" d="M128.305 472.102a2.425 2.425 0 1 1-4.85 0 2.425 2.425 0 0 1 4.85 0Z" mask="url(#d)"/><path stroke="url(#C)" stroke-width="8" d="M153.282 494.897a2.425 2.425 0 1 1-4.85 0 2.425 2.425 0 0 1 4.85 0Z" mask="url(#d)"/><path stroke="url(#D)" stroke-width="8" d="M178.259 445.913a2.425 2.425 0 1 1-4.85 0 2.425 2.425 0 0 1 4.85 0Z" mask="url(#d)"/><path stroke="url(#E)" stroke-width="8" d="M215.845 445.913a2.425 2.425 0 1 1-4.849.001 2.425 2.425 0 0 1 4.849-.001Z" mask="url(#d)"/><path stroke="url(#F)" stroke-width="8" d="M232.578 408.811a2.425 2.425 0 1 1-4.85 0 2.425 2.425 0 0 1 4.85 0Z" mask="url(#d)"/><path stroke="url(#G)" stroke-width="8" d="M235.488 470.647a2.425 2.425 0 1 1-4.85 0 2.425 2.425 0 0 1 4.85 0Z" mask="url(#d)"/><path stroke="url(#H)" stroke-width="8" d="M201.538 517.206a2.424 2.424 0 1 1-4.85 0 2.425 2.425 0 0 1 4.85 0Z" mask="url(#d)"/><path stroke="url(#I)" stroke-width="8" d="M255.13 520.359a2.425 2.425 0 1 1-4.85 0 2.425 2.425 0 0 1 4.85 0Z" mask="url(#d)"/><path stroke="url(#J)" stroke-width="8" d="M286.654 505.082a2.425 2.425 0 1 1-4.85 0 2.425 2.425 0 0 1 4.85 0Z" mask="url(#d)"/><path stroke="url(#K)" stroke-width="8" d="M305.326 527.876a2.425 2.425 0 1 1-4.85 0 2.425 2.425 0 0 1 4.85 0Z" mask="url(#d)"/><path stroke="url(#L)" stroke-width="8" d="M319.876 525.209a2.425 2.425 0 1 1-4.85 0 2.425 2.425 0 0 1 4.85 0Z" mask="url(#d)"/><path stroke="url(#M)" stroke-width="8" d="M348.975 480.105a2.425 2.425 0 1 1-4.85 0 2.425 2.425 0 0 1 4.85 0Z" mask="url(#d)"/><path stroke="url(#N)" stroke-width="8" d="M315.511 465.798a2.425 2.425 0 1 1-4.85 0 2.425 2.425 0 0 1 4.85 0Z" mask="url(#d)"/><path stroke="url(#O)" stroke-width="8" d="M352.128 377.044a2.425 2.425 0 1 1-4.85 0 2.425 2.425 0 0 1 4.85 0Z" mask="url(#d)"/><path stroke="url(#P)" stroke-width="8" d="M298.051 340.185a2.425 2.425 0 1 1-4.85 0 2.425 2.425 0 0 1 4.85 0Z" mask="url(#d)"/><path stroke="url(#Q)" stroke-width="8" d="M455.188 398.869a2.425 2.425 0 1 1-4.85 0 2.425 2.425 0 0 1 4.85 0Z" mask="url(#d)"/><path stroke="url(#R)" stroke-width="8" d="M451.35 317.148a2.425 2.425 0 1 1-4.85 0 2.425 2.425 0 0 1 4.85 0Z" mask="url(#d)"/><path stroke="url(#S)" stroke-width="8" d="M503.929 318.361a2.425 2.425 0 1 1-4.85 0 2.425 2.425 0 0 1 4.85 0Z" mask="url(#d)"/><path stroke="url(#T)" stroke-width="8" d="M506.354 334.365a2.425 2.425 0 1 1-4.85 0 2.425 2.425 0 0 1 4.85 0Z" mask="url(#d)"/><path stroke="url(#U)" stroke-width="8" d="M515.811 345.278a2.425 2.425 0 1 1-4.85 0 2.425 2.425 0 0 1 4.85 0Z" mask="url(#d)"/><path stroke="url(#V)" stroke-width="8" d="M519.206 331.94a2.424 2.424 0 1 1-4.85 0 2.425 2.425 0 0 1 4.85 0Z" mask="url(#d)"/><path stroke="url(#W)" stroke-width="8" d="M532.059 266.467a2.425 2.425 0 1 1-4.85 0 2.425 2.425 0 0 1 4.85 0Z" mask="url(#d)"/><path stroke="url(#X)" stroke-width="8" d="M532.059 275.439a2.425 2.425 0 1 1-4.85 0 2.425 2.425 0 0 1 4.85 0Z" mask="url(#d)"/><path stroke="url(#Y)" stroke-width="8" d="M521.631 200.023a2.424 2.424 0 1 1-4.85 0 2.425 2.425 0 0 1 4.85 0Z" mask="url(#d)"/><path stroke="url(#Z)" stroke-width="8" d="M514.356 203.903a2.424 2.424 0 1 1-4.849 0 2.425 2.425 0 1 1 4.849 0Z" mask="url(#d)"/><path stroke="url(#aa)" stroke-width="8" d="M494.957 197.113a2.425 2.425 0 1 1-4.85 0 2.425 2.425 0 0 1 4.85 0Z" mask="url(#d)"/><path stroke="url(#ab)" stroke-width="8" d="M458.825 217.725a2.424 2.424 0 1 1-4.85 0 2.425 2.425 0 0 1 4.85 0Z" mask="url(#d)"/><path stroke="url(#ac)" stroke-width="8" d="M396.262 188.141a2.425 2.425 0 1 1-4.85 0 2.425 2.425 0 0 1 4.85 0Z" mask="url(#d)"/><path stroke="url(#ad)" stroke-width="8" d="M404.506 119.515a2.425 2.425 0 1 1-4.85 0 2.425 2.425 0 0 1 4.85 0Z" mask="url(#d)"/><path stroke="url(#ae)" stroke-width="8" d="M385.834 97.448a2.425 2.425 0 1 1-4.849 0 2.425 2.425 0 0 1 4.849 0Z" mask="url(#d)"/><path stroke="url(#af)" stroke-width="8" d="M357.705 111.028a2.425 2.425 0 1 1-4.85 0 2.425 2.425 0 0 1 4.85 0Z" mask="url(#d)"/><path stroke="url(#ag)" stroke-width="8" d="M487.925 149.099a2.425 2.425 0 1 1-4.85 0 2.425 2.425 0 0 1 4.85 0Z" mask="url(#d)"/><path stroke="url(#ah)" stroke-width="8" d="M516.781 217.725a2.424 2.424 0 1 1-4.848.002 2.424 2.424 0 0 1 4.848-.002Z" mask="url(#d)"/><path stroke="url(#ai)" stroke-width="8" d="M200.083 44.584a2.424 2.424 0 1 1-4.849.001 2.424 2.424 0 0 1 4.849 0Z" mask="url(#d)"/><path stroke="url(#aj)" stroke-width="8" d="M246.4 24.457a2.425 2.425 0 1 1-4.85 0 2.425 2.425 0 0 1 4.85 0Z" mask="url(#d)"/><path stroke="url(#ak)" stroke-width="8" d="M337.82 56.952a2.425 2.425 0 1 1-4.85 0 2.425 2.425 0 0 1 4.85 0Z" mask="url(#d)"/><path stroke="url(#al)" stroke-width="8" d="M283.017 60.346a2.425 2.425 0 1 1-4.85 0 2.425 2.425 0 0 1 4.85 0Z" mask="url(#d)"/><path stroke="url(#am)" stroke-width="8" d="M415.176 78.534a2.425 2.425 0 1 1-4.85 0 2.425 2.425 0 0 1 4.85 0Z" mask="url(#d)"/><path stroke="url(#an)" stroke-width="8" d="M110.36 149.342a2.425 2.425 0 1 1-4.85 0 2.425 2.425 0 0 1 4.85 0Z" mask="url(#d)"/><path stroke="url(#ao)" stroke-width="8" d="M167.832 95.993a2.425 2.425 0 1 1-4.85 0 2.425 2.425 0 0 1 4.85 0Z" mask="url(#d)"/><path stroke="url(#ap)" stroke-width="8" d="M254.16 87.749a2.425 2.425 0 1 1-4.85-.001 2.425 2.425 0 0 1 4.85 0Z" mask="url(#d)"/><path stroke="url(#aq)" stroke-width="8" d="M284.471 26.882a2.424 2.424 0 1 1-4.849.001 2.424 2.424 0 0 1 4.849 0Z" mask="url(#d)"/><path stroke="url(#ar)" stroke-width="8" d="M278.894 39.734a2.425 2.425 0 1 1-4.85 0 2.425 2.425 0 0 1 4.85 0Z" mask="url(#d)"/><path stroke="url(#as)" stroke-width="8" d="M270.649 20.577a2.425 2.425 0 1 1-4.85.001 2.425 2.425 0 0 1 4.85 0Z" mask="url(#d)"/><path stroke="url(#at)" stroke-width="8" d="M343.883 29.307a2.425 2.425 0 1 1-4.85 0 2.425 2.425 0 0 1 4.85 0Z" mask="url(#d)"/><path stroke="url(#au)" stroke-width="8" d="M305.084 44.584a2.425 2.425 0 1 1-4.85 0 2.425 2.425 0 0 1 4.85 0Z" mask="url(#d)"/><path stroke="url(#av)" stroke-width="8" d="M390.684 48.95a2.425 2.425 0 1 1-4.85-.001 2.425 2.425 0 0 1 4.85 0Z" mask="url(#d)"/><path stroke="url(#aw)" stroke-width="8" d="M382.439 60.346a2.425 2.425 0 1 1-4.85.001 2.425 2.425 0 0 1 4.85 0Z" mask="url(#d)"/><path stroke="url(#ax)" stroke-width="8" d="M408.144 67.621a2.425 2.425 0 1 1-4.85 0 2.425 2.425 0 0 1 4.85 0Z" mask="url(#d)"/><path stroke="url(#ay)" stroke-width="8" d="M472.89 111.028a2.425 2.425 0 1 1-4.85 0 2.425 2.425 0 0 1 4.85 0Z" mask="url(#d)"/><path stroke="url(#az)" stroke-width="8" d="M463.675 117.09a2.425 2.425 0 1 1-4.85 0 2.425 2.425 0 0 1 4.85 0Z" mask="url(#d)"/><path stroke="url(#aA)" stroke-width="8" d="M475.315 144.25a2.425 2.425 0 1 1-4.849-.001 2.425 2.425 0 0 1 4.849.001Z" mask="url(#d)"/><path stroke="url(#aB)" stroke-width="8" d="M532.059 260.405a2.425 2.425 0 1 1-4.85 0 2.425 2.425 0 0 1 4.85 0Z" mask="url(#d)"/><path stroke="url(#aC)" stroke-width="8" d="M395.777 289.262a2.425 2.425 0 1 1-4.85 0 2.425 2.425 0 0 1 4.85 0Z" mask="url(#d)"/><path stroke="url(#aD)" stroke-width="8" d="M347.278 284.169a2.425 2.425 0 1 1-4.85 0 2.425 2.425 0 0 1 4.85 0Z" mask="url(#d)"/><path stroke="url(#aE)" stroke-width="8" d="M159.344 235.67a2.424 2.424 0 1 1-4.85 0 2.425 2.425 0 0 1 4.85 0Z" mask="url(#d)"/><path stroke="url(#aF)" stroke-width="8" d="M337.82 213.603a2.425 2.425 0 1 1-4.85 0 2.425 2.425 0 0 1 4.85 0Z" mask="url(#d)"/><path stroke="url(#aG)" stroke-width="8" d="M237.912 240.52a2.425 2.425 0 1 1-4.849.001 2.425 2.425 0 0 1 4.849-.001Z" mask="url(#d)"/><path stroke="url(#aH)" stroke-width="8" d="M55.072 389.654a2.425 2.425 0 1 1-4.85 0 2.425 2.425 0 0 1 4.85 0Z" mask="url(#d)"/><path stroke="url(#aI)" stroke-width="8" d="M214.148 214.573a2.425 2.425 0 1 1-4.85 0 2.425 2.425 0 0 1 4.85 0Z" mask="url(#d)"/><path stroke="url(#aJ)" stroke-width="8" d="M183.109 490.532a2.425 2.425 0 1 1-4.85 0 2.425 2.425 0 0 1 4.85 0Z" mask="url(#d)"/><path stroke="url(#aK)" stroke-width="8" d="M213.421 467.495a2.425 2.425 0 1 1-4.85 0 2.425 2.425 0 0 1 4.85 0Z" mask="url(#d)"/><path stroke="url(#aL)" stroke-width="8" d="M525.511 213.846a2.425 2.425 0 1 1-4.85 0 2.425 2.425 0 0 1 4.85 0Z" mask="url(#d)"/><path stroke="url(#aM)" stroke-width="8" d="M507.324 171.167a2.425 2.425 0 1 1-4.85 0 2.425 2.425 0 0 1 4.85 0Z" mask="url(#d)"/><path stroke="url(#aN)" stroke-width="8" d="M192.566 350.37a2.425 2.425 0 1 1-4.85 0 2.425 2.425 0 0 1 4.85 0Z" mask="url(#d)"/><path stroke="url(#aO)" stroke-width="8" d="M190.141 297.925a2.425 2.425 0 1 1-4.85 0 2.425 2.425 0 0 1 4.85 0Z" mask="url(#d)"/><path stroke="url(#aP)" stroke-width="8" d="M464.85 426.5a2.425 2.425 0 1 1-4.85 0 2.425 2.425 0 0 1 4.85 0Z" mask="url(#d)"/><path stroke="url(#aQ)" stroke-width="8" d="M467.425 442.075a2.425 2.425 0 1 1-4.85 0 2.425 2.425 0 0 1 4.85 0Z" mask="url(#d)"/><path stroke="url(#aR)" stroke-width="8" d="M523.086 230.925a2.425 2.425 0 1 1-4.85 0 2.425 2.425 0 0 1 4.85 0Z" mask="url(#d)"/><path stroke="url(#aS)" stroke-width="8" d="M372.425 511.425a2.425 2.425 0 1 1-4.85 0 2.425 2.425 0 0 1 4.85 0Z" mask="url(#d)"/><path stroke="url(#aT)" stroke-width="8" d="M151.35 55a2.425 2.425 0 1 1-4.85 0 2.425 2.425 0 0 1 4.85 0Z" mask="url(#d)"/></g><defs><radialGradient id="c" cx="0" cy="0" r="1" gradientTransform="rotate(-23.941 921.086 -142.406) scale(433.12 778.94)" gradientUnits="userSpaceOnUse"><stop stop-color="#4700C1"/><stop offset="1" stop-color="#2C1D54"/></radialGradient><radialGradient id="e" cx="0" cy="0" r="1" gradientTransform="rotate(-23.941 921.086 -142.406) scale(433.12 778.94)" gradientUnits="userSpaceOnUse"><stop stop-color="#4700C1"/><stop offset="1" stop-color="#2C1D54"/></radialGradient><radialGradient id="f" cx="0" cy="0" r="1" gradientTransform="rotate(-23.941 921.086 -142.406) scale(433.12 778.94)" gradientUnits="userSpaceOnUse"><stop stop-color="#4700C1"/><stop offset="1" stop-color="#2C1D54"/></radialGradient><radialGradient id="g" cx="0" cy="0" r="1" gradientTransform="rotate(-23.941 921.086 -142.406) scale(433.12 778.94)" gradientUnits="userSpaceOnUse"><stop stop-color="#4700C1"/><stop offset="1" stop-color="#2C1D54"/></radialGradient><radialGradient id="h" cx="0" cy="0" r="1" gradientTransform="rotate(-23.941 921.086 -142.406) scale(433.12 778.94)" gradientUnits="userSpaceOnUse"><stop stop-color="#4700C1"/><stop offset="1" stop-color="#2C1D54"/></radialGradient><radialGradient id="i" cx="0" cy="0" r="1" gradientTransform="rotate(-23.941 921.086 -142.406) scale(433.12 778.94)" gradientUnits="userSpaceOnUse"><stop stop-color="#4700C1"/><stop offset="1" stop-color="#2C1D54"/></radialGradient><radialGradient id="j" cx="0" cy="0" r="1" gradientTransform="rotate(-23.941 921.086 -142.406) scale(433.12 778.94)" gradientUnits="userSpaceOnUse"><stop stop-color="#4700C1"/><stop offset="1" stop-color="#2C1D54"/></radialGradient><radialGradient id="k" cx="0" cy="0" r="1" gradientTransform="rotate(-23.941 921.086 -142.406) scale(433.12 778.94)" gradientUnits="userSpaceOnUse"><stop stop-color="#4700C1"/><stop offset="1" stop-color="#2C1D54"/></radialGradient><radialGradient id="l" cx="0" cy="0" r="1" gradientTransform="rotate(-23.941 921.086 -142.406) scale(433.12 778.94)" gradientUnits="userSpaceOnUse"><stop stop-color="#4700C1"/><stop offset="1" stop-color="#2C1D54"/></radialGradient><radialGradient id="m" cx="0" cy="0" r="1" gradientTransform="rotate(-23.941 921.086 -142.406) scale(433.12 778.94)" gradientUnits="userSpaceOnUse"><stop stop-color="#4700C1"/><stop offset="1" stop-color="#2C1D54"/></radialGradient><radialGradient id="n" cx="0" cy="0" r="1" gradientTransform="rotate(-23.941 921.086 -142.406) scale(433.12 778.94)" gradientUnits="userSpaceOnUse"><stop stop-color="#4700C1"/><stop offset="1" stop-color="#2C1D54"/></radialGradient><radialGradient id="o" cx="0" cy="0" r="1" gradientTransform="rotate(-23.941 921.086 -142.406) scale(433.12 778.94)" gradientUnits="userSpaceOnUse"><stop stop-color="#4700C1"/><stop offset="1" stop-color="#2C1D54"/></radialGradient><radialGradient id="p" cx="0" cy="0" r="1" gradientTransform="rotate(-23.941 921.086 -142.406) scale(433.12 778.94)" gradientUnits="userSpaceOnUse"><stop stop-color="#4700C1"/><stop offset="1" stop-color="#2C1D54"/></radialGradient><radialGradient id="q" cx="0" cy="0" r="1" gradientTransform="rotate(-23.941 921.086 -142.406) scale(433.12 778.94)" gradientUnits="userSpaceOnUse"><stop stop-color="#4700C1"/><stop offset="1" stop-color="#2C1D54"/></radialGradient><radialGradient id="r" cx="0" cy="0" r="1" gradientTransform="rotate(-23.941 921.086 -142.406) scale(433.12 778.94)" gradientUnits="userSpaceOnUse"><stop stop-color="#4700C1"/><stop offset="1" stop-color="#2C1D54"/></radialGradient><radialGradient id="s" cx="0" cy="0" r="1" gradientTransform="rotate(-23.941 921.086 -142.406) scale(433.12 778.94)" gradientUnits="userSpaceOnUse"><stop stop-color="#4700C1"/><stop offset="1" stop-color="#2C1D54"/></radialGradient><radialGradient id="t" cx="0" cy="0" r="1" gradientTransform="rotate(-23.941 921.086 -142.406) scale(433.12 778.94)" gradientUnits="userSpaceOnUse"><stop stop-color="#4700C1"/><stop offset="1" stop-color="#2C1D54"/></radialGradient><radialGradient id="u" cx="0" cy="0" r="1" gradientTransform="rotate(-23.941 921.086 -142.406) scale(433.12 778.94)" gradientUnits="userSpaceOnUse"><stop stop-color="#4700C1"/><stop offset="1" stop-color="#2C1D54"/></radialGradient><radialGradient id="v" cx="0" cy="0" r="1" gradientTransform="rotate(-23.941 921.086 -142.406) scale(433.12 778.94)" gradientUnits="userSpaceOnUse"><stop stop-color="#4700C1"/><stop offset="1" stop-color="#2C1D54"/></radialGradient><radialGradient id="w" cx="0" cy="0" r="1" gradientTransform="rotate(-23.941 921.086 -142.406) scale(433.12 778.94)" gradientUnits="userSpaceOnUse"><stop stop-color="#4700C1"/><stop offset="1" stop-color="#2C1D54"/></radialGradient><radialGradient id="x" cx="0" cy="0" r="1" gradientTransform="rotate(-23.941 921.086 -142.406) scale(433.12 778.94)" gradientUnits="userSpaceOnUse"><stop stop-color="#4700C1"/><stop offset="1" stop-color="#2C1D54"/></radialGradient><radialGradient id="y" cx="0" cy="0" r="1" gradientTransform="rotate(-23.941 921.086 -142.406) scale(433.12 778.94)" gradientUnits="userSpaceOnUse"><stop stop-color="#4700C1"/><stop offset="1" stop-color="#2C1D54"/></radialGradient><radialGradient id="z" cx="0" cy="0" r="1" gradientTransform="rotate(-23.941 921.086 -142.406) scale(433.12 778.94)" gradientUnits="userSpaceOnUse"><stop stop-color="#4700C1"/><stop offset="1" stop-color="#2C1D54"/></radialGradient><radialGradient id="A" cx="0" cy="0" r="1" gradientTransform="rotate(-23.941 921.086 -142.406) scale(433.12 778.94)" gradientUnits="userSpaceOnUse"><stop stop-color="#4700C1"/><stop offset="1" stop-color="#2C1D54"/></radialGradient><radialGradient id="B" cx="0" cy="0" r="1" gradientTransform="rotate(-23.941 921.086 -142.406) scale(433.12 778.94)" gradientUnits="userSpaceOnUse"><stop stop-color="#4700C1"/><stop offset="1" stop-color="#2C1D54"/></radialGradient><radialGradient id="C" cx="0" cy="0" r="1" gradientTransform="rotate(-23.941 921.086 -142.406) scale(433.12 778.94)" gradientUnits="userSpaceOnUse"><stop stop-color="#4700C1"/><stop offset="1" stop-color="#2C1D54"/></radialGradient><radialGradient id="D" cx="0" cy="0" r="1" gradientTransform="rotate(-23.941 921.086 -142.406) scale(433.12 778.94)" gradientUnits="userSpaceOnUse"><stop stop-color="#4700C1"/><stop offset="1" stop-color="#2C1D54"/></radialGradient><radialGradient id="E" cx="0" cy="0" r="1" gradientTransform="rotate(-23.941 921.086 -142.406) scale(433.12 778.94)" gradientUnits="userSpaceOnUse"><stop stop-color="#4700C1"/><stop offset="1" stop-color="#2C1D54"/></radialGradient><radialGradient id="F" cx="0" cy="0" r="1" gradientTransform="rotate(-23.941 921.086 -142.406) scale(433.12 778.94)" gradientUnits="userSpaceOnUse"><stop stop-color="#4700C1"/><stop offset="1" stop-color="#2C1D54"/></radialGradient><radialGradient id="G" cx="0" cy="0" r="1" gradientTransform="rotate(-23.941 921.086 -142.406) scale(433.12 778.94)" gradientUnits="userSpaceOnUse"><stop stop-color="#4700C1"/><stop offset="1" stop-color="#2C1D54"/></radialGradient><radialGradient id="H" cx="0" cy="0" r="1" gradientTransform="rotate(-23.941 921.086 -142.406) scale(433.12 778.94)" gradientUnits="userSpaceOnUse"><stop stop-color="#4700C1"/><stop offset="1" stop-color="#2C1D54"/></radialGradient><radialGradient id="I" cx="0" cy="0" r="1" gradientTransform="rotate(-23.941 921.086 -142.406) scale(433.12 778.94)" gradientUnits="userSpaceOnUse"><stop stop-color="#4700C1"/><stop offset="1" stop-color="#2C1D54"/></radialGradient><radialGradient id="J" cx="0" cy="0" r="1" gradientTransform="rotate(-23.941 921.086 -142.406) scale(433.12 778.94)" gradientUnits="userSpaceOnUse"><stop stop-color="#4700C1"/><stop offset="1" stop-color="#2C1D54"/></radialGradient><radialGradient id="K" cx="0" cy="0" r="1" gradientTransform="rotate(-23.941 921.086 -142.406) scale(433.12 778.94)" gradientUnits="userSpaceOnUse"><stop stop-color="#4700C1"/><stop offset="1" stop-color="#2C1D54"/></radialGradient><radialGradient id="L" cx="0" cy="0" r="1" gradientTransform="rotate(-23.941 921.086 -142.406) scale(433.12 778.94)" gradientUnits="userSpaceOnUse"><stop stop-color="#4700C1"/><stop offset="1" stop-color="#2C1D54"/></radialGradient><radialGradient id="M" cx="0" cy="0" r="1" gradientTransform="rotate(-23.941 921.086 -142.406) scale(433.12 778.94)" gradientUnits="userSpaceOnUse"><stop stop-color="#4700C1"/><stop offset="1" stop-color="#2C1D54"/></radialGradient><radialGradient id="N" cx="0" cy="0" r="1" gradientTransform="rotate(-23.941 921.086 -142.406) scale(433.12 778.94)" gradientUnits="userSpaceOnUse"><stop stop-color="#4700C1"/><stop offset="1" stop-color="#2C1D54"/></radialGradient><radialGradient id="O" cx="0" cy="0" r="1" gradientTransform="rotate(-23.941 921.086 -142.406) scale(433.12 778.94)" gradientUnits="userSpaceOnUse"><stop stop-color="#4700C1"/><stop offset="1" stop-color="#2C1D54"/></radialGradient><radialGradient id="P" cx="0" cy="0" r="1" gradientTransform="rotate(-23.941 921.086 -142.406) scale(433.12 778.94)" gradientUnits="userSpaceOnUse"><stop stop-color="#4700C1"/><stop offset="1" stop-color="#2C1D54"/></radialGradient><radialGradient id="Q" cx="0" cy="0" r="1" gradientTransform="rotate(-23.941 921.086 -142.406) scale(433.12 778.94)" gradientUnits="userSpaceOnUse"><stop stop-color="#4700C1"/><stop offset="1" stop-color="#2C1D54"/></radialGradient><radialGradient id="R" cx="0" cy="0" r="1" gradientTransform="rotate(-23.941 921.086 -142.406) scale(433.12 778.94)" gradientUnits="userSpaceOnUse"><stop stop-color="#4700C1"/><stop offset="1" stop-color="#2C1D54"/></radialGradient><radialGradient id="S" cx="0" cy="0" r="1" gradientTransform="rotate(-23.941 921.086 -142.406) scale(433.12 778.94)" gradientUnits="userSpaceOnUse"><stop stop-color="#4700C1"/><stop offset="1" stop-color="#2C1D54"/></radialGradient><radialGradient id="T" cx="0" cy="0" r="1" gradientTransform="rotate(-23.941 921.086 -142.406) scale(433.12 778.94)" gradientUnits="userSpaceOnUse"><stop stop-color="#4700C1"/><stop offset="1" stop-color="#2C1D54"/></radialGradient><radialGradient id="U" cx="0" cy="0" r="1" gradientTransform="rotate(-23.941 921.086 -142.406) scale(433.12 778.94)" gradientUnits="userSpaceOnUse"><stop stop-color="#4700C1"/><stop offset="1" stop-color="#2C1D54"/></radialGradient><radialGradient id="V" cx="0" cy="0" r="1" gradientTransform="rotate(-23.941 921.086 -142.406) scale(433.12 778.94)" gradientUnits="userSpaceOnUse"><stop stop-color="#4700C1"/><stop offset="1" stop-color="#2C1D54"/></radialGradient><radialGradient id="W" cx="0" cy="0" r="1" gradientTransform="rotate(-23.941 921.086 -142.406) scale(433.12 778.94)" gradientUnits="userSpaceOnUse"><stop stop-color="#4700C1"/><stop offset="1" stop-color="#2C1D54"/></radialGradient><radialGradient id="X" cx="0" cy="0" r="1" gradientTransform="rotate(-23.941 921.086 -142.406) scale(433.12 778.94)" gradientUnits="userSpaceOnUse"><stop stop-color="#4700C1"/><stop offset="1" stop-color="#2C1D54"/></radialGradient><radialGradient id="Y" cx="0" cy="0" r="1" gradientTransform="rotate(-23.941 921.086 -142.406) scale(433.12 778.94)" gradientUnits="userSpaceOnUse"><stop stop-color="#4700C1"/><stop offset="1" stop-color="#2C1D54"/></radialGradient><radialGradient id="Z" cx="0" cy="0" r="1" gradientTransform="rotate(-23.941 921.086 -142.406) scale(433.12 778.94)" gradientUnits="userSpaceOnUse"><stop stop-color="#4700C1"/><stop offset="1" stop-color="#2C1D54"/></radialGradient><radialGradient id="aa" cx="0" cy="0" r="1" gradientTransform="rotate(-23.941 921.086 -142.406) scale(433.12 778.94)" gradientUnits="userSpaceOnUse"><stop stop-color="#4700C1"/><stop offset="1" stop-color="#2C1D54"/></radialGradient><radialGradient id="ab" cx="0" cy="0" r="1" gradientTransform="rotate(-23.941 921.086 -142.406) scale(433.12 778.94)" gradientUnits="userSpaceOnUse"><stop stop-color="#4700C1"/><stop offset="1" stop-color="#2C1D54"/></radialGradient><radialGradient id="ac" cx="0" cy="0" r="1" gradientTransform="rotate(-23.941 921.086 -142.406) scale(433.12 778.94)" gradientUnits="userSpaceOnUse"><stop stop-color="#4700C1"/><stop offset="1" stop-color="#2C1D54"/></radialGradient><radialGradient id="ad" cx="0" cy="0" r="1" gradientTransform="rotate(-23.941 921.086 -142.406) scale(433.12 778.94)" gradientUnits="userSpaceOnUse"><stop stop-color="#4700C1"/><stop offset="1" stop-color="#2C1D54"/></radialGradient><radialGradient id="ae" cx="0" cy="0" r="1" gradientTransform="rotate(-23.941 921.086 -142.406) scale(433.12 778.94)" gradientUnits="userSpaceOnUse"><stop stop-color="#4700C1"/><stop offset="1" stop-color="#2C1D54"/></radialGradient><radialGradient id="af" cx="0" cy="0" r="1" gradientTransform="rotate(-23.941 921.086 -142.406) scale(433.12 778.94)" gradientUnits="userSpaceOnUse"><stop stop-color="#4700C1"/><stop offset="1" stop-color="#2C1D54"/></radialGradient><radialGradient id="ag" cx="0" cy="0" r="1" gradientTransform="rotate(-23.941 921.086 -142.406) scale(433.12 778.94)" gradientUnits="userSpaceOnUse"><stop stop-color="#4700C1"/><stop offset="1" stop-color="#2C1D54"/></radialGradient><radialGradient id="ah" cx="0" cy="0" r="1" gradientTransform="rotate(-23.941 921.086 -142.406) scale(433.12 778.94)" gradientUnits="userSpaceOnUse"><stop stop-color="#4700C1"/><stop offset="1" stop-color="#2C1D54"/></radialGradient><radialGradient id="ai" cx="0" cy="0" r="1" gradientTransform="rotate(-23.941 921.086 -142.406) scale(433.12 778.94)" gradientUnits="userSpaceOnUse"><stop stop-color="#4700C1"/><stop offset="1" stop-color="#2C1D54"/></radialGradient><radialGradient id="aj" cx="0" cy="0" r="1" gradientTransform="rotate(-23.941 921.086 -142.406) scale(433.12 778.94)" gradientUnits="userSpaceOnUse"><stop stop-color="#4700C1"/><stop offset="1" stop-color="#2C1D54"/></radialGradient><radialGradient id="ak" cx="0" cy="0" r="1" gradientTransform="rotate(-23.941 921.086 -142.406) scale(433.12 778.94)" gradientUnits="userSpaceOnUse"><stop stop-color="#4700C1"/><stop offset="1" stop-color="#2C1D54"/></radialGradient><radialGradient id="al" cx="0" cy="0" r="1" gradientTransform="rotate(-23.941 921.086 -142.406) scale(433.12 778.94)" gradientUnits="userSpaceOnUse"><stop stop-color="#4700C1"/><stop offset="1" stop-color="#2C1D54"/></radialGradient><radialGradient id="am" cx="0" cy="0" r="1" gradientTransform="rotate(-23.941 921.086 -142.406) scale(433.12 778.94)" gradientUnits="userSpaceOnUse"><stop stop-color="#4700C1"/><stop offset="1" stop-color="#2C1D54"/></radialGradient><radialGradient id="an" cx="0" cy="0" r="1" gradientTransform="rotate(-23.941 921.086 -142.406) scale(433.12 778.94)" gradientUnits="userSpaceOnUse"><stop stop-color="#4700C1"/><stop offset="1" stop-color="#2C1D54"/></radialGradient><radialGradient id="ao" cx="0" cy="0" r="1" gradientTransform="rotate(-23.941 921.086 -142.406) scale(433.12 778.94)" gradientUnits="userSpaceOnUse"><stop stop-color="#4700C1"/><stop offset="1" stop-color="#2C1D54"/></radialGradient><radialGradient id="ap" cx="0" cy="0" r="1" gradientTransform="rotate(-23.941 921.086 -142.406) scale(433.12 778.94)" gradientUnits="userSpaceOnUse"><stop stop-color="#4700C1"/><stop offset="1" stop-color="#2C1D54"/></radialGradient><radialGradient id="aq" cx="0" cy="0" r="1" gradientTransform="rotate(-23.941 921.086 -142.406) scale(433.12 778.94)" gradientUnits="userSpaceOnUse"><stop stop-color="#4700C1"/><stop offset="1" stop-color="#2C1D54"/></radialGradient><radialGradient id="ar" cx="0" cy="0" r="1" gradientTransform="rotate(-23.941 921.086 -142.406) scale(433.12 778.94)" gradientUnits="userSpaceOnUse"><stop stop-color="#4700C1"/><stop offset="1" stop-color="#2C1D54"/></radialGradient><radialGradient id="as" cx="0" cy="0" r="1" gradientTransform="rotate(-23.941 921.086 -142.406) scale(433.12 778.94)" gradientUnits="userSpaceOnUse"><stop stop-color="#4700C1"/><stop offset="1" stop-color="#2C1D54"/></radialGradient><radialGradient id="at" cx="0" cy="0" r="1" gradientTransform="rotate(-23.941 921.086 -142.406) scale(433.12 778.94)" gradientUnits="userSpaceOnUse"><stop stop-color="#4700C1"/><stop offset="1" stop-color="#2C1D54"/></radialGradient><radialGradient id="au" cx="0" cy="0" r="1" gradientTransform="rotate(-23.941 921.086 -142.406) scale(433.12 778.94)" gradientUnits="userSpaceOnUse"><stop stop-color="#4700C1"/><stop offset="1" stop-color="#2C1D54"/></radialGradient><radialGradient id="av" cx="0" cy="0" r="1" gradientTransform="rotate(-23.941 921.086 -142.406) scale(433.12 778.94)" gradientUnits="userSpaceOnUse"><stop stop-color="#4700C1"/><stop offset="1" stop-color="#2C1D54"/></radialGradient><radialGradient id="aw" cx="0" cy="0" r="1" gradientTransform="rotate(-23.941 921.086 -142.406) scale(433.12 778.94)" gradientUnits="userSpaceOnUse"><stop stop-color="#4700C1"/><stop offset="1" stop-color="#2C1D54"/></radialGradient><radialGradient id="ax" cx="0" cy="0" r="1" gradientTransform="rotate(-23.941 921.086 -142.406) scale(433.12 778.94)" gradientUnits="userSpaceOnUse"><stop stop-color="#4700C1"/><stop offset="1" stop-color="#2C1D54"/></radialGradient><radialGradient id="ay" cx="0" cy="0" r="1" gradientTransform="rotate(-23.941 921.086 -142.406) scale(433.12 778.94)" gradientUnits="userSpaceOnUse"><stop stop-color="#4700C1"/><stop offset="1" stop-color="#2C1D54"/></radialGradient><radialGradient id="az" cx="0" cy="0" r="1" gradientTransform="rotate(-23.941 921.086 -142.406) scale(433.12 778.94)" gradientUnits="userSpaceOnUse"><stop stop-color="#4700C1"/><stop offset="1" stop-color="#2C1D54"/></radialGradient><radialGradient id="aA" cx="0" cy="0" r="1" gradientTransform="rotate(-23.941 921.086 -142.406) scale(433.12 778.94)" gradientUnits="userSpaceOnUse"><stop stop-color="#4700C1"/><stop offset="1" stop-color="#2C1D54"/></radialGradient><radialGradient id="aB" cx="0" cy="0" r="1" gradientTransform="rotate(-23.941 921.086 -142.406) scale(433.12 778.94)" gradientUnits="userSpaceOnUse"><stop stop-color="#4700C1"/><stop offset="1" stop-color="#2C1D54"/></radialGradient><radialGradient id="aC" cx="0" cy="0" r="1" gradientTransform="rotate(-23.941 921.086 -142.406) scale(433.12 778.94)" gradientUnits="userSpaceOnUse"><stop stop-color="#4700C1"/><stop offset="1" stop-color="#2C1D54"/></radialGradient><radialGradient id="aD" cx="0" cy="0" r="1" gradientTransform="rotate(-23.941 921.086 -142.406) scale(433.12 778.94)" gradientUnits="userSpaceOnUse"><stop stop-color="#4700C1"/><stop offset="1" stop-color="#2C1D54"/></radialGradient><radialGradient id="aE" cx="0" cy="0" r="1" gradientTransform="rotate(-23.941 921.086 -142.406) scale(433.12 778.94)" gradientUnits="userSpaceOnUse"><stop stop-color="#4700C1"/><stop offset="1" stop-color="#2C1D54"/></radialGradient><radialGradient id="aF" cx="0" cy="0" r="1" gradientTransform="rotate(-23.941 921.086 -142.406) scale(433.12 778.94)" gradientUnits="userSpaceOnUse"><stop stop-color="#4700C1"/><stop offset="1" stop-color="#2C1D54"/></radialGradient><radialGradient id="aG" cx="0" cy="0" r="1" gradientTransform="rotate(-23.941 921.086 -142.406) scale(433.12 778.94)" gradientUnits="userSpaceOnUse"><stop stop-color="#4700C1"/><stop offset="1" stop-color="#2C1D54"/></radialGradient><radialGradient id="aH" cx="0" cy="0" r="1" gradientTransform="rotate(-23.941 921.086 -142.406) scale(433.12 778.94)" gradientUnits="userSpaceOnUse"><stop stop-color="#4700C1"/><stop offset="1" stop-color="#2C1D54"/></radialGradient><radialGradient id="aI" cx="0" cy="0" r="1" gradientTransform="rotate(-23.941 921.086 -142.406) scale(433.12 778.94)" gradientUnits="userSpaceOnUse"><stop stop-color="#4700C1"/><stop offset="1" stop-color="#2C1D54"/></radialGradient><radialGradient id="aJ" cx="0" cy="0" r="1" gradientTransform="rotate(-23.941 921.086 -142.406) scale(433.12 778.94)" gradientUnits="userSpaceOnUse"><stop stop-color="#4700C1"/><stop offset="1" stop-color="#2C1D54"/></radialGradient><radialGradient id="aK" cx="0" cy="0" r="1" gradientTransform="rotate(-23.941 921.086 -142.406) scale(433.12 778.94)" gradientUnits="userSpaceOnUse"><stop stop-color="#4700C1"/><stop offset="1" stop-color="#2C1D54"/></radialGradient><radialGradient id="aL" cx="0" cy="0" r="1" gradientTransform="rotate(-23.941 921.086 -142.406) scale(433.12 778.94)" gradientUnits="userSpaceOnUse"><stop stop-color="#4700C1"/><stop offset="1" stop-color="#2C1D54"/></radialGradient><radialGradient id="aM" cx="0" cy="0" r="1" gradientTransform="rotate(-23.941 921.086 -142.406) scale(433.12 778.94)" gradientUnits="userSpaceOnUse"><stop stop-color="#4700C1"/><stop offset="1" stop-color="#2C1D54"/></radialGradient><radialGradient id="aN" cx="0" cy="0" r="1" gradientTransform="rotate(-23.941 921.086 -142.406) scale(433.12 778.94)" gradientUnits="userSpaceOnUse"><stop stop-color="#4700C1"/><stop offset="1" stop-color="#2C1D54"/></radialGradient><radialGradient id="aO" cx="0" cy="0" r="1" gradientTransform="rotate(-23.941 921.086 -142.406) scale(433.12 778.94)" gradientUnits="userSpaceOnUse"><stop stop-color="#4700C1"/><stop offset="1" stop-color="#2C1D54"/></radialGradient><radialGradient id="aP" cx="0" cy="0" r="1" gradientTransform="rotate(-23.941 921.086 -142.406) scale(433.12 778.94)" gradientUnits="userSpaceOnUse"><stop stop-color="#4700C1"/><stop offset="1" stop-color="#2C1D54"/></radialGradient><radialGradient id="aQ" cx="0" cy="0" r="1" gradientTransform="rotate(-23.941 921.086 -142.406) scale(433.12 778.94)" gradientUnits="userSpaceOnUse"><stop stop-color="#4700C1"/><stop offset="1" stop-color="#2C1D54"/></radialGradient><radialGradient id="aR" cx="0" cy="0" r="1" gradientTransform="rotate(-23.941 921.086 -142.406) scale(433.12 778.94)" gradientUnits="userSpaceOnUse"><stop stop-color="#4700C1"/><stop offset="1" stop-color="#2C1D54"/></radialGradient><radialGradient id="aS" cx="0" cy="0" r="1" gradientTransform="rotate(-23.941 921.086 -142.406) scale(433.12 778.94)" gradientUnits="userSpaceOnUse"><stop stop-color="#4700C1"/><stop offset="1" stop-color="#2C1D54"/></radialGradient><radialGradient id="aT" cx="0" cy="0" r="1" gradientTransform="rotate(-23.941 921.086 -142.406) scale(433.12 778.94)" gradientUnits="userSpaceOnUse"><stop stop-color="#4700C1"/><stop offset="1" stop-color="#2C1D54"/></radialGradient><linearGradient id="a" x1="17" x2="534.969" y1="273.984" y2="273.984" gradientUnits="userSpaceOnUse"><stop stop-color="#361693"/><stop offset=".538" stop-color="#743C7F"/><stop offset="1" stop-color="#D18C4C"/></linearGradient><filter id="b" width="551.361" height="550.149" x=".697" y=".152" color-interpolation-filters="sRGB" filterUnits="userSpaceOnUse"><feFlood flood-opacity="0" result="BackgroundImageFix"/><feColorMatrix in="SourceAlpha" result="hardAlpha" values="0 0 0 0 0 0 0 0 0 0 0 0 0 0 0 0 0 0 127 0"/><feOffset dx="1" dy="1"/><feGaussianBlur stdDeviation="7.5"/><feComposite in2="hardAlpha" operator="out"/><feColorMatrix values="0 0 0 0 0.563743 0 0 0 0 0.51527 0 0 0 0 1 0 0 0 0.55 0"/><feBlend in2="BackgroundImageFix" result="effect1_dropShadow_394_12523"/><feBlend in="SourceGraphic" in2="effect1_dropShadow_394_12523" result="shape"/></filter></defs></svg>