<svg width="40" height="40" viewBox="0 0 40 40" fill="none" xmlns="http://www.w3.org/2000/svg">
<path d="M34.1666 12.1305L19.9999 20.0009M19.9999 20.0009L5.83328 12.1305M19.9999 20.0009L20 35.8343M35 26.7652V13.2367C35 12.6656 35 12.3801 34.9159 12.1254C34.8414 11.9001 34.7197 11.6933 34.5589 11.5188C34.3772 11.3216 34.1276 11.1829 33.6284 10.9056L21.2951 4.05376C20.8224 3.79116 20.586 3.65986 20.3358 3.60839C20.1142 3.56283 19.8858 3.56283 19.6643 3.60839C19.414 3.65986 19.1776 3.79116 18.705 4.05376L6.37162 10.9056C5.87241 11.183 5.62281 11.3216 5.44106 11.5188C5.28026 11.6933 5.15858 11.9001 5.08414 12.1254C5 12.3801 5 12.6656 5 13.2367V26.7652C5 27.3363 5 27.6218 5.08414 27.8765C5.15858 28.1018 5.28026 28.3086 5.44106 28.4831C5.62281 28.6803 5.87241 28.819 6.37162 29.0963L18.705 35.9481C19.1776 36.2107 19.414 36.342 19.6643 36.3935C19.8858 36.4391 20.1142 36.4391 20.3358 36.3935C20.586 36.342 20.8224 36.2107 21.2951 35.9481L33.6284 29.0963C34.1276 28.819 34.3772 28.6803 34.5589 28.4831C34.7197 28.3086 34.8414 28.1018 34.9159 27.8765C35 27.6218 35 27.3363 35 26.7652Z" stroke="#141519" stroke-width="2" stroke-linecap="round" stroke-linejoin="round"/>
</svg>
