<svg width="40" height="40" viewBox="0 0 40 40" fill="none" xmlns="http://www.w3.org/2000/svg">
<path d="M19.9997 3.33398C24.9997 6.66732 26.5376 13.8207 26.6663 20.0006C26.5376 26.1806 24.9997 33.334 19.9997 36.6673M19.9997 3.33398C14.9997 6.66732 13.4618 13.8207 13.333 20.0007C13.4618 26.1806 14.9997 33.334 19.9997 36.6673M19.9997 3.33398C10.7949 3.33398 3.33301 10.7959 3.33301 20.0007M19.9997 3.33398C29.2044 3.33398 36.6663 10.7959 36.6663 20.0007M19.9997 36.6673C29.2044 36.6673 36.6663 29.2054 36.6663 20.0007M19.9997 36.6673C10.7949 36.6673 3.33301 29.2054 3.33301 20.0007M36.6663 20.0007C33.333 25.0007 26.1796 26.5386 19.9997 26.6673C13.8197 26.5386 6.66634 25.0007 3.33301 20.0007M36.6663 20.0007C33.333 15.0007 26.1796 13.4627 19.9997 13.334C13.8197 13.4627 6.66634 15.0007 3.33301 20.0007" stroke="#141519" stroke-width="2" stroke-linecap="round" stroke-linejoin="round"/>
</svg>
